<svg width="30" height="34" viewBox="0 0 30 34" xmlns="http://www.w3.org/2000/svg"><title>black-male-user-symbol</title><path d="M30 26.544l-.122.145C25.913 31.404 20.628 34 15.001 34 9.375 34 4.087 31.404.117 26.689L0 26.544l.028-.18c.768-4.953 3.377-8.928 7.354-11.203l.28-.161.228.233A9.793 9.793 0 0 0 15 18.26a9.792 9.792 0 0 0 7.11-3.027l.224-.233.284.16c3.973 2.276 6.586 6.25 7.354 11.204l.028.18zM15 14c3.86 0 7-3.14 7-6.999C22 3.14 18.86 0 15 0S8 3.14 8 6.998C8 10.858 11.14 14 15 14z" fill="#18181D" fill-rule="evenodd"/></svg>