<svg width="72" height="10" viewBox="0 0 72 10" xmlns="http://www.w3.org/2000/svg" xmlns:xlink="http://www.w3.org/1999/xlink"><title>Page 1</title><defs><path id="a" d="M0 9.18h71.962V.49H0z"/></defs><g fill="none" fill-rule="evenodd"><path d="M.91 8.226h3.04c1.28 0 2.017-.596 2.017-1.633 0-1.013-.738-1.609-2.017-1.609H.91v3.242zm0-4.017h2.67c1.094 0 1.722-.476 1.722-1.346 0-.894-.628-1.382-1.722-1.382H.91v2.728zM0 9.024V.682h3.727c1.525 0 2.473.775 2.473 2.026 0 .87-.43 1.514-1.132 1.764C6.2 4.65 6.938 5.473 6.938 6.7c0 1.394-1.07 2.323-2.829 2.323h-4.11zm12.366-1.597V6.63a3.573 3.573 0 0 0-1.932-.572c-1.082 0-1.759.44-1.759 1.156 0 .775.701 1.18 1.624 1.18.849 0 1.636-.441 2.067-.966m-3.924 1.24c-.431-.346-.652-.81-.652-1.407 0-.583.233-1.048.688-1.394.468-.346 1.046-.513 1.747-.513.775 0 1.489.192 2.14.56v-.57c0-.967-.651-1.444-1.955-1.444-.702 0-1.341.192-1.944.585V3.65c.578-.346 1.28-.525 2.128-.525 1.587 0 2.657.739 2.657 2.134V7.63c0 .441.222.715.566.715a.776.776 0 0 0 .345-.071v.667c-.124.083-.32.132-.591.132-.578 0-1.021-.299-1.12-.919-.603.68-1.402 1.013-2.399 1.013-.627 0-1.168-.166-1.61-.5m7.148-.357c-.602-.584-.897-1.3-.897-2.17 0-.858.307-1.573.91-2.145.603-.584 1.365-.87 2.263-.87.69 0 1.292.143 1.796.417v.799a3.406 3.406 0 0 0-1.673-.442c-.677 0-1.255.216-1.71.644-.455.418-.677.953-.677 1.61 0 .643.222 1.18.677 1.608.455.417 1.033.632 1.71.632a3.26 3.26 0 0 0 1.784-.5v.786c-.554.322-1.193.488-1.919.488-.899 0-1.661-.286-2.263-.857M22.038.682V5.64l2.83-2.372h1.205l-3.137 2.599 3.58 3.157h-1.267l-3.211-2.836v2.836h-.886V.682z" fill="#FEFEFE"/><mask id="b" fill="#fff"><use xlink:href="#a"/></mask><path d="M27.49 9.024h1.734V3.077h-1.735v5.947zm.86-8.533c.579 0 1.034.441 1.034 1.013 0 .56-.455 1.002-1.034 1.002-.578 0-1.033-.442-1.033-1.002 0-.572.455-1.013 1.033-1.013zm3.95 8.533h-1.735V3.078H32.3v.715c.553-.585 1.23-.87 2.054-.87 1.427 0 2.24.93 2.24 2.455v3.646h-1.735v-3.3c0-.918-.53-1.264-1.169-1.264-.541 0-1.095.334-1.39.775v3.79zm8.256-2.061h1.39c.48 0 .788-.262.788-.68 0-.416-.332-.703-.788-.703h-1.39v1.383zm0-3.17h1.342c.356 0 .627-.239.627-.537 0-.346-.271-.583-.627-.583h-1.342v1.12zm-2.645 5.231V.682h4.367c.8 0 1.453.179 1.969.548.516.358.775.882.775 1.586 0 .392-.111.738-.345 1.012-.234.275-.455.465-.688.572.369.072.738.31 1.094.715.357.394.541.895.541 1.49 0 .727-.295 1.311-.873 1.752-.578.44-1.34.667-2.288.667h-4.552zm8.602-1.716V.682h2.583v6.066c0 .239.172.334.332.334a.775.775 0 0 0 .307-.06v1.919c-.332.155-.762.239-1.315.239-1.267 0-1.907-.62-1.907-1.872m7.887-.703a.961.961 0 0 0-.64-.214c-.43 0-.763.202-.763.595 0 .382.307.609.7.609.333 0 .567-.12.702-.346v-.644zm3.185.477V8.81c-.307.25-.738.37-1.279.37-.75 0-1.44-.37-1.648-.81-.333.464-1.034.81-1.882.81-.702 0-1.255-.19-1.662-.573a1.965 1.965 0 0 1-.614-1.465c0-.656.245-1.144.738-1.467a3.095 3.095 0 0 1 1.697-.488c.554 0 1.021.107 1.428.334 0-.608-.419-.918-1.268-.918-.676 0-1.291.13-1.82.393v-1.87c.688-.275 1.5-.406 2.423-.406.96 0 1.734.238 2.325.703.59.465.885 1.073.885 1.836v1.644c0 .191.111.286.32.286a.63.63 0 0 0 .357-.107zm2.258 1.764a3.128 3.128 0 0 1-1.316-1.109c-.357-.512-.541-1.108-.541-1.8 0-.703.184-1.298.54-1.799.727-1.001 1.81-1.418 3.002-1.418.701 0 1.329.119 1.87.345v2.062a4.389 4.389 0 0 0-1.451-.274c-.8 0-1.44.394-1.44 1.097 0 .715.64 1.108 1.489 1.108.529 0 1.02-.107 1.476-.31v2.038a5.035 5.035 0 0 1-1.969.393 4.174 4.174 0 0 1-1.66-.333m4.541.178V.682h2.583v4.361l1.637-2.168h2.964L69.28 5.64l2.682 3.384H68.8l-1.833-2.49v2.49z" fill="#FEFEFE" mask="url(#b)"/></g></svg>