<svg width="45" height="40" viewBox="0 0 45 40" xmlns="http://www.w3.org/2000/svg"><title>ico-shield</title><g fill="#FFF" fill-rule="evenodd"><path d="M42.75 33.336c0 2.454-2.015 4.443-4.5 4.443H6.75c-2.485 0-4.5-1.99-4.5-4.443V13.345c0-2.454 2.015-4.443 4.5-4.443h31.5c2.485 0 4.5 1.99 4.5 4.443v19.991zM16.875 4.46c0-1.225 1.01-2.221 2.25-2.221h6.75c1.24 0 2.25.996 2.25 2.22v2.222h-11.25V4.46zM38.25 6.68h-7.875V4.46c0-2.454-2.015-4.443-4.5-4.443h-6.75c-2.485 0-4.5 1.99-4.5 4.443v2.22H6.75C3.028 6.681 0 9.671 0 13.345v19.991C0 37.011 3.028 40 6.75 40h31.5c3.722 0 6.75-2.99 6.75-6.664V13.345c0-3.675-3.028-6.664-6.75-6.664z"/><path d="M30.375 25.562H24.75v5.553h-4.5v-5.553h-5.625v-4.443h5.625v-5.553h4.5v5.553h5.625v4.443zm0-6.664H27v-3.332c0-1.227-1.007-2.221-2.25-2.221h-4.5c-1.243 0-2.25.994-2.25 2.221v3.332h-3.375c-1.243 0-2.25.994-2.25 2.221v4.443c0 1.227 1.007 2.221 2.25 2.221H18v3.332c0 1.227 1.007 2.221 2.25 2.221h4.5c1.243 0 2.25-.994 2.25-2.221v-3.332h3.375c1.243 0 2.25-.994 2.25-2.221v-4.443c0-1.227-1.007-2.221-2.25-2.221z"/></g></svg>