<svg width="91" height="54" viewBox="0 0 91 54" xmlns="http://www.w3.org/2000/svg"><title>ico-team</title><g fill="#FFF" fill-rule="evenodd" opacity=".6"><path d="M66.615 9.678a2.935 2.935 0 0 1 2.172-.95h3.177l-.596 1.604c-.273.397-1.654 2.113-5.478 2.73l-.073-1.135a2.991 2.991 0 0 1 .798-2.249zm9.556 2.056c-.56-.178-.84-.305-.965-.37a3.459 3.459 0 0 1-.288-.166l.53-1.424c.47.55.725 1.235.723 1.96zM73.174 25.75a4.47 4.47 0 0 1-4.366 0 4.556 4.556 0 0 1-2.338-3.71l-.343-5.316c3.211-.46 5.3-1.57 6.6-2.606.244.175.516.342.815.498.55.287 1.34.57 2.393.86l-.424 6.565a4.554 4.554 0 0 1-2.337 3.709zM62.395 15.198l.458 7.08a8.202 8.202 0 0 0 4.207 6.678 8.085 8.085 0 0 0 3.93 1.025c1.35 0 2.7-.342 3.93-1.025a8.2 8.2 0 0 0 4.209-6.677l.653-10.113a6.724 6.724 0 0 0-1.77-4.99 6.596 6.596 0 0 0-4.817-2.107h-4.408a6.595 6.595 0 0 0-4.818 2.107 6.725 6.725 0 0 0-1.77 4.99l.196 3.032zm7.726 28.827a16.122 16.122 0 0 0-7.646-8.971c.441-.07.889-.106 1.334-.106h1.447l4.453 4.494a1.805 1.805 0 0 0 2.563 0l4.453-4.494h1.448c.536 0 1.076.05 1.604.15 3.49.664 6.262 3.483 6.896 7.015l.343 1.912H70.121zm-46.94 6.316l.595-3.312c.842-4.692 4.347-8.496 8.86-9.725l11.552 11.661a1.801 1.801 0 0 0 2.564 0l11.554-11.661c4.511 1.23 8.017 5.033 8.859 9.725l.594 3.312H23.181zM4.326 42.113c.634-3.532 3.406-6.35 6.897-7.014a8.614 8.614 0 0 1 1.604-.151h1.448l4.452 4.494a1.802 1.802 0 0 0 2.564 0l4.452-4.494h1.448a8.6 8.6 0 0 1 1.289.099 16.122 16.122 0 0 0-7.66 8.978H3.982l.343-1.912zm39.874-.037c.71.704 1.851.698 2.554-.014l5.118-5.183h1.726l-8.128 8.205-8.128-8.205h1.616l5.242 5.197zm46.77 3.452l-.73-4.067c-.899-5.014-4.835-9.016-9.792-9.959a12.214 12.214 0 0 0-2.275-.214h-2.199c-.48 0-.942.193-1.282.536l-3.701 3.736-3.701-3.736a1.805 1.805 0 0 0-1.282-.536h-2.199a12.09 12.09 0 0 0-6.759 2.055 15.74 15.74 0 0 0-1.926-.123H51.12c-.481 0-.943.193-1.284.538l-4.378 4.434-4.488-4.448a1.805 1.805 0 0 0-1.27-.525h-3.883c-.624 0-1.25.042-1.873.117a12.103 12.103 0 0 0-6.752-2.048h-2.199c-.48 0-.942.192-1.282.535l-3.7 3.737-3.702-3.737a1.805 1.805 0 0 0-1.282-.535h-2.199c-.761 0-1.527.072-2.275.214-4.958.942-8.893 4.944-9.793 9.958l-.73 4.068a1.843 1.843 0 0 0 .392 1.499c.345.416.854.657 1.392.657h18.16l-.746 4.16a1.842 1.842 0 0 0 .393 1.499c.344.416.854.657 1.391.657h48.92c.536 0 1.046-.24 1.39-.657.345-.416.488-.965.393-1.499l-.747-4.16h18.22c.537 0 1.047-.24 1.392-.657.344-.416.487-.965.392-1.499zM15.633 9.678a2.934 2.934 0 0 1 2.172-.95h3.177l-.6 1.616c-.23.329-1.625 2.088-5.473 2.716l-.074-1.132a2.991 2.991 0 0 1 .798-2.25zm9.556 2.056c-.56-.178-.84-.305-.965-.37a3.503 3.503 0 0 1-.287-.166l.529-1.424c.47.55.725 1.235.723 1.96zM22.192 25.75c-1.367.758-3 .758-4.366 0a4.555 4.555 0 0 1-2.337-3.71l-.344-5.317c3.211-.46 5.3-1.57 6.6-2.605.244.175.516.341.815.498.55.287 1.341.57 2.393.86l-.424 6.564a4.554 4.554 0 0 1-2.337 3.71zM11.413 15.198l.458 7.08a8.202 8.202 0 0 0 4.208 6.678 8.086 8.086 0 0 0 3.93 1.025c1.35 0 2.7-.342 3.93-1.025a8.201 8.201 0 0 0 4.208-6.677l.653-10.113a6.725 6.725 0 0 0-1.77-4.99 6.596 6.596 0 0 0-4.817-2.107h-4.408a6.596 6.596 0 0 0-4.817 2.107 6.726 6.726 0 0 0-1.77 4.99l.195 3.032z"/><path d="M39.133 5.286a4.56 4.56 0 0 1 3.374-1.476h5.172l-1.144 3.077c-.337.523-2.4 3.31-8.5 4.098l-.142-2.204a4.647 4.647 0 0 1 1.24-3.495zM53.047 8.78l-.034.53c-1.265-.358-1.88-.62-2.163-.768-.467-.244-.717-.443-.846-.569l1.2-3.233a4.648 4.648 0 0 1 1.842 4.04zm-4.342 19.09a6.626 6.626 0 0 1-6.47 0 6.75 6.75 0 0 1-3.463-5.496l-.5-7.735c4.827-.59 7.792-2.31 9.5-3.775.395.333.866.643 1.414.929.785.41 1.967.818 3.587 1.24l-.604 9.341a6.75 6.75 0 0 1-3.464 5.496zM34.54 13.095l.615 9.518c.23 3.574 2.225 6.739 5.334 8.465a10.25 10.25 0 0 0 4.982 1.299c1.711 0 3.423-.433 4.982-1.3 3.11-1.725 5.104-4.89 5.335-8.464l.702-10.876.176-2.718a8.403 8.403 0 0 0-2.212-6.235A8.244 8.244 0 0 0 48.433.15h-5.926c-2.272 0-4.466.96-6.02 2.634a8.403 8.403 0 0 0-2.211 6.235l.263 4.076zm-2.455 32.25h-4.713c-1 0-1.812.82-1.812 1.83 0 1.01.811 1.83 1.812 1.83h4.713c1.002 0 1.813-.82 1.813-1.83 0-1.01-.811-1.83-1.813-1.83m5.439 0h-.363c-1 0-1.812.82-1.812 1.83 0 1.01.811 1.83 1.812 1.83h.363c1.001 0 1.813-.82 1.813-1.83 0-1.01-.812-1.83-1.813-1.83"/></g></svg>