<svg width="78" height="60" viewBox="0 0 78 60" xmlns="http://www.w3.org/2000/svg"><title>ico-team</title><g fill="#FFF" fill-rule="evenodd"><path d="M24.347 24.474c0 4.24 1.544 8.535 4.233 11.782 2.83 3.415 6.522 5.296 10.399 5.296 3.875 0 7.563-1.88 10.385-5.293 2.68-3.243 4.219-7.536 4.219-11.777v-3.736a50.629 50.629 0 0 0 1.309-11.302c-.002-3.331-.364-5.633-.702-6.676a1.216 1.216 0 0 0-1.274-.837 1.236 1.236 0 0 0-.282.006c-2.264.324-5.042-.234-7.983-.826-4.766-.957-10.15-2.039-14.268.82a1.349 1.349 0 0 0-.111-.006c-2.311 0-4.363.924-5.778 2.604-1.307 1.55-2.027 3.684-2.027 6.008 0 3.805 1.617 10.839 1.88 11.959v1.978zm23.14 10.23c-2.35 2.844-5.372 4.41-8.508 4.41-3.14 0-6.166-1.568-8.524-4.414-2.334-2.817-3.672-6.544-3.672-10.226v-1.462c0-3.015 2.022-7.114 2.79-8.561 10.95-1.252 18.278 1.775 19.942 2.555l1.632 3.85v3.626c0 3.683-1.334 7.41-3.66 10.223zM30.272 4.365c.088 0 .174-.011.257-.029.335.071.697.003.99-.22 3.284-2.497 8.047-1.54 12.653-.613 2.465.495 4.822.97 7.014.97.303 0 .604-.01.9-.03.368 2.065.663 6.508-.161 12.005l-.344-.81a1.218 1.218 0 0 0-.537-.594c-.35-.192-8.702-4.66-22.295-2.951-.399.02-.78.235-.994.607a34.464 34.464 0 0 0-2.054 4.356c-.417-2.257-.798-4.797-.798-6.518 0-4.265 2.696-6.174 5.369-6.174z"/><path d="M59.947 44.251a.897.897 0 0 0-.079-.02l-7.244-1.517-1.915-2.907c-.013-.021-.028-.041-.042-.06a2.15 2.15 0 0 0-1.455-.842 2.148 2.148 0 0 0-1.637.488l-8.613 7.423-8.614-7.423-.023-.02a2.149 2.149 0 0 0-1.613-.468 2.149 2.149 0 0 0-1.497.902L25.3 42.714l-7.244 1.518a.949.949 0 0 0-.08.019c-2.105.59-3.898 1.898-5.181 3.781a10.474 10.474 0 0 0-1.817 5.839v2.291c0 2.012 1.788 3.647 3.987 3.647h47.994c2.198 0 3.987-1.635 3.987-3.647v-2.291c0-2.048-.645-4.121-1.816-5.839-1.285-1.883-3.076-3.19-5.183-3.781zM48.89 41.476l1.512 2.295-6.05 8.328-3.602-3.607 8.14-7.016zM38.163 54.943h1.598l.485 2.428h-2.568l.485-2.428zm2.016-3.106c0 .401-.244.668-.405.668H38.15c-.161 0-.406-.267-.406-.668v-.47l1.218-1.218 1.217 1.219v.47zM29.032 41.476l8.141 7.016-3.602 3.607-6.05-8.329 1.511-2.294zM13.413 56.162v-2.291c0-2.876 1.78-6.286 5.183-7.262l6.923-1.45 6.92 9.528a1.216 1.216 0 0 0 1.846.144l1.42-1.42c.064.118.135.233.212.34l-.722 3.62h-20.23c-.842 0-1.552-.553-1.552-1.209zm51.098 0c0 .656-.711 1.21-1.551 1.21H42.73l-.724-3.62a3.06 3.06 0 0 0 .213-.342l1.42 1.422a1.216 1.216 0 0 0 1.846-.145l6.92-9.528 6.923 1.45c3.403.976 5.183 4.386 5.183 7.262v2.291zM9.766 26.76c0 2.963 1.007 5.742 2.834 7.827 1.855 2.116 4.332 3.282 6.976 3.282 1.98 0 3.89-.662 5.518-1.915a1.22 1.22 0 0 0-1.484-1.933c-1.2.923-2.594 1.41-4.034 1.41-4.067 0-7.375-3.89-7.375-8.67v-.717c0-1.926.795-4.477 1.213-5.681 2.627-.234 4.973.111 6.89.395l.217.032a1.219 1.219 0 0 0 .355-2.412l-.216-.032c-2.238-.332-5.022-.743-8.274-.326l-.011.002h-.002l-.012.002a1 1 0 0 0-.104.019c-.02.004-.038.01-.057.015-.018.005-.038.01-.056.017-.024.007-.046.017-.07.026l-.039.016a.753.753 0 0 0-.069.034.593.593 0 0 0-.097.057l-.041.026a1.16 1.16 0 0 0-.048.037l-.047.037-.037.034-.05.049-.028.032-.049.057-.026.037a.7.7 0 0 0-.041.06l-.03.051c-.01.017-.02.033-.028.05a1.356 1.356 0 0 0-.046.1c0 .003-.002.005-.003.008v.001l-.004.009c-.02.054-.109.282-.234.637-.098-.774-.16-1.505-.16-2.09 0-2.634 1.269-3.814 2.527-3.814.06 0 .118-.006.175-.014a1.207 1.207 0 0 0 .91-.234c1.137-.864 2.603-1.155 4.753-.942a1.219 1.219 0 1 0 .24-2.426c-1.65-.163-4.04-.207-6.117 1.18-2.901.023-4.924 2.587-4.924 6.251 0 2.567 1.01 7.246 1.205 8.119v1.298z"/><path d="M8.523 48.841h-5.42c-.382 0-.668-.23-.668-.434v-1.56c0-1.808 1.11-3.95 3.234-4.566l4.434-.929 2.29 3.307a1.214 1.214 0 0 0 1.694.308 1.22 1.22 0 0 0 .307-1.697l-2.28-3.294.672-1.022 4.75 3.55a1.216 1.216 0 0 0 1.703-.248 1.22 1.22 0 0 0-.247-1.706l-5.212-3.896a1.853 1.853 0 0 0-1.364-.383c-.497.06-.955.325-1.255.726l-.042.06-1.216 1.846-4.775 1a2.427 2.427 0 0 0-.08.02C1.735 40.852 0 44.11 0 46.846v1.56c0 1.583 1.392 2.872 3.103 2.872h5.42a1.218 1.218 0 0 0 0-2.438zM57.201 11.05c1.79.036 3.77.356 5.684.667 1.446.234 2.831.457 4.034.534a87.145 87.145 0 0 1-.447 7.573.859.859 0 0 0-.066-.045l-.026-.019-.032-.019a.092.092 0 0 1-.005-.002c-2.437-1.47-5.39-2.317-9.027-2.59a1.217 1.217 0 0 0-1.305 1.124 1.218 1.218 0 0 0 1.123 1.307c3.103.234 5.615.915 7.666 2.08.289.682.923 2.405.923 4.384v.717c0 4.78-3.308 8.67-7.375 8.67-1.44 0-2.835-.487-4.033-1.41a1.217 1.217 0 0 0-1.708.224c-.41.533-.31 1.3.224 1.71 1.628 1.252 3.535 1.914 5.517 1.914 2.644 0 5.12-1.166 6.975-3.282 1.829-2.085 2.835-4.864 2.835-7.826v-1.317c.172-.912 1.176-6.587 1.204-14.087a1.218 1.218 0 0 0-1.186-1.524l-.03-.002c-.025 0-.048.003-.07.004-1.18.061-2.939-.223-4.803-.525-1.904-.308-4.062-.658-6.024-.697a1.22 1.22 0 0 0-.048 2.438zm15.674 28.872l-.08-.02-4.775-1-1.215-1.845-.042-.06a1.855 1.855 0 0 0-1.254-.726 1.852 1.852 0 0 0-1.365.383l-5.212 3.895a1.22 1.22 0 0 0 1.457 1.954l4.749-3.55.673 1.023-2.28 3.294a1.22 1.22 0 0 0 .999 1.913c.386 0 .765-.183 1.002-.524l2.29-3.308 4.433.929c2.123.617 3.234 2.758 3.234 4.566v1.56c0 .206-.285.434-.668.434H69.4a1.22 1.22 0 0 0 0 2.438h5.42c1.71 0 3.103-1.288 3.103-2.872v-1.56c0-2.736-1.734-5.994-5.049-6.924z"/></g></svg>