<svg width="54" height="55" viewBox="0 0 54 55" xmlns="http://www.w3.org/2000/svg"><title>Group</title><g fill="#D2A36E" fill-rule="evenodd"><path d="M20.763 2.046c-4.816 0-9.344 1.886-12.75 5.311-3.407 3.408-5.283 7.958-5.283 12.794 0 4.817 1.876 9.369 5.283 12.775 3.406 3.427 7.934 5.293 12.75 5.293 4.818 0 9.346-1.866 12.752-5.293A17.966 17.966 0 0 0 38.8 20.151c0-4.836-1.877-9.386-5.285-12.794-3.406-3.425-7.935-5.311-12.752-5.311zm0 38.077A19.79 19.79 0 0 1 6.671 34.28a19.872 19.872 0 0 1-5.84-14.13c0-5.35 2.074-10.355 5.84-14.145C10.434 2.238 15.44.142 20.763.142c5.325 0 10.33 2.096 14.094 5.864C38.624 9.796 40.7 14.8 40.7 20.15a19.874 19.874 0 0 1-5.842 14.129 19.795 19.795 0 0 1-14.094 5.843z"/><path d="M20.87 29.75a.944.944 0 0 1-.949-.95V11.667c0-.535.426-.952.95-.952s.949.417.949.952v17.135c0 .533-.425.95-.95.95"/><path d="M29.414 21.183H12.328a.944.944 0 0 1-.95-.95c0-.535.426-.951.95-.951h17.086c.524 0 .949.416.949.951 0 .534-.425.95-.95.95m4.275 15.629L48.59 51.814c.624.626 1.716.626 2.344 0l.188-.192c.65-.646.65-1.712.002-2.36L36.215 34.26l-2.527 2.553zm16.074 17.4a3.56 3.56 0 0 1-2.516-1.046L31.007 36.812l5.208-5.257L52.469 47.91c1.386 1.41 1.386 3.677-.004 5.064l-.188.193a3.564 3.564 0 0 1-2.515 1.047z"/></g></svg>