<svg width="75" height="50" viewBox="0 0 75 50" xmlns="http://www.w3.org/2000/svg"><title>ico-tatoo-machine</title><g fill-rule="evenodd"><path d="M69.116 29.669a1.095 1.095 0 0 0 1.549-.009l3.114-3.114c.43-.43.434-1.123.009-1.549L49.555.765a1.095 1.095 0 0 0-1.548.008L36.328 12.452l-4.466-4.467a1.095 1.095 0 0 0-1.55.009l-.778.778-1.54-1.54.779-.778c.43-.43.433-1.124.008-1.549L27.01 3.134c-1.274-1.274-3.358-1.263-4.646.025-1.288 1.288-1.3 3.372-.025 4.646l1.77 1.772a1.096 1.096 0 0 0 1.55-.009l.778-.779 1.54 1.54-.778.78a1.095 1.095 0 0 0-.009 1.548l2.926 2.926-1.625 1.626c-2.468-1.727-5.92-1.474-8.144.75L8.199 30.109c-2.224 2.224-2.477 5.676-.75 8.143l-3.131 3.13a2.561 2.561 0 0 0-.256 3.337L.773 48.007a1.095 1.095 0 0 0-.008 1.548 1.096 1.096 0 0 0 1.548-.008l3.29-3.289a2.562 2.562 0 0 0 3.335-.256l3.131-3.13c2.467 1.726 5.92 1.473 8.143-.751L32.36 29.973c2.224-2.224 2.477-5.677.751-8.144l1.626-1.625 21.922 21.922a1.095 1.095 0 0 0 1.549-.009l3.114-3.114c.43-.43.434-1.123.009-1.549l-2.31-2.31 7.785-7.785 2.31 2.31zM23.904 4.699a1.096 1.096 0 0 1 1.549-.008l1.001 1.001-1.557 1.557-1.001-1a1.096 1.096 0 0 1 .008-1.55zm5.613 7.17l27.93 27.93 1.556-1.557-27.929-27.93-1.557 1.558zM18.672 40.58c-1.631 1.631-4.271 1.646-5.885.033l-3.08-3.08c-1.614-1.614-1.599-4.254.032-5.885L21.887 19.5c1.632-1.632 4.271-1.646 5.885-.032l3.08 3.08c1.614 1.613 1.6 4.253-.032 5.884L18.672 40.58zm-11.79 3.885l-1.027-1.027a.37.37 0 0 1 .003-.516L8.92 39.86l1.54 1.54-3.062 3.062a.37.37 0 0 1-.516.003zM30.099 18.68l1.54 1.54 1.558-1.557-1.54-1.54-1.558 1.557zM47.211 4.65l22.692 22.692 1.558-1.558L48.768 3.092 47.211 4.65zm-.307 18.378l5.45-5.45c.43-.43.433-1.123.009-1.548a1.096 1.096 0 0 0-1.55.008l-5.45 5.45-4.415-4.416 7.786-7.785 7.496 7.495-7.786 7.786-1.54-1.54zm-9.036-9.036l1.54 1.54 7.786-7.786-1.54-1.54-7.786 7.786zM57.48 33.604l-1.54-1.54 5.45-5.45c.43-.43.434-1.123.009-1.549a1.095 1.095 0 0 0-1.549.009l-5.45 5.45-4.416-4.416 7.786-7.786 7.496 7.496-7.786 7.786z"/><path d="M11.27 34.736l4.313 4.313a1.095 1.095 0 0 0 1.55-.008 1.098 1.098 0 0 0 .008-1.55l-4.313-4.312a1.095 1.095 0 0 0-1.548.008 1.096 1.096 0 0 0-.01 1.55zm8.908-.281l-4.313-4.313a1.095 1.095 0 0 0-1.548.009 1.095 1.095 0 0 0-.009 1.548l4.313 4.313a1.095 1.095 0 0 0 1.548-.009c.43-.43.434-1.123.009-1.548zm3.037-3.037l-4.313-4.313a1.095 1.095 0 0 0-1.549.009 1.095 1.095 0 0 0-.008 1.548l4.312 4.313a1.095 1.095 0 0 0 1.55-.009c.429-.43.433-1.123.008-1.548zm3.037-3.038l-4.313-4.312a1.095 1.095 0 0 0-1.548.009 1.095 1.095 0 0 0-.009 1.548l4.313 4.313a1.095 1.095 0 0 0 1.548-.009c.43-.43.434-1.123.009-1.548zm-2.833-5.791L27.73 26.9a1.095 1.095 0 0 0 1.549-.008c.43-.43.434-1.124.008-1.549l-4.312-4.313a1.095 1.095 0 0 0-1.549.009 1.095 1.095 0 0 0-.008 1.549z"/></g></svg>