<svg width="52" height="52" viewBox="0 0 52 52" xmlns="http://www.w3.org/2000/svg"><title>ico-service-pen</title><path d="M49.502 2.496c-3.25-3.25-8.534-3.25-11.784 0L4.337 35.876c-.017.019-.027.037-.04.055l-.055.068a.948.948 0 0 0-.112.22c-.01.029-.023.046-.028.074l-.013.026L.817 50.065a.866.866 0 0 0-.018.185c0 .014-.005.028-.005.036 0 .109.023.208.059.308l.027.068c.045.1.104.195.185.27a.86.86 0 0 0 .303.205c.113.045.23.067.348.067a.86.86 0 0 0 .217-.022l13.745-3.273c.028-.004.045-.018.073-.027.031-.009.059-.022.09-.036a.98.98 0 0 0 .185-.114c.024-.017.046-.031.069-.05.008-.008.017-.012.022-.021l33.385-33.382c3.25-3.249 3.25-8.538 0-11.783zm-1.306 1.307c2.3 2.305 2.5 5.925.6 8.46l-9.062-9.062c2.54-1.899 6.157-1.7 8.462.602zm-4.583 13.749l-9.167-9.166 1.31-1.306 9.163 9.162-1.306 1.31zM5.387 46.612a.927.927 0 0 0-1.311 0l-.702.7 2.364-9.93 4.095-.456-.524 4.74c-.004.036.01.069.01.105 0 .036-.014.068-.01.1 0 .03.019.058.023.085a.854.854 0 0 0 .05.154.866.866 0 0 0 .176.285c.045.05.095.085.15.127.04.026.08.053.125.076a.987.987 0 0 0 .191.06c.036.008.063.026.099.03.037.005.068.01.104.01h.004c.033 0 .064-.005.1-.01l4.742-.524-.457 4.095-9.93 2.364.7-.701a.927.927 0 0 0 0-1.31zm11.616-5.072l20.715-20.715a.927.927 0 0 0 0-1.31.921.921 0 0 0-1.306 0L15.697 40.228l-4.42.493.491-4.42 20.716-20.716a.923.923 0 1 0-1.306-1.307l-20.72 20.717-2.947.325L33.14 9.696l9.162 9.162-25.623 25.63.325-2.948zM46.23 14.936l-9.167-9.167 1.311-1.311 9.166 9.167-1.31 1.31z" fill-rule="evenodd"/></svg>