<svg width="20" height="12" viewBox="0 0 20 12" xmlns="http://www.w3.org/2000/svg"><title>ico-counter-eye</title><path d="M9.976 0C6.164 0 2.707 2.087.156 5.478a.791.791 0 0 0 0 .944c2.551 3.394 6.008 5.482 9.82 5.482 3.813 0 7.27-2.088 9.821-5.478a.79.79 0 0 0 0-.944C17.246 2.087 13.789 0 9.977 0zm.274 10.143a4.201 4.201 0 0 1-4.461-4.465 4.208 4.208 0 0 1 3.914-3.917 4.201 4.201 0 0 1 4.461 4.465c-.134 2.087-1.828 3.783-3.914 3.917zm-.126-1.936a2.257 2.257 0 0 1-2.4-2.402 2.27 2.27 0 0 1 2.11-2.112 2.257 2.257 0 0 1 2.4 2.402 2.27 2.27 0 0 1-2.11 2.112z" fill="#FFF" fill-rule="evenodd"/></svg>