<svg width="60" height="60" viewBox="0 0 60 60" xmlns="http://www.w3.org/2000/svg"><title>ico-service-chrysanthemum</title><path d="M57.513 37.832c-1.211-1.05-2.833-2.156-4.758-3.251 3.021-.683 6.798-2.05 6.798-4.615 0-2.563-3.772-3.93-6.798-4.614 1.95-1.11 3.587-2.229 4.801-3.288 1.962-1.71 2.7-3.194 2.196-4.408-1.06-2.55-6.619-1.537-10.405-.506 1.656-2.617 3.355-6.244 1.536-8.058-1.817-1.812-5.448-.124-8.08 1.533 1.024-3.742 2.055-9.32-.507-10.378-1.22-.503-2.708.236-4.426 2.198-1.058 1.208-2.175 2.832-3.283 4.767-.962-4.288-2.624-6.766-4.634-6.766-2.57 0-3.939 3.744-4.627 6.78-1.216-2.126-2.442-3.876-3.575-5.1C20.155.404 18.762-.228 17.61.247c-1.171.484-1.707 1.955-1.59 4.37.08 1.65.452 3.706 1.082 6.007-2.638-1.66-6.262-3.344-8.08-1.532-1.817 1.814-.121 5.437 1.537 8.058-3.773-1.027-9.345-2.046-10.405.506-.482 1.16.169 2.564 1.933 4.174 1.223 1.116 2.956 2.32 5.051 3.514-4.3.96-6.785 2.616-6.785 4.622 0 2.564 3.765 3.93 6.798 4.615-1.938 1.102-3.567 2.214-4.78 3.268C.395 39.57-.352 41.057.154 42.277c.443 1.064 1.705 1.6 3.759 1.6.285 0 .585-.01.9-.03 1.613-.106 3.57-.47 5.746-1.063-1.67 2.636-3.352 6.245-1.536 8.057.556.554 1.282.78 2.097.78 1.852 0 4.165-1.17 5.982-2.313-.58 2.119-.942 4.033-1.058 5.624-.192 2.646.335 4.245 1.567 4.754.247.102.505.153.775.153 1.085 0 2.344-.829 3.757-2.474 1.033-1.201 2.114-2.786 3.184-4.658.687 3.03 2.057 6.78 4.627 6.78s3.94-3.755 4.626-6.781c1.742 3.04 4.535 7.132 6.944 7.132.263 0 .521-.048.773-.153 1.216-.502 1.746-2.068 1.573-4.655-.107-1.607-.471-3.557-1.064-5.721 1.817 1.142 4.13 2.312 5.982 2.312.815 0 1.54-.226 2.096-.78 1.818-1.814.124-5.436-1.536-8.059 2.015.55 4.547 1.097 6.63 1.096 1.81 0 3.282-.414 3.775-1.601.508-1.223-.245-2.72-2.239-4.445zm-15.084.977c.136-1.208-.142-2.604-.83-4.027 1.478-.516 2.677-1.305 3.447-2.27 4.764 2.514 6.72 5.238 6.285 6.285-.438 1.055-3.751 1.596-8.902.012zm-3.621 12.478c-1.065.44-3.784-1.516-6.302-6.268.967-.768 1.758-1.964 2.274-3.437 1.194.574 2.366.863 3.426.863.21 0 .413-.012.614-.034 1.588 5.136 1.05 8.437-.012 8.876zm-17.71 0c-1.066-.44-1.602-3.74-.011-8.879.2.023.404.035.613.035 1.06 0 2.233-.289 3.425-.861.517 1.473 1.308 2.67 2.274 3.437-2.519 4.751-5.243 6.704-6.3 6.268zM8.575 38.797c-.438-1.056 1.52-3.772 6.285-6.284.77.964 1.969 1.753 3.446 2.268-.689 1.425-.967 2.82-.83 4.028-5.15 1.584-8.462 1.044-8.9-.012zm0-17.662c.442-1.062 3.748-1.597 8.897-.012-.138 1.208.14 2.602.833 4.03-1.477.514-2.675 1.303-3.445 2.267-4.764-2.512-6.721-5.234-6.285-6.285zM21.098 8.647c.578-.24 1.579.229 2.676 1.251 1.236 1.153 2.513 2.922 3.626 5.016-.967.768-1.758 1.962-2.275 3.436-1.43-.69-2.828-.968-4.04-.83-1.586-5.135-1.04-8.438.013-8.873zm17.71 0c1.057.436 1.6 3.74.01 8.878-1.21-.136-2.61.142-4.038.827-.516-1.474-1.307-2.67-2.274-3.438 2.52-4.751 5.252-6.701 6.302-6.267zM51.33 21.135c.44 1.06-1.52 3.773-6.286 6.285-.77-.964-1.968-1.753-3.446-2.268.686-1.423.963-2.819.827-4.027 5.153-1.586 8.464-1.05 8.905.01zM39.92 39.908c-.9.897-2.726.783-4.653-.252a13.388 13.388 0 0 0-.01-4.399c.719.123 1.466.185 2.23.185.756 0 1.487-.06 2.181-.175 1.036 1.92 1.15 3.747.253 4.641zm-15.283-.25c-1.925 1.032-3.758 1.144-4.654.25-.899-.896-.784-2.72.252-4.64a13.611 13.611 0 0 0 4.412-.011 13.276 13.276 0 0 0-.186 2.224c0 .754.062 1.484.176 2.176zm-8.783-9.691c0-1.148 1.088-1.97 1.736-2.358a8.015 8.015 0 0 1 2.206-.879.969.969 0 0 0 .341-.076c.72-.15 1.489-.228 2.281-.228.98 0 1.924.12 2.792.35.034.09.069.177.104.264a5.435 5.435 0 0 0-.853 2.927 5.43 5.43 0 0 0 .853 2.926c-.035.087-.07.174-.104.263-.868.23-1.811.35-2.793.35-1.838 0-3.553-.419-4.827-1.182-.648-.387-1.736-1.21-1.736-2.357zm4.13-9.942c.888-.886 2.745-.766 4.653.253a13.35 13.35 0 0 0-.176 2.175c0 .76.063 1.506.186 2.223a13.313 13.313 0 0 0-2.23-.186c-.756 0-1.486.062-2.18.176-1.022-1.904-1.143-3.755-.254-4.641zm6.418 9.942a3.55 3.55 0 0 1 3.55-3.541 3.55 3.55 0 0 1 3.55 3.54 3.55 3.55 0 0 1-3.55 3.54 3.55 3.55 0 0 1-3.55-3.54zm8.864-9.692c1.926-1.032 3.76-1.143 4.655-.25.892.89.782 2.723-.252 4.641a13.414 13.414 0 0 0-2.183-.176c-.763 0-1.51.064-2.229.186a13.21 13.21 0 0 0 .186-2.223c0-.755-.062-1.485-.177-2.178zm2.22 13.232c-.98 0-1.925-.121-2.793-.35a11.295 11.295 0 0 0-.103-.264c.539-.848.853-1.85.853-2.927a5.435 5.435 0 0 0-.853-2.926c.035-.087.07-.174.103-.263.868-.23 1.812-.351 2.793-.351 1.839 0 3.554.42 4.828 1.183.648.388 1.736 1.21 1.736 2.358 0 1.148-1.088 1.97-1.736 2.357-1.274.763-2.989 1.183-4.828 1.183zm-5.17-15.87c.765 1.271 1.186 2.981 1.186 4.816 0 .978-.121 1.92-.352 2.785-.089.033-.177.068-.264.103a5.471 5.471 0 0 0-2.934-.85 5.472 5.472 0 0 0-2.934.85c-.087-.035-.175-.07-.264-.103a10.85 10.85 0 0 1-.352-2.785c0-1.835.421-3.545 1.186-4.815.389-.647 1.213-1.731 2.364-1.731 1.151 0 1.975 1.084 2.364 1.73zM27.59 42.296c-.765-1.27-1.186-2.98-1.186-4.814 0-.979.121-1.92.352-2.786.089-.033.177-.068.264-.103.85.537 1.855.85 2.934.85a5.473 5.473 0 0 0 2.934-.85c.087.035.175.07.264.103.23.866.352 1.807.352 2.786 0 1.834-.421 3.544-1.186 4.814-.389.647-1.213 1.732-2.364 1.732-1.151 0-1.976-1.085-2.364-1.732zm30.023-12.328c0 .901-2.471 2.48-7.956 3.201a25.665 25.665 0 0 0-3.754-2.393 3.737 3.737 0 0 0 0-1.617c1.353-.713 2.644-1.526 3.76-2.392 5.48.722 7.95 2.298 7.95 3.2zm.347-11.57c.135.325-.878 2.054-4.96 4.565.386-.884.462-1.754.124-2.567-.337-.813-1.009-1.374-1.909-1.726 4.669-1.104 6.611-.595 6.745-.272zm-8.448-7.936c.64.639.011 3.495-3.353 7.87-1.404.175-2.893.511-4.355.961a3.641 3.641 0 0 0-1.147-1.144c.45-1.455.786-2.94.961-4.341 1.925-1.472 3.804-2.586 5.308-3.147 1.495-.557 2.317-.468 2.586-.2zm-7.958-8.425c.322.133.834 2.069-.274 6.73-.353-.9-.914-1.57-1.728-1.908-.816-.336-1.69-.256-2.581.135 2.52-4.08 4.256-5.093 4.583-4.957zm-11.6.346c.9 0 2.487 2.463 3.21 7.934a25.56 25.56 0 0 0-2.4 3.744 3.778 3.778 0 0 0-.81-.09c-.276 0-.547.032-.811.09a25.533 25.533 0 0 0-2.4-3.743c.716-5.41 2.328-7.935 3.21-7.935zm-11.6-.346c.096-.04.75.084 1.972 1.404.821.888 1.706 2.095 2.607 3.552-.889-.39-1.763-.47-2.577-.134-.813.337-1.374 1.008-1.727 1.909-1.108-4.675-.587-6.603-.276-6.731zm-7.958 8.425c.27-.27 1.094-.358 2.596.203 1.504.562 3.378 1.676 5.3 3.144.173 1.401.508 2.887.958 4.34a3.75 3.75 0 0 0-1.148 1.143c-1.517-.467-2.997-.793-4.356-.963-1.475-1.92-2.592-3.795-3.153-5.295-.556-1.487-.467-2.304-.197-2.572zm-8.449 7.936c.134-.322 2.076-.831 6.745.273-1.124.442-1.659 1.123-1.909 1.725-.336.812-.259 1.682.13 2.566-1.435-.882-2.63-1.75-3.516-2.56-1.36-1.24-1.49-1.906-1.45-2.004zm.348 11.57c0-.901 2.47-2.48 7.954-3.201a25.756 25.756 0 0 0 3.756 2.392 3.736 3.736 0 0 0 0 1.617c-1.351.712-2.642 1.525-3.759 2.392-5.421-.714-7.951-2.322-7.951-3.2zm-.348 11.569c-.135-.327.88-2.057 4.964-4.567-.388.885-.466 1.756-.128 2.57.338.813 1.012 1.372 1.914 1.724-4.67 1.106-6.614.597-6.75.273zm8.449 7.936c-.271-.27-.36-1.096.208-2.6.564-1.497 1.677-3.36 3.146-5.272 1.404-.174 2.893-.51 4.353-.958a3.713 3.713 0 0 0 1.147 1.144c-.469 1.513-.796 2.99-.966 4.344-4.385 3.354-7.25 3.979-7.888 3.342zm10.274 6.634c-1.432 1.667-2.203 1.839-2.317 1.791-.33-.136-.838-2.078.272-6.73.444 1.123 1.127 1.658 1.731 1.908.351.145.712.213 1.081.213.487 0 .985-.121 1.488-.34-.771 1.246-1.537 2.322-2.255 3.158zm9.284 1.445c-.382 0-1.026-.516-1.689-1.968-.65-1.424-1.179-3.472-1.5-5.8a.964.964 0 0 0-.014-.172c.867-1.11 1.68-2.396 2.391-3.738a3.772 3.772 0 0 0 1.623 0c.741 1.4 1.556 2.674 2.397 3.752-.716 5.404-2.328 7.926-3.208 7.926zm11.6.346a.173.173 0 0 1-.067.012c-.451 0-2.13-1.114-4.51-4.962.563.243 1.063.338 1.497.338.42 0 .78-.087 1.077-.21.816-.337 1.378-1.008 1.731-1.905 1.107 4.655.598 6.593.272 6.727zm7.958-8.425c-.638.637-3.504.012-7.891-3.344-.176-1.399-.512-2.884-.963-4.341a3.755 3.755 0 0 0 1.147-1.145c1.459.448 2.948.784 4.353.958 1.476 1.921 2.594 3.796 3.156 5.297.556 1.489.467 2.306.198 2.575zm8.448-7.936c-.133.322-2.077.832-6.75-.274.903-.351 1.577-.91 1.914-1.724.338-.813.258-1.686-.135-2.574 4.09 2.511 5.107 4.243 4.97 4.572z" fill-rule="evenodd"/></svg>