<svg width="42" height="41" viewBox="0 0 42 41" xmlns="http://www.w3.org/2000/svg"><title>ico-thumb-up</title><g fill="#FFF" fill-rule="evenodd"><path d="M5.344 22.823H7.12c0 .077-.01.147-.01.22v3.046a1.17 1.17 0 0 0 1.167 1.175A1.17 1.17 0 0 0 9.44 26.09v-3.046c0-2.378 1.918-4.313 4.277-4.313h.906c4.46 0 5.457-4.208 6.425-8.277v-.005l1.361-5.733a2.618 2.618 0 0 1 1.17-1.632 2.57 2.57 0 0 1 1.971-.314 2.635 2.635 0 0 1 1.926 3.17l-1.092 4.599a1.178 1.178 0 0 0 1.136 1.45c.526 0 1.006-.362 1.132-.902l1.092-4.599a4.984 4.984 0 0 0-.595-3.767A4.91 4.91 0 0 0 26.094.48a4.864 4.864 0 0 0-3.733.6 4.938 4.938 0 0 0-2.219 3.087l-1.361 5.736-.003.002c-1.234 5.204-2.049 6.474-4.155 6.474h-.906c-2.749 0-5.11 1.702-6.103 4.118a1.2 1.2 0 0 0-.242-.025H5.344C2.396 20.472 0 22.892 0 25.866v5.646c0 1.303.468 2.563 1.315 3.543a1.157 1.157 0 0 0 1.644.111 1.18 1.18 0 0 0 .113-1.659 3.063 3.063 0 0 1-.74-1.995v-5.646c0-1.677 1.35-3.043 3.012-3.043z"/><path d="M13.717 38.646c-2.36 0-4.277-1.935-4.277-4.313v-2.318a1.17 1.17 0 0 0-1.164-1.178c-.646 0-1.168.526-1.168 1.178v2.318c0 3.675 2.964 6.667 6.609 6.667.642 0 1.164-.527 1.164-1.179a1.17 1.17 0 0 0-1.164-1.175zm23.547-23.651H26.199c-2.259 0-4.096 1.854-4.096 4.131 0 .638.147 1.24.403 1.78h-1.132c-2.256 0-4.093 1.855-4.093 4.135a4.14 4.14 0 0 0 2.616 3.85 4.142 4.142 0 0 0 1.794 5.796 4.12 4.12 0 0 0-.62 2.178c0 2.281 1.836 4.135 4.093 4.135h7.966c2.259 0 4.096-1.854 4.096-4.135 0-.857-.26-1.656-.707-2.315a4.14 4.14 0 0 0 2.084-3.597 4.12 4.12 0 0 0-.707-2.316 4.15 4.15 0 0 0 1.38-5.914 4.14 4.14 0 0 0 2.084-3.597c0-2.277-1.837-4.131-4.096-4.131zm-12.83 4.131c0-.98.791-1.78 1.765-1.78h11.065c.973 0 1.764.8 1.764 1.78 0 .983-.794 1.78-1.764 1.78H26.199a1.774 1.774 0 0 1-1.765-1.78zm-3.057 4.134h14.51c.97 0 1.762.799 1.762 1.781 0 .98-.792 1.778-1.762 1.778h-14.51a1.773 1.773 0 0 1-1.765-1.778c0-.982.791-1.78 1.765-1.78zm2.065 5.913H34.51c.97 0 1.761.8 1.761 1.78 0 .983-.79 1.781-1.761 1.781H23.442c-.97 0-1.762-.8-1.762-1.781 0-.98.791-1.78 1.762-1.78zm9.688 9.473h-7.964a1.774 1.774 0 0 1-1.764-1.78c0-.98.79-1.778 1.764-1.778h7.964c.973 0 1.764.797 1.764 1.777 0 .983-.79 1.781-1.764 1.781zm-15.244 0a1.17 1.17 0 0 0-1.165 1.175c0 .652.522 1.179 1.165 1.179h.016c.643 0 1.156-.527 1.156-1.179 0-.648-.527-1.175-1.172-1.175z"/></g></svg>