<svg width="33" height="57" viewBox="0 0 33 57" xmlns="http://www.w3.org/2000/svg"><title>ico-service-pircing</title><g fill-rule="evenodd"><path d="M32.94 15.565a16.49 16.49 0 0 0-1.961-7.2c-2.491-4.613-6.861-7.6-11.99-8.196a17.006 17.006 0 0 0-1.961-.114C7.638.055 0 7.792 0 17.302v28.054C0 51.7 5.096 56.862 11.36 56.862c3.044 0 5.547-1.345 7.438-3.996 1.589-2.227 2.565-5.069 3.382-7.808 1.523-5.104 3.564-10.313 6.065-15.483l3.069-6.342a16.124 16.124 0 0 0 1.625-7.668zm-3.633 6.672l-3.068 6.342c-2.555 5.279-4.64 10.603-6.198 15.824-1.879 6.294-3.986 10.195-8.682 10.195-5.031 0-9.124-4.146-9.124-9.241V17.302c0-8.262 6.635-14.983 14.793-14.983.57 0 1.143.033 1.706.098 4.398.51 8.146 3.075 10.284 7.033 2.17 4.02 2.276 8.68.29 12.787z"/><path d="M19.815 31.455a1.114 1.114 0 0 0-1.408.728 57.13 57.13 0 0 0-.332 1.075 1.133 1.133 0 0 0 1.07 1.46c.48 0 .923-.316 1.07-.805.1-.342.208-.69.318-1.032a1.135 1.135 0 0 0-.718-1.426zm5.55-19.535c-1.54-2.854-4.245-4.703-7.42-5.072a10.57 10.57 0 0 0-1.208-.07c-5.79 0-10.5 4.771-10.5 10.634 0 .625.5 1.132 1.118 1.132.617 0 1.118-.507 1.118-1.132 0-4.615 3.707-8.37 8.264-8.37.319 0 .64.018.954.055 2.443.283 4.526 1.708 5.714 3.908a7.729 7.729 0 0 1 .16 7.113l-1.809 3.74a66.775 66.775 0 0 0-2.123 4.865 1.137 1.137 0 0 0 .63 1.467 1.11 1.11 0 0 0 1.45-.638 64.664 64.664 0 0 1 2.05-4.699l1.81-3.74a10.12 10.12 0 0 0-.208-9.193zM13.004 40.636c-2.6 0-4.714-2.142-4.714-4.775 0-.625-.5-1.131-1.118-1.131-.617 0-1.117.506-1.117 1.131 0 3.88 3.117 7.038 6.95 7.038.616 0 1.116-.506 1.116-1.13 0-.626-.5-1.133-1.117-1.133zM7.172 26.64c-.617 0-1.117.506-1.117 1.132 0 .624.5 1.13 1.117 1.13 2.6 0 4.715 2.143 4.715 4.776 0 .625.5 1.131 1.117 1.131s1.117-.506 1.117-1.131c0-3.88-3.117-7.038-6.949-7.038z"/></g></svg>