<svg width="32" height="20" viewBox="0 0 32 20" xmlns="http://www.w3.org/2000/svg"><title>eye</title><path d="M16 0C9.886 0 4.342 3.42.25 8.978a1.32 1.32 0 0 0 0 1.546C4.342 16.087 9.886 19.51 16 19.51c6.114 0 11.658-3.422 15.75-8.978a1.319 1.319 0 0 0 0-1.547C27.658 3.421 22.114 0 16 0zm.438 16.623c-4.058.261-7.41-3.16-7.154-7.317.21-3.428 2.926-6.206 6.277-6.42 4.06-.262 7.41 3.16 7.155 7.317-.216 3.42-2.932 6.2-6.278 6.42zm-.202-3.173c-2.187.14-3.993-1.7-3.85-3.937.112-1.847 1.578-3.34 3.385-3.46 2.186-.141 3.993 1.7 3.85 3.936-.119 1.854-1.585 3.347-3.385 3.46z" fill="#FFF" fill-rule="evenodd"/></svg>