<svg width="62" height="60" viewBox="0 0 62 60" xmlns="http://www.w3.org/2000/svg"><title>ico-service-nano</title><g fill-rule="evenodd"><path d="M8.531 2.317c-1.524 0-2.682.398-3.444 1.179-2.004 2.04-1.378 6.816 1.718 13.13 3.306 6.735 9.005 14.398 16.045 21.572 11.132 11.346 23.724 19.278 30.624 19.278 1.524 0 2.68-.4 3.442-1.178 2.005-2.04 1.38-6.819-1.714-13.133-3.308-6.735-9.005-14.395-16.045-21.572C28.022 10.25 15.428 2.317 8.531 2.317zm44.943 57.266c-7.521 0-20.413-8-32.084-19.89-7.193-7.324-13.03-15.196-16.434-22.12C1.388 10.291.916 4.758 3.626 2 4.79.821 6.44.21 8.532.21c7.519 0 20.412 7.998 32.086 19.891 7.192 7.324 13.028 15.195 16.431 22.12 3.568 7.281 4.041 12.814 1.328 15.571-1.16 1.18-2.81 1.791-4.902 1.791z"/><path d="M53.474 2.317c-6.9 0-19.492 7.932-30.624 19.276C15.81 28.77 10.11 36.43 6.805 43.165 3.709 49.48 3.083 54.258 5.087 56.298c.762.779 1.92 1.178 3.444 1.178 6.897 0 19.49-7.932 30.626-19.278 7.04-7.174 12.737-14.837 16.045-21.572 3.093-6.314 3.72-11.09 1.714-13.13-.762-.781-1.918-1.179-3.442-1.179zM8.53 59.583c-2.092 0-3.742-.61-4.904-1.79-2.712-2.758-2.239-8.29 1.33-15.573 3.403-6.924 9.24-14.795 16.433-22.119C33.06 8.208 45.953.211 53.474.211c2.091 0 3.741.61 4.902 1.788 2.713 2.76 2.24 8.292-1.328 15.574-3.403 6.924-9.239 14.796-16.431 22.12-11.674 11.89-24.567 19.89-32.086 19.89z"/><path d="M31 23.066c-7.91 0-15.334.8-20.91 2.273-5.9 1.558-7.992 3.43-7.992 4.567 0 1.118 2.092 2.989 7.992 4.548 5.576 1.473 13 2.292 20.91 2.292 17.912 0 28.908-3.996 28.908-6.84 0-2.862-10.996-6.84-28.908-6.84zm0 15.785c-8.08 0-15.69-.842-21.426-2.357C5.22 35.338.03 33.274.034 29.906c-.003-3.388 5.187-5.45 9.54-6.606C15.31 21.783 22.92 20.962 31 20.962c15.015 0 30.973 3.115 30.973 8.944 0 5.809-15.958 8.945-30.973 8.945z"/><path d="M31 27.74c-1.16 0-2.106.969-2.106 2.166 0 1.179.946 2.147 2.106 2.147 1.165 0 2.11-.968 2.11-2.147 0-1.197-.945-2.165-2.11-2.165zm0 6.418c-2.3 0-4.171-1.914-4.171-4.252 0-2.357 1.87-4.272 4.171-4.272 2.303 0 4.176 1.915 4.176 4.272 0 2.338-1.873 4.252-4.176 4.252z"/></g></svg>