<svg width="25" height="30" viewBox="0 0 25 30" xmlns="http://www.w3.org/2000/svg"><title>Fill 1</title><path d="M25 21.303v-6.827c0-1.83-1.476-3.32-3.29-3.32-.467 0-.912.1-1.315.278V3.32c0-1.83-1.476-3.32-3.29-3.32-1.813 0-3.29 1.49-3.29 3.32v2.516a3.245 3.245 0 0 0-1.315-.278c-1.542 0-2.838 1.076-3.193 2.523a3.245 3.245 0 0 0-1.412-.323c-1.608 0-2.95 1.171-3.234 2.712a3.243 3.243 0 0 0-1.372-.303c-1.813 0-3.289 1.49-3.289 3.32v7.816C0 26.099 3.866 30 8.619 30h7.762C21.134 30 25 26.099 25 21.303zM8.619 28.008c-3.665 0-6.645-3.008-6.645-6.705v-7.816c0-.732.59-1.327 1.315-1.327.726 0 1.316.595 1.316 1.327H6.58v-2.409c0-.732.59-1.328 1.316-1.328.725 0 1.316.596 1.316 1.328v2.41h1.973v-4.61c0-.733.59-1.328 1.316-1.328.726 0 1.316.595 1.316 1.328v4.61h1.973V3.32c0-.733.59-1.328 1.316-1.328.726 0 1.316.595 1.316 1.328v16.468h1.974v-5.312c0-.732.59-1.328 1.316-1.328.725 0 1.315.596 1.315 1.328v6.827c0 3.697-2.98 6.705-6.645 6.705H8.62z" fill="#FFF" fill-rule="evenodd"/></svg>