<svg width="19" height="12" viewBox="0 0 19 12" xmlns="http://www.w3.org/2000/svg"><title>ico-user-group</title><path d="M12.603 5.144c1.427 0 2.519-1.113 2.519-2.574 0-1.457-1.092-2.57-2.519-2.57s-2.518 1.113-2.518 2.57c0 1.461 1.09 2.574 2.518 2.574zm-6.72 0c1.428 0 2.52-1.113 2.52-2.574C8.402 1.113 7.31 0 5.882 0 4.452 0 3.36 1.113 3.36 2.57c0 1.461 1.091 2.574 2.524 2.574zm0 1.712C3.952 6.856 0 7.886 0 9.857V12h11.762V9.857c0-1.972-3.947-3.001-5.878-3.001zm6.72 0c-.25 0-.504 0-.841.087 1.01.687 1.682 1.713 1.682 2.914V12h5.043V9.857c0-1.972-3.951-3.001-5.884-3.001z" fill-rule="evenodd"/></svg>