<svg width="14" height="12" viewBox="0 0 14 12" xmlns="http://www.w3.org/2000/svg"><title>ico-photo-camera</title><g fill-rule="evenodd"><path d="M13.362 2.435a1.795 1.795 0 0 0-1.311-.538h-1.622l-.37-.976a1.34 1.34 0 0 0-.503-.607 1.3 1.3 0 0 0-.75-.254H5.1a1.3 1.3 0 0 0-.75.254c-.244.17-.412.373-.504.607l-.369.976H1.854c-.512 0-.949.18-1.311.538A1.761 1.761 0 0 0 0 3.734v6.43c0 .506.181.94.543 1.298.362.359.799.538 1.311.538h10.197c.511 0 .949-.18 1.31-.538a1.76 1.76 0 0 0 .544-1.299v-6.43c0-.506-.181-.94-.543-1.298zM9.244 9.22a3.14 3.14 0 0 1-2.292.943A3.141 3.141 0 0 1 4.66 9.22c-.635-.63-.952-1.387-.952-2.271 0-.885.318-1.642.952-2.271a3.14 3.14 0 0 1 2.292-.944 3.14 3.14 0 0 1 2.292.944 3.08 3.08 0 0 1 .953 2.27c0 .885-.318 1.643-.953 2.272z"/><path d="M6.952 4.882c-.574 0-1.065.202-1.473.606a1.982 1.982 0 0 0-.612 1.46c0 .57.204 1.056.612 1.46.408.405.899.607 1.473.607.575 0 1.066-.202 1.474-.606.408-.405.612-.891.612-1.46 0-.57-.204-1.057-.612-1.46a2.019 2.019 0 0 0-1.474-.607z"/></g></svg>