<svg width="56" height="45" viewBox="0 0 56 45" xmlns="http://www.w3.org/2000/svg"><title>ico-tattooache</title><g fill-rule="evenodd"><path d="M28.196 7.359c11.604 0 20.324 7.582 25.162 15.297C51.524 10.274 41.51 1.951 27.754 1.951 14.732 1.95 6.86 6.824 3.326 9.719a2.285 2.285 0 0 0-.655 2.694l1.907 4.394A2.279 2.279 0 0 0 6.33 18.17a2.334 2.334 0 0 0 2.1-.72c3.426-3.78 10.55-10.09 19.766-10.09zm26.393 20.406a.931.931 0 0 1-.842-.535C49.862 18.908 40.84 9.204 28.196 9.204c-8.499 0-15.168 5.94-18.388 9.483a4.182 4.182 0 0 1-3.78 1.31c-1.413-.24-2.592-1.142-3.157-2.454l-1.907-4.41a4.15 4.15 0 0 1 1.177-4.835C5.868 5.235 14.151.105 27.754.105c16.256 0 27.638 10.87 27.762 26.481a.792.792 0 0 1 .039.257c0 .517-.438.887-.945.922h-.02zM29.182 39.19c-9.518 0-17.263-5.132-17.263-11.443 0-.517.416-.923.929-.923a.92.92 0 0 1 .928.923c0 5.298 6.913 9.597 15.406 9.597 8.498 0 15.409-4.3 15.409-9.597 0-.517.416-.923.928-.923a.92.92 0 0 1 .929.923c0 6.31-7.745 11.442-17.266 11.442"/><path d="M10.515 36.936a.905.905 0 0 1-.685-.295.925.925 0 0 1 .056-1.308l4.003-3.656a.95.95 0 0 1 1.311.058.926.926 0 0 1-.056 1.31l-4 3.651a.908.908 0 0 1-.629.24m4.835 4.32a.935.935 0 0 1-.605-.221.909.909 0 0 1-.098-1.294l3.75-4.334a.948.948 0 0 1 1.31-.094.93.93 0 0 1 .098 1.31l-3.75 4.32a.898.898 0 0 1-.705.313m6.637 2.51a.9.9 0 0 1-.3-.056.917.917 0 0 1-.579-1.164l1.774-5.167a.923.923 0 0 1 1.179-.588.933.933 0 0 1 .579 1.179l-1.773 5.166a.93.93 0 0 1-.88.63m25.473-6.83a.908.908 0 0 1-.628-.24l-3.77-3.43a.927.927 0 0 1-.053-1.31.93.93 0 0 1 1.31-.057l3.768 3.434a.923.923 0 0 1-.627 1.603m-4.837 4.32a.898.898 0 0 1-.704-.314l-3.546-4.096a.908.908 0 0 1 .096-1.294.93.93 0 0 1 1.31.094l3.547 4.095a.91.91 0 0 1-.098 1.294.94.94 0 0 1-.605.221m-6.638 2.51a.927.927 0 0 1-.879-.63l-1.656-4.834a.912.912 0 0 1 .58-1.163.928.928 0 0 1 1.177.572l1.658 4.835a.917.917 0 0 1-.58 1.164.91.91 0 0 1-.3.056m-7.626.92a.92.92 0 0 1-.928-.92v-3.693c0-.515.416-.922.928-.922s.928.407.928.922v3.693a.92.92 0 0 1-.928.92"/></g></svg>