<svg width="30" height="45" viewBox="0 0 30 45" xmlns="http://www.w3.org/2000/svg"><title>ico-paint-brush</title><g fill="#FFF"><path d="M10.257 14.991a5.62 5.62 0 0 0 1.823-4.143c0-1.175-.71-3.082-2.168-5.83A72.25 72.25 0 0 0 7.254.46a1 1 0 0 0-1.685 0c-.056.088-1.4 2.188-2.658 4.558C1.453 7.767.744 9.674.744 10.848c0 1.636.702 3.11 1.822 4.143a3.09 3.09 0 0 0-1.608.85 3.07 3.07 0 0 0-.91 2.19 3.105 3.105 0 0 0 2.826 3.084v20.361A3.535 3.535 0 0 0 6.412 45c1.95 0 3.537-1.58 3.537-3.524V21.115a3.09 3.09 0 0 0 1.916-.893 3.067 3.067 0 0 0 .911-2.19 3.105 3.105 0 0 0-2.52-3.04zM6.412 2.898c.399.664.896 1.514 1.395 2.424L6.412 6.795 5.017 5.322c.498-.91.996-1.76 1.395-2.424zm-2.37 4.297L5.685 8.93l.02.02.02.02.02.016a.967.967 0 0 0 .162.119l.04.022a.444.444 0 0 0 .049.024l.039.017a.933.933 0 0 0 .054.02l.037.012.06.016.034.008.069.01c.009 0 .018.003.026.003a1.005 1.005 0 0 0 .193 0c.009 0 .018-.002.026-.003a.975.975 0 0 0 .07-.01l.033-.008.06-.016c.013-.003.024-.008.036-.012a.978.978 0 0 0 .056-.02l.038-.016a.953.953 0 0 0 .05-.025l.039-.022a.854.854 0 0 0 .163-.118l.019-.016.02-.021.02-.02 1.644-1.734c1.157 2.367 1.298 3.328 1.298 3.652a3.666 3.666 0 0 1-3.668 3.655 3.666 3.666 0 0 1-3.669-3.655c0-.324.141-1.285 1.299-3.653zM7.95 41.476c0 .845-.69 1.533-1.538 1.533a1.537 1.537 0 0 1-1.539-1.533V21.128H7.95v20.348zm2.502-22.663c-.21.209-.489.324-.786.324h-6.51a1.11 1.11 0 0 1-1.11-1.106 1.104 1.104 0 0 1 1.11-1.105h6.51a1.11 1.11 0 0 1 1.111 1.105c0 .296-.115.573-.325.782zm19.5-8.851a.947.947 0 0 0-.003-.065l-.003-.036a.543.543 0 0 0-.009-.056l-.008-.045-.011-.043-.016-.055-.012-.033a.978.978 0 0 0-.025-.061l-.004-.01L25.724.58l-.007-.012a.979.979 0 0 0-.056-.102L25.65.45a.983.983 0 0 0-.076-.1l-.02-.022a1.016 1.016 0 0 0-.074-.073l-.02-.018a.983.983 0 0 0-.1-.074l-.02-.012a1.004 1.004 0 0 0-.096-.052l-.022-.01a.993.993 0 0 0-.12-.046L25.088.04a1.016 1.016 0 0 0-.112-.025L24.945.01a1.014 1.014 0 0 0-.26 0l-.03.005a.988.988 0 0 0-.113.025l-.013.003a1.008 1.008 0 0 0-.122.045l-.02.01a.967.967 0 0 0-.097.053l-.02.012a1.006 1.006 0 0 0-.1.074l-.02.018a.838.838 0 0 0-.073.073l-.02.022a.996.996 0 0 0-.076.1l-.011.017a.99.99 0 0 0-.056.102l-.007.012-4.137 8.977-.005.01a.974.974 0 0 0-.024.061l-.012.034a.905.905 0 0 0-.016.055l-.011.043-.008.045c-.003.018-.007.037-.009.056l-.003.036a.946.946 0 0 0-.003.065v29.902c0 2.822 2.304 5.117 5.137 5.117 2.832 0 5.137-2.295 5.137-5.117V9.962zm-6.136-4.41v.503c0 .55.448.996 1 .996s1-.446 1-.996V5.55l1.578 3.426h-5.157l1.579-3.426zm1 37.438a3.135 3.135 0 0 1-3.138-3.126v-.028h6.275v.028a3.135 3.135 0 0 1-3.137 3.126zm3.137-5.145h-6.275v-1.643h6.275v1.643zm0-3.634h-6.275V10.969h2.138v13.52c0 .55.448.995 1 .995s1-.446 1-.996v-13.52h2.138v23.243z"/><path d="M24.816 27.426c-.552 0-1 .446-1 .995v1.195c0 .55.448.996 1 .996s1-.446 1-.996v-1.195a.998.998 0 0 0-1-.995z"/></g></svg>