<svg width="19" height="15" viewBox="0 0 19 15" xmlns="http://www.w3.org/2000/svg"><title>ico-email</title><g fill="#FFF" fill-rule="evenodd"><path d="M17.303 14.857c.427 0 .797-.14 1.111-.415l-5.381-5.316-.373.264c-.404.293-.73.523-.98.687a6.144 6.144 0 0 1-1.003.502c-.417.17-.806.256-1.167.256h-.02c-.361 0-.75-.085-1.167-.256a6.058 6.058 0 0 1-1.002-.502c-.25-.164-.577-.394-.98-.687a27.602 27.602 0 0 0-.373-.265L.585 14.442c.314.275.684.415 1.112.415h15.606zM1.071 5.778A5.623 5.623 0 0 1 0 4.867v8.089l4.745-4.687c-.95-.654-2.173-1.484-3.674-2.491zm16.869 0a314.61 314.61 0 0 0-3.683 2.493L19 12.956v-8.09a5.855 5.855 0 0 1-1.06.912z"/><path d="M17.303.112H1.697C1.152.112.733.293.44.657c-.294.362-.44.816-.44 1.36 0 .44.195.917.583 1.43.39.513.802.917 1.24 1.21.24.167.965.665 2.174 1.493a660.3 660.3 0 0 1 2.779 1.91l.157.112.293.208c.23.164.42.297.572.397.153.102.336.215.552.341.215.126.419.22.61.283.19.063.367.094.53.094h.02c.163 0 .34-.031.531-.094a3.26 3.26 0 0 0 .61-.283c.215-.126.398-.239.55-.34.153-.101.344-.234.574-.398a37.923 37.923 0 0 1 .45-.32l1.074-.736 3.888-2.667a5.014 5.014 0 0 0 1.293-1.288c.347-.503.52-1.03.52-1.581 0-.462-.168-.856-.504-1.184a1.648 1.648 0 0 0-1.193-.492z"/></g></svg>