<svg width="52" height="38" viewBox="0 0 52 38" xmlns="http://www.w3.org/2000/svg"><title>ico-moustache</title><g fill="#FFF" fill-rule="evenodd"><path d="M10.652 7.066c-.272 0-.543-.103-.75-.307a1.04 1.04 0 0 1 0-1.483l.335-.332a1.07 1.07 0 0 1 1.5 0 1.04 1.04 0 0 1 .001 1.482l-.335.332a1.064 1.064 0 0 1-.751.308m28.962.166c-.271 0-.543-.103-.75-.307a1.04 1.04 0 0 1 0-1.483l.336-.332a1.07 1.07 0 0 1 1.5 0 1.04 1.04 0 0 1 0 1.483l-.335.332a1.065 1.065 0 0 1-.75.307"/><path d="M41.925 19.645c-1.704 0-3.6-.628-5.396-1.746L48.155 6.412a1.04 1.04 0 0 0 0-1.483 1.07 1.07 0 0 0-1.501 0L34.799 16.643a15.87 15.87 0 0 1-2.107-2.137l5.245-5.183a1.04 1.04 0 0 0 0-1.483 1.07 1.07 0 0 0-1.5 0l-4.965 4.906c-.808-1.4-1.253-2.82-1.253-4.101 0-5.682 6.159-6.53 9.83-6.53 6.889 0 9.828 1.67 9.828 5.583 0 5.008-2.763 11.947-7.952 11.947zM26 5.653c-.872 0-1.698.253-2.394.699-.478-1.74-1.53-3.178-3.112-4.237h11.012c-1.581 1.059-2.632 2.497-3.111 4.237a4.433 4.433 0 0 0-2.395-.7zm-8.024 10.295c-2.42 2.315-5.373 3.697-7.9 3.697-1.256 0-2.37-.407-3.337-1.094L18.553 6.877a1.04 1.04 0 0 0 0-1.483 1.07 1.07 0 0 0-1.5 0L5.207 17.098c-.63-.768-1.166-1.666-1.605-2.632l5.371-5.309a1.04 1.04 0 0 0 0-1.483 1.07 1.07 0 0 0-1.5 0l-4.672 4.617c-.45-1.55-.68-3.152-.68-4.593 0-3.913 2.94-5.583 9.83-5.583 3.67 0 9.829.848 9.829 6.53 0 2.294-1.423 5.024-3.805 7.303zm30.25-14.535C46.313.46 43.714.018 40.05.018h-28.1c-3.666 0-6.264.443-8.177 1.395C1.27 2.659 0 4.773 0 7.698c0 3.103.895 6.488 2.394 9.054 1.879 3.218 4.607 4.99 7.681 4.99 3.112 0 6.53-1.562 9.377-4.287 2.618-2.505 4.245-5.563 4.433-8.287A2.275 2.275 0 0 1 26 7.75c.937 0 1.77.564 2.114 1.416.187 2.724 1.814 5.783 4.433 8.29 2.847 2.724 6.265 4.286 9.377 4.286 3.074 0 5.802-1.772 7.682-4.99C51.105 14.186 52 10.801 52 7.698c0-2.925-1.27-5.04-3.774-6.285zM25.998 32.094c.317 0 .618.14.82.383 1.643 1.977 3.964 2.859 7.523 2.859 2.864 0 5.054-2.014 6.228-3.71a7.86 7.86 0 0 1-1.226.073c-1.73 0-3.156-.978-4.534-1.925-1.45-.996-2.82-1.936-4.576-1.936-.783 0-2.031.276-3.53 1.595a1.07 1.07 0 0 1-1.41 0c-1.499-1.319-2.747-1.595-3.53-1.595-1.757 0-3.126.94-4.577 1.936-1.378.947-2.803 1.925-4.533 1.925a7.86 7.86 0 0 1-1.226-.073c1.174 1.696 3.364 3.71 6.228 3.71 3.56 0 5.88-.882 7.523-2.859.201-.242.502-.383.82-.383zm8.343 5.339c-3.666 0-6.352-.88-8.343-2.751-1.991 1.872-4.677 2.75-8.343 2.75-4.543 0-8.023-3.852-9.043-6.589a.996.996 0 0 1-.018-.053c-.108-.346-.23-1.007.17-1.542a1.293 1.293 0 0 1 1.049-.516c.367 0 .735.134 1.157.424.602.412.651.446 1.683.446 1.065 0 2.111-.719 3.322-1.55 1.578-1.083 3.367-2.311 5.788-2.311 1.014 0 2.525.285 4.235 1.554 1.71-1.269 3.22-1.554 4.235-1.554 2.421 0 4.21 1.228 5.787 2.31 1.212.833 2.257 1.55 3.323 1.55 1.032 0 1.08-.033 1.683-.445.422-.29.79-.424 1.157-.424.422 0 .804.188 1.05.516.399.535.277 1.196.169 1.542a.911.911 0 0 1-.018.053c-1.02 2.737-4.5 6.59-9.043 6.59z"/></g></svg>