<svg width="90" height="103" viewBox="0 0 90 103" xmlns="http://www.w3.org/2000/svg"><title>ico-18plus</title><g fill="none" fill-rule="evenodd"><path d="M18.218 39.774v3.822h4.452V63h4.242V39.774h-8.694zm25.8-.546c7.519 0 10.207 3.024 10.207 6.468 0 1.974-.882 3.612-2.478 4.41 2.772.966 4.242 2.898 4.242 6.006 0 4.788-4.41 7.476-11.97 7.476-7.56 0-11.97-2.478-11.97-7.56 0-2.478 1.638-4.998 4.158-5.88-1.554-.966-2.394-2.226-2.394-4.284 0-4.788 4.872-6.636 10.206-6.636zm4.705 13.734l-9.198-1.008c-2.268.588-3.192 2.184-3.192 3.78 0 2.394 2.142 4.116 7.686 4.116 5.292 0 7.686-1.554 7.686-3.948 0-1.722-1.008-2.73-2.982-2.94zm-7.56-4.704l7.224.756c1.218-.84 1.638-1.764 1.638-2.898 0-2.142-1.638-3.192-6.006-3.192-4.872 0-6.006 1.218-6.006 2.982 0 1.512 1.008 2.1 3.15 2.352zm19.206 1.008v3.57h5.334v5.25h3.906v-5.25h5.376v-3.57H69.61v-5.418h-3.906v5.418H60.37z" fill="#D2A36E"/><path stroke="#D2A36E" stroke-width="3" d="M44.806 2l42.806 24.714v49.428l-42.806 24.714L2 76.142V26.714z"/></g></svg>