<svg width="17" height="17" viewBox="0 0 17 17" xmlns="http://www.w3.org/2000/svg"><title>ico-phone</title><path d="M16.668 12.804c-.047-.141-.348-.348-.902-.622-.15-.086-.363-.203-.64-.352a63.612 63.612 0 0 1-.753-.411 23.293 23.293 0 0 1-.635-.364c-.031-.023-.13-.091-.297-.205a3.307 3.307 0 0 0-.42-.252.779.779 0 0 0-.339-.082c-.158 0-.356.11-.593.334a5.75 5.75 0 0 0-.652.728 7.08 7.08 0 0 1-.629.727c-.222.224-.404.335-.546.335a.824.824 0 0 1-.267-.059 2.77 2.77 0 0 1-.243-.1 4.55 4.55 0 0 1-.285-.164 6.689 6.689 0 0 0-.225-.135c-1.084-.594-2.013-1.275-2.788-2.042-.775-.767-1.463-1.686-2.064-2.758a5.76 5.76 0 0 0-.137-.223 4.2 4.2 0 0 1-.166-.282 2.661 2.661 0 0 1-.101-.24.798.798 0 0 1-.059-.264c0-.14.113-.321.339-.54.225-.22.47-.427.735-.622.265-.196.51-.411.735-.645.226-.235.338-.43.338-.588a.752.752 0 0 0-.083-.334 3.225 3.225 0 0 0-.255-.417 14.216 14.216 0 0 0-.208-.293 27.286 27.286 0 0 1-.367-.628 65.099 65.099 0 0 1-.416-.745c-.15-.274-.268-.485-.355-.634C4.113.38 3.903.082 3.76.035A.671.671 0 0 0 3.513 0c-.214 0-.492.04-.836.118-.344.078-.615.16-.813.246-.396.164-.815.641-1.258 1.432C.202 2.53 0 3.259 0 3.978c0 .211.013.417.041.617.028.2.078.424.149.675.071.25.129.436.172.557.043.12.124.338.243.651s.19.505.213.576c.278.766.605 1.45.985 2.053.624 1.001 1.477 2.037 2.557 3.105 1.08 1.067 2.125 1.91 3.138 2.529.608.375 1.301.7 2.076.974.071.023.265.094.582.211.315.118.535.198.657.24.123.044.311.1.564.172a4.584 4.584 0 0 0 1.305.188c.728 0 1.463-.2 2.207-.6.799-.437 1.281-.852 1.447-1.244.087-.195.17-.463.25-.804.078-.34.118-.616.118-.827a.647.647 0 0 0-.036-.247z" fill="#FFF" fill-rule="evenodd"/></svg>