<svg width="17" height="14" viewBox="0 0 17 14" xmlns="http://www.w3.org/2000/svg"><title>input-email-dark</title><g fill="#18181D" fill-rule="evenodd"><path d="M15.482 14c.382 0 .713-.132.994-.39L11.661 8.6l-.334.248c-.36.277-.653.493-.877.647a5.395 5.395 0 0 1-.897.473c-.373.161-.721.242-1.044.242h-.018c-.323 0-.67-.08-1.044-.242a5.32 5.32 0 0 1-.897-.473c-.224-.154-.516-.37-.877-.647l-.333-.25L.523 13.61c.281.26.612.39.995.39h13.964zM.958 5.445A5.11 5.11 0 0 1 0 4.585v7.623l4.245-4.416A319.55 319.55 0 0 0 .958 5.445zm15.092 0a272.997 272.997 0 0 0-3.294 2.35L17 12.207V4.586a5.324 5.324 0 0 1-.95.859z"/><path d="M15.482.105H1.518C1.031.105.656.276.394.62.13.96 0 1.388 0 1.9c0 .415.174.864.522 1.347.348.484.718.864 1.11 1.14.214.158.863.627 1.945 1.407a590.62 590.62 0 0 1 2.485 1.8l.141.105.262.197c.206.154.377.279.512.374.137.096.3.202.494.321.192.118.375.208.546.266.17.06.328.09.474.09h.018c.146 0 .305-.03.475-.09.17-.058.353-.148.545-.266a9.87 9.87 0 0 0 .494-.32c.136-.096.307-.22.513-.375a34.018 34.018 0 0 1 .403-.301c.205-.15.527-.382.96-.695l3.479-2.513c.462-.336.847-.74 1.157-1.213.31-.474.465-.971.465-1.49 0-.435-.15-.806-.451-1.116a1.438 1.438 0 0 0-1.067-.464z"/></g></svg>