<svg width="17" height="17" viewBox="0 0 17 17" xmlns="http://www.w3.org/2000/svg"><title>time</title><g fill="#FFF" fill-rule="evenodd"><path d="M15.721 4.345a8.389 8.389 0 0 0-3.066-3.066A8.24 8.24 0 0 0 8.425.15a8.24 8.24 0 0 0-4.228 1.13A8.383 8.383 0 0 0 1.13 4.345 8.243 8.243 0 0 0 0 8.575c0 1.528.377 2.938 1.13 4.229a8.386 8.386 0 0 0 3.066 3.066A8.244 8.244 0 0 0 8.426 17a8.24 8.24 0 0 0 4.229-1.13 8.387 8.387 0 0 0 3.066-3.066 8.248 8.248 0 0 0 1.13-4.23 8.247 8.247 0 0 0-1.13-4.229zm-2.128 7.225a5.955 5.955 0 0 1-2.172 2.172c-.914.534-1.913.8-2.995.8a5.832 5.832 0 0 1-2.995-.8 5.95 5.95 0 0 1-2.173-2.172 5.836 5.836 0 0 1-.8-2.995c0-1.083.267-2.081.8-2.996a5.947 5.947 0 0 1 2.173-2.171 5.83 5.83 0 0 1 2.995-.801c1.082 0 2.08.267 2.995.8a5.953 5.953 0 0 1 2.172 2.172c.534.915.8 1.913.8 2.996 0 1.082-.266 2.08-.8 2.995z"/><path d="M9.479 4.362h-.702a.341.341 0 0 0-.253.098.341.341 0 0 0-.098.253v3.862H5.968a.344.344 0 0 0-.252.098.342.342 0 0 0-.1.252v.703a.342.342 0 0 0 .351.351H9.48a.339.339 0 0 0 .351-.351V4.713a.343.343 0 0 0-.1-.253.34.34 0 0 0-.251-.098z"/></g></svg>