<svg width="17" height="17" viewBox="0 0 17 17" xmlns="http://www.w3.org/2000/svg"><title>input-calendar</title><path d="M2.633 9.298V8.115a.32.32 0 0 1 .32-.32h1.182a.32.32 0 0 1 .32.32v1.183a.32.32 0 0 1-.32.32H2.952a.323.323 0 0 1-.319-.32zm2.793.316H6.61c.177 0 .32-.142.32-.32V8.111a.318.318 0 0 0-.32-.319H5.426a.318.318 0 0 0-.319.32v1.182c.003.178.146.32.32.32zm2.474 0h1.183c.177 0 .32-.142.32-.32V8.111a.318.318 0 0 0-.32-.319H7.9a.318.318 0 0 0-.32.32v1.182c.004.178.146.32.32.32zm-2.474 2.41H6.61c.177 0 .32-.141.32-.318v-1.183a.318.318 0 0 0-.32-.32H5.426a.318.318 0 0 0-.319.32v1.183a.323.323 0 0 0 .32.319zm2.474 0h1.183c.177 0 .32-.141.32-.318v-1.183a.318.318 0 0 0-.32-.32H7.9a.318.318 0 0 0-.32.32v1.183a.323.323 0 0 0 .32.319zm2.477 0h1.183c.177 0 .32-.141.32-.318v-1.183a.318.318 0 0 0-.32-.32h-1.183a.318.318 0 0 0-.32.32v1.183c0 .177.143.319.32.319zm-7.425 0h1.183c.177 0 .32-.141.32-.318v-1.183a.318.318 0 0 0-.32-.32H2.952a.318.318 0 0 0-.319.32v1.183c0 .177.143.319.32.319zm4.948 2.41h1.183a.32.32 0 0 0 .32-.32V12.93a.318.318 0 0 0-.32-.319H7.9a.318.318 0 0 0-.32.32v1.183a.324.324 0 0 0 .32.319zm-2.474 0H6.61a.32.32 0 0 0 .32-.32V12.93a.318.318 0 0 0-.32-.319H5.426a.318.318 0 0 0-.319.32v1.183a.323.323 0 0 0 .32.319zm4.951-4.82h1.183c.177 0 .32-.141.32-.319V8.111a.318.318 0 0 0-.32-.319h-1.183a.318.318 0 0 0-.32.32v1.182c0 .178.143.32.32.32zm2.474 2.412h1.183a.318.318 0 0 0 .319-.32v-1.182a.318.318 0 0 0-.32-.32h-1.182a.318.318 0 0 0-.32.32v1.183a.323.323 0 0 0 .32.319zm-2.474 2.408h1.183a.32.32 0 0 0 .32-.32V12.93a.318.318 0 0 0-.32-.319h-1.183a.318.318 0 0 0-.32.32v1.183a.32.32 0 0 0 .32.319zM0 15.143V3.72c0-1.023.833-1.856 1.856-1.856h2.082V.711c0-.374.302-.676.676-.676h1.058c.375 0 .677.302.677.676V1.86h4.267V.71c0-.374.302-.676.677-.676h1.058c.375 0 .676.302.676.676v1.15h2.082c1.024 0 1.856.832 1.856 1.856v11.428A1.858 1.858 0 0 1 15.11 17H1.856A1.858 1.858 0 0 1 0 15.144zm1.436 0c0 .233.191.424.424.424h13.25c.232 0 .422-.19.422-.423V6.682H1.436v8.462z" fill="#FFF" fill-rule="evenodd"/></svg>