<svg width="206" height="65" viewBox="0 0 206 65" xmlns="http://www.w3.org/2000/svg" xmlns:xlink="http://www.w3.org/1999/xlink"><title>logo</title><defs><path id="a" d="M123.49 46.241V.424H.126V46.24z"/></defs><g fill="none" fill-rule="evenodd"><g transform="translate(82.54 1.34)"><mask id="b" fill="#fff"><use xlink:href="#a"/></mask><path d="M104.653 28.834c.112-1.78 1.253-5.085 4.398-7.23 1.179-.806 3.49-2.32 4.256-3.48-.036.92-.187 1.906-.565 3.186a18.885 18.885 0 0 1-.64 1.83 104.7 104.7 0 0 1-1.767 3.334s-1.984 3.906-3.781 6.833c-.53-.483-2.06-1.929-1.9-4.473zm-61.463 3.47a40.902 40.902 0 0 1-2.677 4.352c-.94 1.332-1.885 2.435-2.824 3.319-.944.88-1.767 1.32-2.473 1.32s-.985-.588-.834-1.763c.152-1.174.563-2.633 1.237-4.378.673-1.742 1.556-3.602 2.649-5.57a50.538 50.538 0 0 1 3.406-5.361c1.179-1.607 2.34-2.86 3.483-3.758 1.141-.897 2.118-1.139 2.927-.726.303.175.477.512.53 1.01.049.501-.009 1.099-.178 1.788 0 0-4.407 8.196-5.246 9.767zm75.544-5.829c.604.174.908.657.908 1.453 0 .795-.012 1.38-.5 2.78-.378 1.09-1.74 4.084-3.378 6.267-2 2.662-5.083 4.06-6.759 4.06-.566 0-1.196-.31-1.096-.931.1-.624.378-1.433.831-2.437.129-.28.287-.597.442-.908h.007c.15-.309.318-.632.486-.96.124-.234.244-.466.378-.713.156-.291.309-.578.484-.892a177.73 177.73 0 0 1 2.321-3.986c1.918-3.18 4.256-6.79 7.016-10.832-.303-.449-.757-.861-1.363-1.243-.505-.31-1.177-.597-2.018-.855-.646-.2-1.463-.298-2.368-.344 1.77-1.182 2.414-6.929-.836-9.597 1.045 2.781-.876 5.652-2.5 7.058-1.037.895-2.474 1.813-3.98 3.729-1.048 1.331-4.313 5.696-3.921 10.544.266 3.295 2.219 5.058 3.023 5.66-.814 1.248-2.738 4.426-4.628 5.97-.875.714-2.201 1.01-2.909.997-1.027-.02-1.47-1.31-.889-3.223.929-3.044 1.862-5.14 2.533-6.274 0 0-.84-.603-1.895-.607-1.431-.006-3.355.607-3.355.607.606.173.91.657.91 1.451 0 .796-.997 2.45-1.947 3.726-1.988 2.671-5.082 4.06-6.757 4.06-.568 0-1.198-.31-1.098-.931.102-.624.381-1.433.834-2.437.15-.333.334-.7.522-1.075h.002c.102-.205.216-.422.325-.633.174-.33.343-.658.534-1.01h-.003c.135-.247.262-.489.411-.755.742-1.31 1.517-2.642 2.323-3.986 1.916-3.18 4.257-6.79 7.016-10.832-.303-.449-.76-.861-1.363-1.243-.505-.31-1.18-.597-2.018-.855-.842-.26-1.409-.39-2.687-.39.684.66.154 1.988-.164 2.85-.322.865-.775 1.884-1.363 3.06a107.934 107.934 0 0 1-1.946 3.676s-3.16 6.205-4.167 7.651a44.076 44.076 0 0 1-2.72 3.54c-.893 1.04-1.784 1.904-2.674 2.593-.893.69-1.69 1.037-2.4 1.037-.534 0-.679-.346-.428-1.037.254-.689.733-1.613 1.44-2.77.707-1.159 1.54-2.463 2.5-3.914.958-1.452 1.89-2.946 2.799-4.484a45.607 45.607 0 0 0 2.346-4.48c.655-1.45 1.035-2.756 1.135-3.913.102-1.156-.177-2.08-.833-2.77-.655-.692-1.858-1.038-3.608-1.038.641 0 .833.797.73 1.539-.1.744-.349 1.31-.907 2.555-.554 1.243-1.263 2.652-2.119 4.224A990.76 990.76 0 0 0 76.795 30c-.46.852-.897 1.695-1.32 2.534-.051.094-.1.182-.153.3a9.35 9.35 0 0 1-.083.182c-.293.594-.591 1.188-.867 1.776-.047.101-.075.185-.123.285a14.54 14.54 0 0 1-1.17 1.898c-1.986 2.671-5.08 4.06-6.757 4.06-.489 0-.999-.246-1.07-.71.023-.152.035-.295.085-.482.284-1.07.843-2.415 1.666-4.042a73.343 73.343 0 0 1 2.978-5.257 116.219 116.219 0 0 1 3.43-5.262c1.127-1.623 2.146-2.969 3.053-4.041.91-1.07 1.532-1.607 1.869-1.607a5.02 5.02 0 0 0-.481-.93 4.043 4.043 0 0 0-.858-.96 5.71 5.71 0 0 0-1.261-.776 4.496 4.496 0 0 0-1.639-.39c-.472.505-1.154 1.236-1.817 2.125-3.085 4.182-5.533 7.937-7.4 11.305-2.334 3.037-5.241 3.568-6.436 3.655 1.888-3.075 5.212-8.553 5.004-8.278.74-1.138 1.453-2.244 2.147-3.313a119.51 119.51 0 0 1 1.97-2.974c.002-.02 0-.036.002-.055-.304-.44-.748-.847-1.345-1.22-.502-.311-1.176-.598-2.018-.855-.84-.258-1.9-.39-3.18-.39.438.346.548.984.332 1.918-.221.933-.626 2.048-1.214 3.342a65.166 65.166 0 0 1-2.169 4.3c-.86 1.572-1.7 3.144-2.523 4.717-.33.63-.635 1.245-.938 1.858-.03.06-.061.106-.09.176a1.255 1.255 0 0 0-.053.114c-.208.427-.395.842-.588 1.262-.448.934-.937 1.85-1.574 2.708-1.99 2.672-5.083 4.061-6.759 4.061-.566 0-1.196-.31-1.094-.93.097-.624.376-1.435.83-2.438.455-1 1.053-2.156 1.792-3.472.74-1.31 1.516-2.642 2.32-3.986 1.918-3.18 4.258-6.79 7.015-10.832-.301-.449-.758-.861-1.36-1.243-.506-.31-1.179-.597-2.018-.855-.844-.26-1.902-.39-3.18-.39.536 0 .806.278.806.831 0 .553-.184 1.295-.555 2.226-.1-.931-.37-1.673-.808-2.226-1.076-1.246-2.246-1.84-3.508-1.79-1.26.055-2.53.564-3.81 1.53-1.277.967-2.53 2.273-3.758 3.91a37.295 37.295 0 0 0-3.19 5.106h-2.29c.605.174.907.657.907 1.453 0 .795-.21 1.727-.63 2.797-.422 1.072-.278.883-.91 2.29a20.94 20.94 0 0 1-2.336 3.96c-1.99 2.671-5.084 4.06-6.76 4.06-.565 0-1.197-.31-1.095-.931.098-.624.378-1.433.83-2.437.365-.797.843-1.722 1.385-2.717-.006.003-.015.004-.022.01.228-.405.47-.832.747-1.31.806-1.396 1.74-2.96 2.8-4.689a3488.89 3488.89 0 0 0 3.382-5.52 717.969 717.969 0 0 1 3.608-5.826c2.828-4.49 5.871-9.362 9.135-14.614-.303-.446-.74-.861-1.313-1.241-.505-.313-1.178-.596-2.018-.857-.842-.257-1.902-.386-3.179-.386.301.204.21.861-.279 1.969-.486 1.103-1.236 2.488-2.246 4.144a134.78 134.78 0 0 1-3.606 5.57 281.691 281.691 0 0 1-4.368 6.242c-3.53 4.94-7.637 10.52-12.312 16.736-.27 0-.277-.465-.026-1.396.252-.934.657-2.169 1.212-3.706.555-1.536 1.237-3.29 2.043-5.26a402.488 402.488 0 0 1 2.525-6.01 999.139 999.139 0 0 1 7.215-16.425 5.982 5.982 0 0 0-1.565-1.141c-.503-.277-1.102-.5-1.79-.673-.69-.173-1.456-.189-2.296-.05.37.277.37.906 0 1.89-.37.984-.993 2.22-1.867 3.705a149.876 149.876 0 0 1-3.155 5.078 756.124 756.124 0 0 1-3.91 5.985 535.033 535.033 0 0 0-4.14 6.372c-1.38 2.16-2.648 4.25-3.81 6.27a71.319 71.319 0 0 0-2.976 5.727C.99 37.339.085 40.164.127 41.688c.09 3.243 1.793 4.553 3.208 4.553-.337 0-.46-3.61 1.863-8.52.937-1.987 1.842-4.345 3.053-6.92a558.227 558.227 0 0 1 3.76-7.824 244.532 244.532 0 0 1 3.91-7.642 155.727 155.727 0 0 1 3.583-6.375 250.053 250.053 0 0 0-2.623 6.454 250.559 250.559 0 0 0-2.776 7.41 192.955 192.955 0 0 0-2.498 7.434c-.756 2.418-1.355 4.579-1.793 6.477-.437 1.9-.672 3.428-.705 4.586-.033 1.158.235 1.736.807 1.736.405-.416 1.136-1.277 2.194-2.591a281.195 281.195 0 0 0 8.429-11.063 894.224 894.224 0 0 0 5.02-6.995 198.691 198.691 0 0 0 4.795-7.047 175.382 175.382 0 0 0 3.987-6.4 250.678 250.678 0 0 1-3.936 7.176 1594.21 1594.21 0 0 1-4.365 7.645 837.882 837.882 0 0 0-3.937 6.915c-1.194 2.127-2.078 3.808-2.649 5.054-.373.82-.673 1.585-.928 2.317-.325 1.367-.635 2.8-.16 3.71.431.83 1.555 1.33 2.732 1.33 2.08 0 4.953-1.222 7.161-3.225 1.476-1.336 2.4-2.431 3.058-3.325-.07.395-.17.815-.214 1.187-.187 1.573-.093 2.86.276 3.862.371 1 1.111 1.5 2.22 1.5 1.245 0 2.49-.43 3.734-1.295 1.247-.863 2.457-1.97 3.637-3.315-.325 1.367-.543 2.371-.068 3.281.431.83 1.556 1.328 2.733 1.328 2.08 0 4.953-1.222 7.16-3.223.545-.493.993-.944 1.403-1.373-.068.27-.163.561-.209.817-.202 1.139-.107 2.053.28 2.746.385.69 1.218 1.033 2.496 1.033-.304 0-.455-.198-.455-.594 0-.396.127-.94.381-1.632.251-.691.621-1.519 1.109-2.486a99.477 99.477 0 0 1 1.642-3.111l.505-.815c1.932.205 3.983-.264 5.007-.55-.204.478-.41.954-.602 1.436-.424 1.066-.555 1.673-.772 2.974h-.001l-.004.02c-.007.05-.014.086-.022.136a5.296 5.296 0 0 0-.056.554c-.125 1.157-.116 1.98.28 2.74.434.83 1.556 1.33 2.734 1.33 2.081 0 4.956-1.222 7.162-3.225.456-.414.845-.797 1.204-1.166-.025.095-.072.205-.094.298-.318 1.243-.353 2.237-.102 2.979s.935 1.112 2.044 1.112c1.347 0 2.667-.396 3.962-1.191 1.294-.792 2.531-1.795 3.71-3.003-.007.023-.009.045-.017.07.004-.004.008-.007.011-.012-.254 1.124-.379 2.011.038 2.808.433.83 1.556 1.33 2.733 1.33 2.08 0 4.862-1.336 7.162-3.225a40.454 40.454 0 0 0 3.154-2.91 19.126 19.126 0 0 0-.66 2.042c-.32 1.243-.353 2.237-.102 2.979.252.742.934 1.112 2.045 1.112 1.345 0 2.666-.396 3.96-1.191 1.295-.792 2.532-1.795 3.71-3.003-.035.129-.054.245-.082.37l.006-.006c-.205.982-.272 1.778.107 2.502.431.83 1.556 1.33 2.733 1.33 2.08 0 4.953-1.222 7.16-3.225 2.892-2.623 7.421-8.692 9.135-13.408h-4.756z" fill="#FEFEFE" mask="url(#b)"/></g><path d="M15.463 20.355c1.127-1.726 3.793-5.255 4.803-6.754a557.63 557.63 0 0 0 2.572-3.863 5.29 5.29 0 0 0-.503-1.45 7.265 7.265 0 0 0-.958-1.19c-.405-.416-.96-.762-1.667-1.04 5.463.149 9.53 3.121 15.85 3.121 9.077 0 12.977-5.888 13.829-9.18-1.9 1.825-6.114 3.532-13.998 3.6-9.395.085-26.87-6.85-31.93 5.313C7.84 4.859 15.589 5.455 17.339 5.696h-.05c.436.347.455 1.134.05 2.36-.404 1.226-1.077 2.73-2.018 4.506-.942 1.78-3.65 5.668-4.929 7.843a1075.78 1075.78 0 0 0-3.835 6.582 153.711 153.711 0 0 0-3.533 6.45C1.945 35.53 1.139 37.384.6 39.007c-.538 1.626-.714 2.927-.529 3.912.185.984.9 1.479 2.145 1.479-.337 0-.404-.356-.202-1.065.202-.707.605-1.666 1.21-2.874a76.861 76.861 0 0 1 2.298-4.197A242.458 242.458 0 0 1 8.55 31.21a339.182 339.182 0 0 1 3.433-5.468 648.212 648.212 0 0 1 3.48-5.388" fill="#FEFEFE"/><path d="M63.33 56.68c-1.279 1.883-4.578 5.118-6.625 6.291-2.302 1.483-7.15 1.868-5.136-3 .58-1.397 2.279-2.95 4.413-4.018 2.835-1.132 5.951-1.924 9.292-2.438a43.39 43.39 0 0 1-1.945 3.166M24.106 33.644a40.896 40.896 0 0 1-2.676 4.353c-.94 1.331-1.883 2.434-2.825 3.318-.943.88-1.766 1.32-2.472 1.32-.707 0-.985-.587-.833-1.763.153-1.173.562-2.632 1.236-4.378.673-1.742 1.556-3.6 2.65-5.57a50.039 50.039 0 0 1 3.405-5.36c1.178-1.608 2.34-2.86 3.483-3.759 1.143-.897 2.12-1.138 2.926-.726.304.175.48.512.53 1.013.05.499-.01 1.096-.176 1.785 0 0-4.408 8.196-5.248 9.767M130.532 53.51c-12.284 2.658-21.638-1.973-37.102-3.053-8.74-.612-16.044-.535-22.053.164.083-.142.17-.274.253-.415 1.345-2.335 7.51-16.311 9.61-20.538a83.154 83.154 0 0 1 2.554-4.518 45.393 45.393 0 0 1 3.146-4.532c-.339-.448-.814-.858-1.423-1.234-.508-.307-1.182-.586-2.024-.84-.845-.253-1.067-.374-2.345-.364-.051.46-.075.696-.27 1.681-.195.985-.623 2.309-1.284 3.974 0 0-1.78 4.167-3.654 7.63-.752 1.388-2.15 3.504-3.017 4.65-.867 1.147-1.751 2.095-2.653 2.846-.903.748-1.708 1.125-2.414 1.131-.539.004-.702-.305-.487-.929.215-.623.63-1.446 1.243-2.47a108.043 108.043 0 0 1 2.22-3.516 85.721 85.721 0 0 0 2.493-4.035c.8-1.37 1.475-2.713 2.04-4.03.561-1.319.839-2.485.833-3.506-.01-1.017-.358-1.837-1.053-2.453-.694-.614-1.917-.917-3.666-.904.638-.005.883.681.836 1.354-.046.675-.941 3.575-2.257 6.425-1.138 2.46-3.79 6.505-4.436 7.925l-.04.089c-.03.058-.073.124-.098.178-.634 1.404-1.205 2.82-2.153 4.096-1.989 2.672-5.081 4.061-6.758 4.061-.522 0-1.07-.277-1.08-.803.022-.127.031-.24.072-.388.273-1.021.798-2.301 1.56-3.824.182-.35.364-.7.568-1.071l-.005.002a77.018 77.018 0 0 1 2.52-4.407 116.117 116.117 0 0 1 3.432-5.26c1.127-1.624 2.143-2.971 3.054-4.042.908-1.07 1.363-1.62 1.608-1.945-.014-.115-.003-.248-.221-.594a4.142 4.142 0 0 0-.858-.958 5.75 5.75 0 0 0-1.26-.778 4.511 4.511 0 0 0-1.641-.388c-.977-.034-2.053.354-3.23 1.166-1.178.811-2.397 1.874-3.66 3.186a49.874 49.874 0 0 0-3.758 4.431 86.274 86.274 0 0 0-3.433 4.845 70.242 70.242 0 0 1 2.398-3.887 142.534 142.534 0 0 1 2.294-3.368 44.017 44.017 0 0 1 1.87-2.486c.537-.656.925-1.053 1.16-1.192a3.482 3.482 0 0 0-.81-.934c-.268-.241-.62-.457-1.058-.647-.437-.19-.942-.301-1.513-.338-.707-.032-1.488.182-2.348.649-.858.467-1.758 1.114-2.699 1.943a34.493 34.493 0 0 0-2.9 2.902 68.142 68.142 0 0 0-2.954 3.523c.84-1.313 1.674-2.591 2.497-3.834.825-1.245 1.59-2.4 2.296-3.471-.301-.45-.756-.864-1.361-1.245-.505-.31-1.188-.596-2.045-.855-.857-.258-1.926-.388-3.204-.388.437.346.555.984.353 1.916-.203.934-.606 2.048-1.21 3.343a88.993 88.993 0 0 1-2.171 4.3c-.06.113-.118.226-.177.335H36.09c.606.174.908.657.908 1.454 0 .796-.21 1.726-.63 2.795-.067.173-.124.301-.174.417-.083.16-.157.314-.238.474-.143.25-.3.505-.65 1.28a1.28 1.28 0 0 0-.047.106 60.039 60.039 0 0 0-.727 1.568c-.402.828-.84 1.64-1.412 2.406-1.988 2.671-5.082 4.06-6.757 4.06-.568 0-1.198-.31-1.096-.93.099-.623.378-1.435.83-2.438a47.28 47.28 0 0 1 1.792-3.471c.74-1.31 1.515-2.64 2.322-3.987 1.917-3.18 4.256-6.79 7.013-10.831-.3-.45-.756-.862-1.361-1.242-.505-.312-1.178-.599-2.018-.856-.842-.261-1.902-.39-3.179-.39.538 0 .808.277.808.83 0 .555-.187 1.295-.557 2.228-.1-.933-.37-1.673-.808-2.227-1.075-1.246-2.244-1.84-3.506-1.79-1.262.054-2.531.563-3.81 1.529-1.279.968-2.532 2.274-3.76 3.911a37.29 37.29 0 0 0-3.305 5.312 41.833 41.833 0 0 0-2.447 5.777c-.657 1.953-1.077 3.715-1.262 5.286-.185 1.573-.091 2.86.277 3.863.37 1 1.11 1.499 2.22 1.499 1.246 0 2.49-.43 3.735-1.295 1.245-.863 2.454-1.969 3.633-3.315-.323 1.367-.54 2.372-.066 3.282.433.83 1.556 1.328 2.734 1.328 2.08 0 4.954-1.22 7.162-3.224a25.62 25.62 0 0 0 1.365-1.336c-.062.258-.156.538-.199.78-.202 1.14-.108 2.055.278 2.746.387.69 1.22 1.035 2.498 1.035-.303 0-.461-.188-.48-.568-.016-.381.093-.898.33-1.555.233-.656.578-1.443 1.033-2.358.455-.914.966-1.908 1.538-2.978a87.797 87.797 0 0 1 4.013-5.753 81.33 81.33 0 0 1 4.264-5.207c1.38-1.537 2.641-2.79 3.786-3.757 1.143-.968 2-1.45 2.573-1.45-3.265 4.422-5.82 8.36-7.67 11.813a45.153 45.153 0 0 0-1.995 4.354c-.553 1.415-.875 2.677-.958 3.782-.084 1.106.143 1.993.682 2.668.537.673 1.496 1.01 2.876 1.01-.169-.311-.254-.707-.254-1.192 0-.483.077-1.035.23-1.657.15-.623.368-1.304.655-2.048.285-.742.615-1.51.985-2.304a72.57 72.57 0 0 1 4.111-6.064 90.752 90.752 0 0 1 4.492-5.544c1.464-1.658 2.791-3.006 3.986-4.041 1.195-1.037 2.078-1.555 2.65-1.555-3.365 4.56-6.004 8.636-7.922 12.229a46.1 46.1 0 0 0-2.095 4.482c-.588 1.469-.925 2.773-1.01 3.913-.083 1.14.135 2.054.657 2.745.354.47.922.767 1.676.915.046.011.087.025.134.035l.01.002c.262.051.534.083.808.083 2.081 0 4.954-1.22 7.162-3.225a24.56 24.56 0 0 0 2.007-2.028c-.048.68.02 1.26.22 1.729.292.671.993 1.003 2.103.995.975-.008 1.958-.258 2.946-.75.857-.424 1.675-.989 2.467-1.65-.354.872-.713 1.745-1.07 2.601a177.914 177.914 0 0 1-3.56 7.98c-.212.45-.429.876-.647 1.307-2.959.603-5.504 1.405-7.665 2.39l-.003-.016c-5.575 2.286-8.323 4.685-8.77 7.728-.871 5.898 7.713 2.498 12.37-.726.058-.04.08-.062.11-.09 1.57-1.001 3.058-2.267 4.455-3.83 1.042-1.166 2.034-2.467 2.99-3.873 6.822-.528 14.39-.101 22.324.904 10.606 1.342 27.37 7.578 43.821-1.966l.2-.108s1.375-2.94-.302-5.724c-.263 4.333-2.548 6.379-5.388 7.413" fill="#FEFEFE"/></g></svg>