<svg width="80" height="80" viewBox="0 0 80 80" xmlns="http://www.w3.org/2000/svg" xmlns:xlink="http://www.w3.org/1999/xlink"><title>share-social-gplus</title><defs><path id="a" d="M34.201.927H0v34.776h34.201V.927z"/><path id="c" d="M15.317.53v14.94H.32V.53z"/></defs><g fill="none" fill-rule="evenodd"><circle fill="#DD4B39" cx="40" cy="40" r="40"/><g transform="translate(13 22.013)"><mask id="b" fill="#fff"><use xlink:href="#a"/></mask><path d="M.01 18.336C-.331 9.371 7.553 1.087 16.56.98c4.59-.39 9.054 1.388 12.532 4.283-1.426 1.56-2.877 3.106-4.424 4.548-3.062-1.85-6.742-3.263-10.32-2.008-5.764 1.633-9.257 8.416-7.12 14.035 1.764 5.872 8.93 9.09 14.548 6.624 2.906-1.034 4.822-3.707 5.666-6.58-3.334-.066-6.668-.026-9.999-.118-.01-1.974-.018-3.942-.01-5.917 5.558-.01 11.125-.025 16.692.023.338 4.84-.377 10.02-3.537 13.907-4.321 5.545-12.312 7.172-18.814 4.994C4.877 32.514-.14 25.594.011 18.336" fill="#FFF" mask="url(#b)"/></g><g transform="translate(52.61 32.348)"><mask id="d" fill="#fff"><use xlink:href="#c"/></mask><path d="M5.345.53h4.959c.008 1.655.02 3.313.033 4.965 1.658.015 3.323.025 4.98.033v4.947c-1.657.008-3.322.015-4.98.026-.019 1.658-.025 3.31-.033 4.97-1.658-.008-3.32 0-4.966 0-.018-1.66-.018-3.312-.033-4.963-1.658-.018-3.327-.025-4.985-.033V5.528c1.658-.012 3.316-.018 4.985-.033.007-1.652.021-3.31.04-4.966" fill="#FFF" mask="url(#d)"/></g></g></svg>