<svg width="40" height="40" viewBox="0 0 40 40" xmlns="http://www.w3.org/2000/svg"><title>share-social-tw</title><g fill="none" fill-rule="evenodd"><circle fill="#00ACED" cx="20" cy="20" r="20"/><path d="M30.694 14.845a8.235 8.235 0 0 1-2.32.622 3.987 3.987 0 0 0 1.778-2.18 8.178 8.178 0 0 1-2.572.955A4.082 4.082 0 0 0 24.635 13c-2.229 0-4.038 1.764-4.038 3.938 0 .31.037.609.103.896a11.57 11.57 0 0 1-8.33-4.114 3.844 3.844 0 0 0-.547 1.981c0 1.366.715 2.573 1.797 3.275a4.056 4.056 0 0 1-1.826-.492v.048c0 1.91 1.394 3.503 3.238 3.867a4.27 4.27 0 0 1-1.826.064c.517 1.565 2.006 2.7 3.774 2.736a8.253 8.253 0 0 1-5.018 1.682c-.325 0-.644-.018-.962-.053a11.647 11.647 0 0 0 6.195 1.769c7.428 0 11.491-6 11.491-11.202l-.012-.51a8.028 8.028 0 0 0 2.02-2.04z" fill="#FFF"/></g></svg>