<svg width="40" height="40" viewBox="0 0 40 40" xmlns="http://www.w3.org/2000/svg"><title>share-social-vk</title><g fill="none" fill-rule="evenodd"><circle fill="#45668E" cx="20" cy="20" r="20"/><path d="M27.863 20.864s3.15-4.444 3.463-5.904c.105-.522-.125-.814-.667-.814h-2.734c-.625 0-.855.271-1.043.668 0 0-1.478 3.148-3.275 5.132-.578.642-.871.835-1.19.835-.257 0-.375-.214-.375-.793v-5.07c0-.71-.084-.918-.668-.918h-4.381c-.334 0-.543.194-.543.459 0 .668 1.022.819 1.022 2.629v3.735c0 .75-.041 1.043-.396 1.043-.939 0-3.171-3.234-4.423-6.906-.25-.751-.522-.96-1.231-.96H8.689c-.397 0-.689.271-.689.668 0 .73.855 4.11 4.215 8.638C14.468 26.352 17.43 28 20.1 28c1.628 0 2.024-.271 2.024-.96v-2.337c0-.584.23-.834.563-.834.376 0 1.039.12 2.588 1.648C27.112 27.27 27.237 28 28.238 28h3.068c.312 0 .605-.146.605-.668 0-.688-.898-1.92-2.275-3.38-.563-.75-1.481-1.565-1.773-1.94-.417-.438-.292-.689 0-1.148" fill="#FFF"/></g></svg>