<?xml version="1.0" encoding="UTF-8"?>
<svg width="30px" height="34px" viewBox="0 0 30 34" version="1.1" xmlns="http://www.w3.org/2000/svg" xmlns:xlink="http://www.w3.org/1999/xlink">
    <!-- Generator: Sketch 43 (38999) - http://www.bohemiancoding.com/sketch -->
    <title>black-male-user-symbol</title>
    <desc>Created with Sketch.</desc>
    <defs></defs>
    <g id="Page-1" stroke="none" stroke-width="1" fill="none" fill-rule="evenodd">
        <g id="blog_topic" transform="translate(-315.000000, -4792.000000)" fill="#18181D">
            <g id="Group-2" transform="translate(300.000000, 4780.000000)">
                <path d="M45,38.5436525 L44.8784416,38.6887457 C40.9127273,43.4037587 35.6285714,46 30.0005195,46 C24.3745455,46 19.0872727,43.4037587 15.1174026,38.6887457 L15,38.5436525 L15.0280519,38.3635724 C15.7958442,33.4108536 18.4046753,29.4357127 22.3818182,27.1605286 L22.6623377,27 L22.8898701,27.2325607 C24.7683117,29.1825715 27.292987,30.2599653 30.0005195,30.2599653 C32.707013,30.2599653 35.2316883,29.1825715 37.1101299,27.2325607 L37.3335065,27 L37.6181818,27.1605286 C41.5911688,29.4357127 44.2041558,33.4108536 44.9719481,38.3635724 L45,38.5436525 Z M30.0004073,26 C33.8598359,26 37,22.8605666 37,19.0012216 C37,15.1394334 33.8598359,12 30.0004073,12 C26.1401641,12 23,15.1394334 23,18.9979641 C23,22.8573091 26.1401641,26 30.0004073,26 Z" id="black-male-user-symbol"></path>
            </g>
        </g>
    </g>
</svg>