<?xml version="1.0" encoding="UTF-8"?>
<svg width="72px" height="10px" viewBox="0 0 72 10" version="1.1" xmlns="http://www.w3.org/2000/svg" xmlns:xlink="http://www.w3.org/1999/xlink">
    <!-- Generator: Sketch 43 (38999) - http://www.bohemiancoding.com/sketch -->
    <title>Page 1</title>
    <desc>Created with Sketch.</desc>
    <defs>
        <polygon id="path-1" points="0 9.17933333 71.9619718 9.17933333 71.9619718 0.490982456 0 0.490982456"></polygon>
    </defs>
    <g id="Symbols" stroke="none" stroke-width="1" fill="none" fill-rule="evenodd">
        <g id="footer" transform="translate(-608.000000, -467.000000)">
            <g id="Page-1" transform="translate(608.000000, 467.000000)">
                <g id="Group-3" transform="translate(0.000000, 0.337228)" fill="#FEFEFE">
                    <path d="M0.910090141,7.88892632 L3.94879437,7.88892632 C5.22806197,7.88892632 5.96631549,7.29306667 5.96631549,6.25608421 C5.96631549,5.2426807 5.22806197,4.64682105 3.94879437,4.64682105 L0.910090141,4.64682105 L0.910090141,7.88892632 Z M0.910090141,3.87215439 L3.57966761,3.87215439 C4.67437183,3.87215439 5.3015831,3.39615439 5.3015831,2.52569825 C5.3015831,1.63215439 4.67437183,1.14338246 3.57966761,1.14338246 L0.910090141,1.14338246 L0.910090141,3.87215439 Z M-5.0704225e-05,8.68717193 L-5.0704225e-05,0.345136842 L3.7272169,0.345136842 C5.2524,0.345136842 6.20006197,1.11931228 6.20006197,2.3709614 C6.20006197,3.24092632 5.76907606,3.88443509 5.06783662,4.13447018 C6.20006197,4.31376842 6.93831549,5.13608421 6.93831549,6.36366316 C6.93831549,7.75727719 5.86744225,8.68717193 4.10901972,8.68717193 L-5.0704225e-05,8.68717193 Z" id="Fill-1"></path>
                </g>
                <path d="M12.3655944,7.42741754 L12.3655944,6.62917193 C11.7627211,6.24797895 11.1106648,6.05689123 10.4337634,6.05689123 C9.35173521,6.05689123 8.67534085,6.49752281 8.67534085,7.21275088 C8.67534085,7.98790877 9.37607324,8.39317193 10.2988901,8.39317193 C11.1476789,8.39317193 11.9346085,7.95155789 12.3655944,7.42741754 M8.44159437,8.66678596 C8.01060845,8.3209614 7.78953803,7.85675088 7.78953803,7.2604 C7.78953803,6.67682105 8.02328451,6.21162807 8.47810141,5.86629474 C8.94559437,5.52047018 9.52412958,5.35345263 10.224862,5.35345263 C11.0001296,5.35345263 11.713538,5.54454035 12.3655944,5.91394386 L12.3655944,5.34215439 C12.3655944,4.3764 11.713538,3.89941754 10.4099324,3.89941754 C9.70818592,3.89941754 9.06880563,4.09050526 8.46593239,4.48397895 L8.46593239,3.64987368 C9.04396056,3.30355789 9.7452,3.12524211 10.5939887,3.12524211 C12.181031,3.12524211 13.2508901,3.86404912 13.2508901,5.25864561 L13.2508901,7.63029474 C13.2508901,8.07141754 13.4729746,8.34503158 13.8167493,8.34503158 C13.9526366,8.34503158 14.0631718,8.3209614 14.161538,8.27380351 L14.161538,8.94089123 C14.0383268,9.0244 13.8415944,9.07254035 13.5708338,9.07254035 C12.9928056,9.07254035 12.5496507,8.77436491 12.4517915,8.15443509 C11.8484113,8.83380351 11.0488056,9.16734737 10.0524676,9.16734737 C9.42525634,9.16734737 8.88424225,9.00082105 8.44159437,8.66678596" id="Fill-4" fill="#FEFEFE"></path>
                <path d="M15.5905352,8.30961404 C14.987662,7.72554386 14.6925634,7.01031579 14.6925634,6.14035088 C14.6925634,5.28217544 14.999831,4.5674386 15.6021972,3.99515789 C16.2055775,3.41108772 16.968169,3.12519298 17.8661408,3.12519298 C18.5552113,3.12519298 19.1575775,3.26814035 19.6620845,3.54224561 L19.6620845,4.34098246 C19.1210704,4.04280702 18.5673803,3.89936842 17.9888451,3.89936842 C17.3124507,3.89936842 16.7344225,4.11452632 16.2790986,4.54336842 C15.8242817,4.96091228 15.6021972,5.49635088 15.6021972,6.15214035 C15.6021972,6.79564912 15.8242817,7.33207018 16.2790986,7.76140351 C16.7344225,8.17796491 17.3124507,8.39312281 17.9888451,8.39312281 C18.6535775,8.39312281 19.2437746,8.22610526 19.7726197,7.89207018 L19.7726197,8.67901754 C19.2189296,9.00077193 18.5800563,9.16729825 17.8539718,9.16729825 C16.955493,9.16729825 16.1929014,8.88140351 15.5905352,8.30961404" id="Fill-6" fill="#FEFEFE"></path>
                <polygon id="Fill-8" fill="#FEFEFE" points="22.0380338 0.682119298 22.0380338 5.64008421 24.8673296 3.26843509 26.072569 3.26843509 22.9360056 5.86654035 26.5157239 9.02415439 25.2486254 9.02415439 22.0380338 6.18780351 22.0380338 9.02415439 21.152231 9.02415439 21.152231 0.682119298"></polygon>
                <mask id="mask-2" fill="white">
                    <use xlink:href="#path-1"></use>
                </mask>
                <g id="Clip-11"></g>
                <path d="M27.4892958,9.02410526 L29.2238873,9.02410526 L29.2238873,3.07729825 L27.4892958,3.07729825 L27.4892958,9.02410526 Z M28.3502535,0.490982456 C28.9287887,0.490982456 29.3836056,0.932105263 29.3836056,1.50438596 C29.3836056,2.06438596 28.9287887,2.50550877 28.3502535,2.50550877 C27.7717183,2.50550877 27.3169014,2.06438596 27.3169014,1.50438596 C27.3169014,0.932105263 27.7717183,0.490982456 28.3502535,0.490982456 L28.3502535,0.490982456 Z" id="Fill-10" fill="#FEFEFE" mask="url(#mask-2)"></path>
                <path d="M32.2996563,9.0244 L30.5650648,9.0244 L30.5650648,3.07759298 L32.2996563,3.07759298 L32.2996563,3.79282105 C32.8533465,3.20825965 33.5302479,2.92236491 34.3541915,2.92236491 C35.7810085,2.92236491 36.5932901,3.85225965 36.5932901,5.37752281 L36.5932901,9.0244 L34.8586986,9.0244 L34.8586986,5.72334737 C34.8586986,4.80573333 34.3298535,4.45990877 33.6899662,4.45990877 C33.1489521,4.45990877 32.595262,4.79394386 32.2996563,5.23457544 L32.2996563,9.0244 Z" id="Fill-12" fill="#FEFEFE" mask="url(#mask-2)"></path>
                <path d="M40.5564338,6.96256842 L41.9462366,6.96256842 C42.4264056,6.96256842 42.7336732,6.70074386 42.7336732,6.2832 C42.7336732,5.8666386 42.4015606,5.58025263 41.9462366,5.58025263 L40.5564338,5.58025263 L40.5564338,6.96256842 Z M40.5564338,3.79267368 L41.8975606,3.79267368 C42.2540113,3.79267368 42.5247718,3.55442807 42.5247718,3.25625263 C42.5247718,2.91042807 42.2540113,2.67267368 41.8975606,2.67267368 L40.5564338,2.67267368 L40.5564338,3.79267368 Z M37.9111944,9.02425263 L37.9111944,0.682217544 L42.2783493,0.682217544 C43.078462,0.682217544 43.7305183,0.860533333 44.2466873,1.22993684 C44.7633634,1.58804211 45.0219549,2.11218246 45.0219549,2.81562105 C45.0219549,3.20811228 44.9109127,3.55442807 44.6771662,3.82804211 C44.4434197,4.1026386 44.2218423,4.29274386 43.9886028,4.40032281 C44.3577296,4.47204211 44.7268563,4.71028772 45.083307,5.11505965 C45.4402648,5.50853333 45.6243211,6.00958596 45.6243211,6.60495439 C45.6243211,7.33197193 45.3292225,7.91604211 44.7506873,8.35716491 C44.1731662,8.79779649 43.4105746,9.02425263 42.4634197,9.02425263 L37.9111944,9.02425263 Z" id="Fill-13" fill="#FEFEFE" mask="url(#mask-2)"></path>
                <path d="M46.5127099,7.30844211 L46.5127099,0.682266667 L49.0960901,0.682266667 L49.0960901,6.74795088 C49.0960901,6.98668772 49.2684845,7.08198596 49.4282028,7.08198596 C49.5514141,7.08198596 49.6497803,7.05791579 49.7354704,7.02205614 L49.7354704,8.94079298 C49.4033577,9.09602105 48.9733859,9.17952982 48.4196958,9.17952982 C47.1525972,9.17952982 46.5127099,8.5596 46.5127099,7.30844211" id="Fill-14" fill="#FEFEFE" mask="url(#mask-2)"></path>
                <path d="M54.399093,6.6052 C54.2266986,6.46225263 54.0177972,6.39053333 53.7592056,6.39053333 C53.3292338,6.39053333 52.9966141,6.59341053 52.9966141,6.98639298 C52.9966141,7.36807719 53.3043887,7.59453333 53.6978535,7.59453333 C54.0299662,7.59453333 54.2637127,7.47516491 54.399093,7.2492 L54.399093,6.6052 Z M57.5853465,7.08218246 L57.5853465,8.80983158 C57.2775718,9.06035789 56.847093,9.17923509 56.3060789,9.17923509 C55.5551493,9.17923509 54.8665859,8.80983158 54.6576845,8.3692 C54.3250648,8.83390175 53.6243324,9.17923509 52.7755437,9.17923509 C52.0743042,9.17923509 51.5206141,8.98912982 51.1144732,8.60744561 C50.7088394,8.21397193 50.499938,7.7252 50.499938,7.14162105 C50.499938,6.48632281 50.7453465,5.99755088 51.2376845,5.67530526 C51.7421915,5.35355088 52.3080507,5.18702456 52.935262,5.18702456 C53.4889521,5.18702456 53.9564451,5.29411228 54.3625859,5.52056842 C54.3625859,4.9129193 53.9442761,4.60295439 53.0954873,4.60295439 C52.4185859,4.60295439 51.8035437,4.73362105 51.2746986,4.99642807 L51.2746986,3.12534035 C51.963262,2.85074386 52.7755437,2.72007719 53.6978535,2.72007719 C54.6576845,2.72007719 55.4324451,2.95832281 56.0226423,3.42302456 C56.6133465,3.88821754 56.9084451,4.49586667 56.9084451,5.25874386 L56.9084451,6.90288421 C56.9084451,7.09397193 57.0194873,7.18877895 57.2283887,7.18877895 C57.363769,7.18877895 57.4743042,7.15341053 57.5853465,7.08218246 L57.5853465,7.08218246 Z" id="Fill-15" fill="#FEFEFE" mask="url(#mask-2)"></path>
                <path d="M59.8428507,8.84593684 C59.3261746,8.6194807 58.8835268,8.24958596 58.526569,7.73723509 C58.1701183,7.22488421 57.9855549,6.62902456 57.9855549,5.93786667 C57.9855549,5.23442807 58.1701183,4.63905965 58.526569,4.13800702 C59.2526535,3.13688421 60.3351887,2.71983158 61.5282592,2.71983158 C62.2294986,2.71983158 62.8567099,2.83870877 63.398231,3.06516491 L63.398231,5.12734035 C62.894231,4.94853333 62.401893,4.85323509 61.946569,4.85323509 C61.1469634,4.85323509 60.5075831,5.24670877 60.5075831,5.94965614 C60.5075831,6.66488421 61.1469634,7.05786667 61.9957521,7.05786667 C62.5245972,7.05786667 63.0169352,6.95077895 63.4717521,6.74790175 L63.4717521,8.78600702 C62.8445408,9.04832281 62.1929915,9.1794807 61.5034141,9.1794807 C60.925893,9.1794807 60.3722028,9.07239298 59.8428507,8.84593684" id="Fill-16" fill="#FEFEFE" mask="url(#mask-2)"></path>
                <polygon id="Fill-17" fill="#FEFEFE" mask="url(#mask-2)" points="64.3839718 9.0244 64.3839718 0.682364912 66.9673521 0.682364912 66.9673521 5.04348772 68.6035775 2.87471579 71.5682535 2.87471579 69.2799718 5.6398386 71.9617183 9.0244 68.8003099 9.0244 66.9673521 6.53387368 66.9673521 9.0244"></polygon>
            </g>
        </g>
    </g>
</svg>