<?xml version="1.0" encoding="UTF-8"?>
<svg width="25px" height="30px" viewBox="0 0 25 30" version="1.1" xmlns="http://www.w3.org/2000/svg" xmlns:xlink="http://www.w3.org/1999/xlink">
    <!-- Generator: Sketch 43 (38999) - http://www.bohemiancoding.com/sketch -->
    <title>Fill 1</title>
    <desc>Created with Sketch.</desc>
    <defs></defs>
    <g id="Page-1" stroke="none" stroke-width="1" fill="none" fill-rule="evenodd">
        <g id="mobile_main-copy" transform="translate(-148.000000, -460.000000)" fill="#FFFFFF">
            <path d="M166.802852,462.5 L159.976159,462.5 C158.145456,462.5 156.65651,463.97574 156.65651,465.789474 C156.65651,466.257237 156.756017,466.702138 156.934282,467.105263 L148.819649,467.105263 C146.989278,467.105263 145.5,468.581003 145.5,470.394737 C145.5,472.20847 146.989278,473.684211 148.819649,473.684211 L151.335943,473.684211 C151.157678,474.087336 151.058171,474.532237 151.058171,475 C151.058171,476.541612 152.134153,477.838158 153.580607,478.193092 C153.374456,478.62097 153.258352,479.099918 153.258352,479.605263 C153.258352,481.213405 154.429026,482.55551 155.969841,482.839474 C155.775642,483.257072 155.667421,483.721628 155.667421,484.210526 C155.667421,486.02426 157.156698,487.5 158.98707,487.5 L166.802852,487.5 C171.5985,487.5 175.5,483.633882 175.5,478.881497 L175.5,471.118503 C175.5,466.366118 171.5985,462.5 166.802852,462.5 Z M173.508211,478.881497 C173.508211,482.545559 170.500111,485.526316 166.802852,485.526316 L158.987402,485.526316 C158.255004,485.526316 157.659542,484.936184 157.659542,484.210526 C157.659542,483.484868 158.255004,482.894737 158.987402,482.894737 L158.987402,480.921053 L156.578333,480.921053 C155.846018,480.921053 155.250473,480.330921 155.250473,479.605263 C155.250473,478.879605 155.846018,478.289474 156.578333,478.289474 L158.987402,478.289474 L158.987402,476.315789 L154.37782,476.315789 C153.645423,476.315789 153.049961,475.725658 153.049961,475 C153.049961,474.274342 153.645423,473.684211 154.37782,473.684211 L158.987402,473.684211 L158.987402,471.710526 L148.819649,471.710526 C148.087334,471.710526 147.491789,471.120395 147.491789,470.394737 C147.491789,469.669079 148.087334,469.078947 148.819649,469.078947 L165.287598,469.078947 L165.287598,467.105263 L159.976159,467.105263 C159.243762,467.105263 158.6483,466.515132 158.6483,465.789474 C158.6483,465.063816 159.243762,464.473684 159.976159,464.473684 L166.802852,464.473684 C170.500111,464.473684 173.508211,467.454441 173.508211,471.118503 L173.508211,478.881497 Z" id="Fill-1" transform="translate(160.500000, 475.000000) rotate(90.000000) translate(-160.500000, -475.000000) "></path>
        </g>
    </g>
</svg>