<?xml version="1.0" encoding="UTF-8"?>
<svg width="45px" height="40px" viewBox="0 0 45 40" version="1.1" xmlns="http://www.w3.org/2000/svg" xmlns:xlink="http://www.w3.org/1999/xlink">
    <!-- Generator: Sketch 43 (38999) - http://www.bohemiancoding.com/sketch -->
    <title>ico-shield</title>
    <desc>Created with Sketch.</desc>
    <defs></defs>
    <g id="Symbols" stroke="none" stroke-width="1" fill="none" fill-rule="evenodd">
        <g id="Goods" transform="translate(-99.000000, -222.000000)" fill="#FFFFFF">
            <g id="ico-shield" transform="translate(99.000000, 222.000000)">
                <path d="M42.75,33.3362256 C42.75,35.7899349 40.735459,37.7787419 38.25,37.7787419 L6.75,37.7787419 C4.26454102,37.7787419 2.25,35.7899349 2.25,33.3362256 L2.25,13.3449024 C2.25,10.8911931 4.26454102,8.90238612 6.75,8.90238612 L38.25,8.90238612 C40.735459,8.90238612 42.75,10.8911931 42.75,13.3449024 L42.75,33.3362256 Z M16.875,4.45986985 C16.875,3.23522777 17.8845117,2.23861171 19.125,2.23861171 L25.875,2.23861171 C27.1154883,2.23861171 28.125,3.23522777 28.125,4.45986985 L28.125,6.68112798 L16.875,6.68112798 L16.875,4.45986985 Z M38.25,6.68112798 L30.375,6.68112798 L30.375,4.45986985 C30.375,2.00616052 28.360459,0.0173535792 25.875,0.0173535792 L19.125,0.0173535792 C16.639541,0.0173535792 14.625,2.00616052 14.625,4.45986985 L14.625,6.68112798 L6.75,6.68112798 C3.02774414,6.68112798 0,9.67019523 0,13.3449024 L0,33.3362256 C0,37.0109328 3.02774414,40 6.75,40 L38.25,40 C41.9722559,40 45,37.0109328 45,33.3362256 L45,13.3449024 C45,9.67019523 41.9722559,6.68112798 38.25,6.68112798 L38.25,6.68112798 Z" id="Fill-1"></path>
                <path d="M30.375,25.5618221 L24.75,25.5618221 L24.75,31.1149675 L20.25,31.1149675 L20.25,25.5618221 L14.625,25.5618221 L14.625,21.1193059 L20.25,21.1193059 L20.25,15.5661605 L24.75,15.5661605 L24.75,21.1193059 L30.375,21.1193059 L30.375,25.5618221 Z M30.375,18.8980477 L27,18.8980477 L27,15.5661605 C27,14.3392625 25.9927734,13.3449024 24.75,13.3449024 L20.25,13.3449024 C19.0072266,13.3449024 18,14.3392625 18,15.5661605 L18,18.8980477 L14.625,18.8980477 C13.3822266,18.8980477 12.375,19.8924078 12.375,21.1193059 L12.375,25.5618221 C12.375,26.7887202 13.3822266,27.7830803 14.625,27.7830803 L18,27.7830803 L18,31.1149675 C18,32.3418655 19.0072266,33.3362256 20.25,33.3362256 L24.75,33.3362256 C25.9927734,33.3362256 27,32.3418655 27,31.1149675 L27,27.7830803 L30.375,27.7830803 C31.6177734,27.7830803 32.625,26.7887202 32.625,25.5618221 L32.625,21.1193059 C32.625,19.8924078 31.6177734,18.8980477 30.375,18.8980477 L30.375,18.8980477 Z" id="Fill-4"></path>
            </g>
        </g>
    </g>
</svg>