<?xml version="1.0" encoding="UTF-8"?>
<svg width="91px" height="54px" viewBox="0 0 91 54" version="1.1" xmlns="http://www.w3.org/2000/svg" xmlns:xlink="http://www.w3.org/1999/xlink">
    <!-- Generator: Sketch 43 (38999) - http://www.bohemiancoding.com/sketch -->
    <title>ico-team</title>
    <desc>Created with Sketch.</desc>
    <defs></defs>
    <g id="Page-1" stroke="none" stroke-width="1" fill="none" fill-rule="evenodd" opacity="0.6">
        <g id="main" transform="translate(-1055.000000, -3014.000000)" fill="#FFFFFF">
            <g id="ico-team" transform="translate(1055.000000, 3014.000000)">
                <path d="M66.6150215,9.67819934 C67.1837715,9.06572093 67.9551387,8.72826578 68.7865801,8.72826578 L71.9639375,8.72826578 L71.3681719,10.332299 C71.0949941,10.7293156 69.7136426,12.4445781 65.8903984,13.0619003 L65.8171719,11.9273621 C65.7629629,11.0897342 66.0464492,10.2908571 66.6150215,9.67819934 Z M76.1709102,11.7341462 C75.6101582,11.556 75.3302266,11.4291628 75.206168,11.3643987 C75.0872637,11.3023256 74.9939531,11.2468904 74.918416,11.1977342 L75.4473535,9.774 C75.9183496,10.3245847 76.1728652,11.0091827 76.1709102,11.7341462 Z M73.1735977,25.7495681 C71.8066426,26.5084385 70.1748633,26.5084385 68.8077305,25.7495681 C67.4453965,24.9933887 66.5716543,23.6067907 66.4703457,22.0406113 L66.1267852,16.7236744 C69.3380898,16.2640465 71.426291,15.1531894 72.7262402,14.1176811 C72.9708027,14.293495 73.2427363,14.4598007 73.5418633,14.615701 C74.0923066,14.9027442 74.8823359,15.1869169 75.9348789,15.476113 L75.510627,22.0406113 C75.4096738,23.6067907 74.5361094,24.9933887 73.1735977,25.7495681 Z M62.395252,15.1976811 L62.395252,15.1976811 L62.8525625,22.2788571 C63.034918,25.0983389 64.6080449,27.5943588 67.0604238,28.9560199 C68.2912344,29.6391827 69.6405938,29.9807641 70.9906641,29.9807641 C72.3403789,29.9807641 73.690627,29.6390033 74.9209043,28.9560199 C77.3736387,27.5945382 78.9467656,25.0983389 79.1287656,22.2788571 L79.7821172,12.165608 C79.9004883,10.3342724 79.255668,8.51567442 78.012416,7.17625914 C76.7691641,5.83666445 75.0131484,5.06864452 73.1949258,5.06864452 L68.7867578,5.06864452 C66.9685352,5.06864452 65.2125195,5.83666445 63.9694453,7.17625914 C62.7263711,8.51567442 62.0811953,10.3342724 62.1995664,12.165608 L62.395252,15.1976811 L62.395252,15.1976811 Z" id="Fill-1"></path>
                <path d="M70.1211875,44.0250698 C68.7936895,40.1557276 66.0251211,36.9433555 62.4752324,35.0538937 C62.9161914,34.9844651 63.3635488,34.9475083 63.8089512,34.9475083 L65.2564199,34.9475083 L69.7088438,39.4417076 C70.0490273,39.7847243 70.5098926,39.9775814 70.9906641,39.9775814 C71.4714355,39.9775814 71.9324785,39.7847243 72.2724844,39.4417076 L76.7247305,34.9475083 L78.1725547,34.9475083 C78.7093125,34.9475083 79.2489141,34.9984585 79.7767852,35.0987442 C83.2678438,35.7621728 86.0394336,38.5812957 86.6734121,42.1131827 L87.0164395,44.0250698 L70.1211875,44.0250698 Z M23.1813613,50.3409169 L23.7757051,47.0291561 C24.6178105,42.336897 28.1232656,38.5333953 32.6350527,37.3035947 L44.188498,48.9652625 C44.8965918,49.68 46.0442227,49.6798206 46.7523164,48.9652625 L58.305584,37.3035947 C62.8173711,38.5335748 66.3226484,42.3370764 67.1649316,47.0291561 L67.7592754,50.3409169 L23.1813613,50.3409169 Z M4.32641016,42.1131827 C4.96021094,38.5811163 7.73180078,35.7621728 11.2228594,35.0987442 C11.7505527,34.9984585 12.290332,34.9475083 12.8270898,34.9475083 L14.2747363,34.9475083 L18.7269824,39.4417076 C19.4348984,40.155907 20.582707,40.155907 21.2908008,39.4417076 L25.7430469,34.9475083 L27.1908711,34.9475083 C27.621166,34.9475083 28.0532383,34.9817741 28.4798008,35.0465382 C24.9229805,36.935103 22.1487246,40.1508837 20.8194492,44.0252492 L3.98338281,44.0252492 L4.32641016,42.1131827 Z M44.2000508,42.0760465 C44.9106328,42.7803787 46.0511543,42.7740997 46.7542715,42.062412 L51.8719551,36.8794884 L53.5982891,36.8794884 L45.4701406,45.0839003 L37.3419922,36.8794884 L38.9575977,36.8794884 L44.2000508,42.0760465 Z M90.9708516,45.5284585 L90.2408965,41.4608771 C89.3410273,36.4467708 85.4052773,32.4446711 80.4479102,31.5022724 C79.6994707,31.3600066 78.9339688,31.287887 78.1727324,31.287887 L75.9739805,31.287887 C75.493209,31.287887 75.032166,31.4807442 74.6921602,31.8237608 L70.9908418,35.5598073 L67.2895234,31.8235814 C66.9493398,31.4805648 66.4884746,31.2877076 66.0077031,31.2877076 L63.8091289,31.2877076 C63.0477148,31.2877076 62.2822129,31.3598272 61.5339512,31.502093 C59.9220781,31.8085116 58.416668,32.4296013 57.0506016,33.3422193 C56.4111133,33.2632824 55.7668262,33.2195083 55.1243164,33.2195083 L51.1194277,33.2195083 C50.6375898,33.2195083 50.1756582,33.4130831 49.8354746,33.7575349 L45.4566328,38.1921728 L40.9691953,33.7435415 C40.6302559,33.407701 40.1741895,33.2193289 39.6991055,33.2193289 L35.816498,33.2193289 C35.1919395,33.2193289 34.5656035,33.261309 33.9431777,33.3357608 C32.5774668,32.4254751 31.0725898,31.8070764 29.4658711,31.5019136 C28.7176094,31.3596478 27.9521074,31.2875282 27.1906934,31.2875282 L24.9922969,31.2875282 C24.5115254,31.2875282 24.0503047,31.4803854 23.7104766,31.823402 L20.0091582,35.5596279 L16.3078398,31.823402 C15.9680117,31.4803854 15.506791,31.2875282 15.0260195,31.2875282 L12.8272676,31.2875282 C12.0658535,31.2875282 11.3003516,31.3596478 10.5520898,31.5019136 C5.59436719,32.4441329 1.65879492,36.4460532 0.759103516,41.4603389 L0.0289707031,45.5279203 C-0.0666503906,46.0616412 0.0769589844,46.6106113 0.421408203,47.0270033 C0.765857422,47.4433953 1.27542188,47.6839734 1.81271289,47.6839734 L19.9737891,47.6839734 L19.2273047,51.8441262 C19.1316836,52.3778472 19.275293,52.9268173 19.6197422,53.3430299 C19.9641914,53.7592425 20.4737559,54 21.0110469,54 L69.930123,54 C70.4674141,54 70.9769785,53.7592425 71.3216055,53.3430299 C71.665877,52.9268173 71.8094863,52.3776678 71.7138652,51.8441262 L70.9672031,47.6841528 L89.1871094,47.6841528 C89.7244004,47.6841528 90.2339648,47.4435748 90.5785918,47.0271827 C90.9228633,46.6113289 91.0664727,46.0621794 90.9708516,45.5284585 L90.9708516,45.5284585 Z" id="Fill-3"></path>
                <path d="M15.6333379,9.67819934 C16.2020879,9.06554153 16.9732773,8.72826578 17.8048965,8.72826578 L20.9820762,8.72826578 L20.3818672,10.3439601 C20.1527676,10.672804 18.7566641,12.4318405 14.9085371,13.0602857 L14.8353105,11.9275415 C14.7811016,11.0897342 15.0647656,10.2908571 15.6333379,9.67819934 Z M25.1890488,11.7341462 C24.6284746,11.556 24.348543,11.4291628 24.2243066,11.3643987 C24.1054023,11.3023256 24.0122695,11.246711 23.9367324,11.1977342 L24.4656699,9.774 C24.9364883,10.3245847 25.1910039,11.0093621 25.1890488,11.7341462 Z M22.1919141,25.7495681 C20.824959,26.5084385 19.1928242,26.5084385 17.8258691,25.7495681 C16.4635352,24.9933887 15.589793,23.6067907 15.4886621,22.0406113 L15.1451016,16.723495 C18.3564062,16.2638671 20.4447852,15.15301 21.7447344,14.1175017 C21.9891191,14.2933156 22.2610527,14.4594419 22.5601797,14.6155216 C23.1108008,14.9025648 23.9010078,15.1867375 24.9531953,15.4759336 L24.5291211,22.0404319 C24.428168,23.6067907 23.5544258,24.9933887 22.1919141,25.7495681 Z M11.4133906,15.1978605 L11.8708789,22.2788571 C12.0530566,25.0983389 13.6261836,27.5943588 16.0785625,28.9560199 C17.3090176,29.6390033 18.6589102,29.9807641 20.0088027,29.9807641 C21.3586953,29.9807641 22.7085879,29.6390033 23.939043,28.9560199 C26.3915996,27.5943588 27.9647266,25.0981595 28.1467266,22.2788571 L28.8002559,12.165608 C28.918627,10.3342724 28.2734512,8.51567442 27.030377,7.17625914 C25.787125,5.83684385 24.0312871,5.06864452 22.2128867,5.06864452 L17.8048965,5.06864452 C15.9866738,5.06864452 14.2308359,5.83666445 12.987584,7.17607973 C11.7445098,8.51549502 11.099334,10.334093 11.2175273,12.165608 L11.4133906,15.1978605 L11.4133906,15.1978605 Z" id="Fill-5"></path>
                <path d="M39.1330215,5.28590033 C40.0168945,4.33399336 41.215002,3.80960133 42.5074863,3.80960133 L47.6788457,3.80960133 L46.5354805,6.88724252 C46.1981406,7.41001993 44.1342891,10.1961329 38.0356895,10.9853223 L37.8933242,8.78100997 C37.8090781,7.4789103 38.2495039,6.23780731 39.1330215,5.28590033 Z M53.0473125,8.78083056 L53.0131875,9.31024585 C51.7478965,8.95305648 51.1338242,8.69041196 50.8501602,8.54258472 C50.3834297,8.29913621 50.1328242,8.1 50.0036113,7.9744186 L51.204918,4.74069767 C51.418377,4.90287708 51.6204609,5.08425249 51.8074375,5.28590033 C52.6909551,6.23780731 53.1313809,7.4789103 53.0473125,8.78083056 Z M48.7052617,27.8711761 C46.679623,28.9956678 44.2608359,28.9956678 42.2351973,27.8711761 C40.2164902,26.7504518 38.9215176,24.6957608 38.7716875,22.3750166 L38.2718984,14.6404585 C43.0988086,14.0509435 46.0639512,12.3304784 47.7721563,10.8647641 C48.1665488,11.1979136 48.6380781,11.5080997 49.1858555,11.7937076 C49.9710859,12.203103 51.1531973,12.6119601 52.7725352,13.0339136 L52.1689492,22.375196 C52.0191191,24.6957608 50.7241465,26.7504518 48.7052617,27.8711761 Z M34.5387656,13.0949103 L35.1537266,22.6134419 C35.3847813,26.1874884 37.3787832,29.3517807 40.4878906,31.0778073 C42.048043,31.9437807 43.7587363,32.3766777 45.4703184,32.3766777 C47.1811895,32.3766777 48.8929492,31.9436013 50.4523906,31.0778073 C53.5616758,29.3516013 55.5556777,26.187309 55.7867324,22.6134419 L56.4894941,11.7366578 L56.4894941,11.7364784 L56.664918,9.01907641 C56.812793,6.73026578 56.0067676,4.45778073 54.4531914,2.78396013 C52.8996152,1.11031894 50.7053066,0.150159468 48.4329727,0.150159468 L42.5074863,0.150159468 C40.2353301,0.150159468 38.0408438,1.11031894 36.4874453,2.78396013 C34.9338691,4.45760133 34.1274883,6.73026578 34.275541,9.01907641 L34.5387656,13.0949103 L34.5387656,13.0949103 Z" id="Fill-6"></path>
                <path d="M32.085498,45.3449302 L27.3723379,45.3449302 C26.3711602,45.3449302 25.559625,46.1640797 25.559625,47.1748306 C25.559625,48.185402 26.3711602,49.0045515 27.3723379,49.0045515 L32.085498,49.0045515 C33.0866758,49.0045515 33.8982109,48.185402 33.8982109,47.1748306 C33.8982109,46.1640797 33.0866758,45.3449302 32.085498,45.3449302" id="Fill-7"></path>
                <path d="M37.5238145,45.3449302 L37.1612363,45.3449302 C36.1600586,45.3449302 35.3485234,46.1640797 35.3485234,47.1748306 C35.3485234,48.185402 36.1600586,49.0045515 37.1612363,49.0045515 L37.5238145,49.0045515 C38.5249922,49.0045515 39.3365273,48.185402 39.3365273,47.1748306 C39.3365273,46.1640797 38.5249922,45.3449302 37.5238145,45.3449302" id="Fill-8"></path>
            </g>
        </g>
    </g>
</svg>