<?xml version="1.0" encoding="UTF-8"?>
<svg width="13px" height="19px" viewBox="0 0 13 19" version="1.1" xmlns="http://www.w3.org/2000/svg" xmlns:xlink="http://www.w3.org/1999/xlink">
    <!-- Generator: Sketch 43 (38999) - http://www.bohemiancoding.com/sketch -->
    <title>ico-location</title>
    <desc>Created with Sketch.</desc>
    <defs></defs>
    <g id="Page-1" stroke="none" stroke-width="1" fill="none" fill-rule="evenodd">
        <g id="main" transform="translate(-242.000000, -16.000000)" fill="#FFFFFF">
            <g id="Group-9" transform="translate(241.000000, 12.000000)">
                <path d="M11.9832056,5.89704444 C10.7679152,4.67471111 9.15256041,4 7.43446363,4 C5.71427009,4 4.0993346,4.67471111 2.88362493,5.89704444 C0.636302345,8.16142222 0.356173312,12.4199556 2.2793346,15.001 L7.43446363,22.4954444 L12.5795282,15.0111333 C14.5110765,12.4199556 14.2309475,8.16142222 11.9832056,5.89704444 L11.9832056,5.89704444 Z M7.49317331,12.7826444 C6.19778622,12.7826444 5.14436686,11.7220222 5.14436686,10.4177778 C5.14436686,9.1148 6.19778622,8.05417778 7.49317331,8.05417778 C8.78730234,8.05417778 9.8407217,9.1148 9.8407217,10.4177778 C9.8407217,11.7220222 8.78730234,12.7826444 7.49317331,12.7826444 L7.49317331,12.7826444 Z" id="ico-location"></path>
            </g>
        </g>
    </g>
</svg>