<?xml version="1.0" encoding="UTF-8"?>
<svg width="33px" height="57px" viewBox="0 0 33 57" version="1.1" xmlns="http://www.w3.org/2000/svg" xmlns:xlink="http://www.w3.org/1999/xlink">
    <!-- Generator: Sketch 43 (38999) - http://www.bohemiancoding.com/sketch -->
    <title>ico-service-pircing</title>
    <desc>Created with Sketch.</desc>
    <defs></defs>
    <g id="Page-1" stroke="none" stroke-width="1" fill-rule="evenodd" >
        <g id="main" transform="translate(-1044.000000, -1122.000000)" >
            <g id="ico-service-pircing" transform="translate(1044.000000, 1122.000000)">
                <path d="M32.9390664,15.5650219 C32.8501992,13.0654818 32.1719876,10.5755109 30.9786473,8.36471533 C28.4877635,3.75229197 24.1177967,0.764576642 18.9882822,0.168642336 C18.342112,0.0933357664 17.682112,0.0554744526 17.0278631,0.0554744526 C7.63860996,0.0554744526 0,7.79208029 0,17.3017883 L0,45.3560511 C0,51.7003869 5.09582988,56.8615912 11.3592573,56.8615912 C14.4037469,56.8615912 16.9065436,55.5168905 18.7978133,52.8661825 C20.3870166,50.6390219 21.362639,47.7970657 22.179834,45.0580146 C23.7031743,39.9536715 25.743834,34.7448978 28.2448506,29.5750949 L31.3135768,23.2328394 C32.4865145,20.8080511 33.0336846,18.2282117 32.9390664,15.5650219 Z M29.3071494,22.2365182 L26.2385602,28.5793285 C23.6840041,33.858 21.5989793,39.1822993 20.0408589,44.4031387 C18.1624606,50.6969927 16.0549793,54.5980949 11.3592573,54.5980949 C6.3276473,54.5980949 2.2346888,50.4522117 2.2346888,45.3566058 L2.2346888,17.3017883 C2.2346888,9.04025547 8.87042739,2.31883212 17.0278631,2.31883212 C17.5976266,2.31883212 18.1714979,2.3519781 18.7335934,2.41688321 C23.1320415,2.92780292 26.8804855,5.49183212 29.0183651,9.45035036 C31.1884232,13.4701679 31.293722,18.1301606 29.3071494,22.2365182 Z" id="Fill-1"></path>
                <path d="M19.8146515,31.4554015 C19.227361,31.2626277 18.5977593,31.5886788 18.4074274,32.1829489 C18.2935021,32.5404818 18.181083,32.9018978 18.0752365,33.2583212 C17.8965436,33.8564745 18.2309253,34.4880511 18.8213651,34.6684818 C18.9288548,34.7020438 19.0379876,34.717854 19.1449295,34.717854 C19.6247303,34.717854 20.0682448,34.401927 20.2142116,33.912781 C20.3158133,33.5709197 20.4233029,33.2236496 20.5329834,32.8806788 C20.7234523,32.2864088 20.4013942,31.6483139 19.8146515,31.4554015 Z" id="Fill-3"></path>
                <path d="M25.3650871,11.9196569 C23.824083,9.06577372 21.1197261,7.21681022 17.9452905,6.84832117 C17.5468257,6.80186131 17.1402822,6.77856204 16.736888,6.77856204 C10.9479212,6.77856204 6.23782158,11.5490876 6.23782158,17.4123212 C6.23782158,18.0369635 6.73788797,18.544 7.35516598,18.544 C7.97244398,18.544 8.47251037,18.0369635 8.47251037,17.4123212 C8.47251037,12.796708 12.1797386,9.04136496 16.736888,9.04136496 C17.0557967,9.04136496 17.3760747,9.06036496 17.6906017,9.09656204 C20.133971,9.38045255 22.216805,10.8053139 23.404805,13.005292 C24.6119751,15.2416058 24.6708548,17.8337883 23.565834,20.1178102 L21.7563112,23.8574818 C20.9732116,25.4762263 20.2591245,27.1128613 19.6333568,28.7228686 C19.4075602,29.3041022 19.6894979,29.9613358 20.263917,30.1904453 C20.3982448,30.243562 20.5366805,30.2689416 20.6726515,30.2689416 C21.1182199,30.2689416 21.5396888,29.9971168 21.7123568,29.5517956 C22.3163527,27.9979562 23.0063402,26.4172117 23.7626017,24.8532482 L25.5721245,21.1135766 C26.9798963,18.2038029 26.9029419,14.7664672 25.3650871,11.9196569 Z" id="Fill-4"></path>
                <path d="M13.0040539,40.6362847 C10.4044481,40.6362847 8.28957261,38.4942774 8.28957261,35.8614599 C8.28957261,35.2362628 7.78950622,34.729781 7.17222822,34.729781 C6.55495021,34.729781 6.05488382,35.2362628 6.05488382,35.8614599 C6.05488382,39.7418978 9.17208299,42.8992263 13.0040539,42.8992263 C13.6207842,42.8992263 14.1213983,42.3926058 14.1213983,41.7681022 C14.1213983,41.1429051 13.6207842,40.6362847 13.0040539,40.6362847 Z" id="Fill-5"></path>
                <path d="M7.17222822,26.6398029 C6.55549793,26.6398029 6.05543154,27.1464234 6.05543154,27.7716204 C6.05543154,28.3962628 6.55549793,28.9027445 7.17222822,28.9027445 C9.7716971,28.9027445 11.8867095,31.0447518 11.8867095,33.677708 C11.8867095,34.3027664 12.3867759,34.8093869 13.0040539,34.8093869 C13.621332,34.8093869 14.1213983,34.3027664 14.1213983,33.677708 C14.1213983,29.7971314 11.0040622,26.6398029 7.17222822,26.6398029 Z" id="Fill-6"></path>
            </g>
        </g>
    </g>
</svg>
