<?xml version="1.0" encoding="UTF-8"?>
<svg width="52px" height="52px" viewBox="0 0 52 52" version="1.1" xmlns="http://www.w3.org/2000/svg" xmlns:xlink="http://www.w3.org/1999/xlink">
    <!-- Generator: Sketch 43 (38999) - http://www.bohemiancoding.com/sketch -->
    <title>ico-service-pen</title>
    <desc>Created with Sketch.</desc>
    <defs></defs>
    <g id="Page-1" stroke="none" stroke-width="1" fill-rule="evenodd">
        <g id="main" transform="translate(-1033.000000, -1426.000000)">
            <g id="ico-service-pen" transform="translate(1033.000000, 1426.000000)">
                <path d="M49.5023296,2.49637358 C46.2519374,-0.754018634 40.968459,-0.754018634 37.7180668,2.49637358 L4.33703628,35.8762469 C4.31967925,35.8947611 4.31042217,35.9132753 4.29653655,35.9306323 C4.27917953,35.953775 4.26066537,35.9757605 4.24215121,35.9989032 C4.19355154,36.0706456 4.15652322,36.1435451 4.12990911,36.219916 C4.12065203,36.2476873 4.10676641,36.2650443 4.10213787,36.2928155 C4.09750933,36.3020726 4.09403793,36.3101726 4.08940939,36.3194296 L0.817031608,50.0650363 C0.803145988,50.1286787 0.798517448,50.191164 0.798517448,50.2501779 C0.798517448,50.2640635 0.793888908,50.2779491 0.793888908,50.2860491 C0.793888908,50.3948198 0.817031608,50.4943334 0.852902793,50.593847 C0.862159873,50.6169897 0.870259818,50.6389753 0.879516898,50.662118 C0.924645163,50.7616316 0.983659048,50.8565166 1.0646585,50.9328876 C1.15144362,51.0231441 1.25442864,51.091415 1.36782787,51.1365433 C1.4812271,51.1816716 1.59809773,51.2036571 1.7161255,51.2036571 C1.78786787,51.2036571 1.86076738,51.2001857 1.93250975,51.1816716 L15.6781164,47.9092938 C15.7058877,47.9046653 15.7232447,47.8907796 15.7510159,47.8815226 C15.7822586,47.8734226 15.8100298,47.859537 15.8412725,47.8456514 C15.9083863,47.8144087 15.9674002,47.7773804 16.0264141,47.7322521 C16.0495568,47.7148951 16.0715423,47.7010095 16.094685,47.6824953 C16.102785,47.6743954 16.112042,47.6697669 16.1166706,47.6605098 L49.5023296,14.2794793 C52.7515647,11.0302442 52.7515647,5.74098012 49.5023296,2.49637358 Z M48.1959242,3.802779 C50.4963086,6.10779192 50.6953358,9.72846733 48.7964773,12.2637501 L39.7337959,3.2010688 C42.2748644,1.30221026 45.8909113,1.50123748 48.1959242,3.802779 Z M43.6125125,17.5518571 L34.445689,8.38619073 L35.7567229,7.07978532 L44.9189179,16.2419802 L43.6125125,17.5518571 Z M5.38655772,46.6121455 C5.02437447,46.2499622 4.44117843,46.2499622 4.07552377,46.6121455 L3.37429996,47.3122121 L5.73832676,37.3816796 L9.83342753,36.9257684 L9.30924537,41.6665505 C9.30461683,41.7024217 9.31850245,41.7348214 9.31850245,41.7706926 C9.31850245,41.8065638 9.30461683,41.8389636 9.30924537,41.8702062 C9.30924537,41.9014489 9.32775953,41.9292201 9.33238807,41.9558342 C9.34627369,42.0102196 9.35900218,42.0599764 9.38214488,42.1097332 C9.40413044,42.1687471 9.43190168,42.2231324 9.46777287,42.2775178 C9.49554411,42.322646 9.52678675,42.3585172 9.5580294,42.3943884 C9.60315766,42.4441452 9.65291447,42.4800164 9.70729981,42.5216732 C9.74779954,42.5482873 9.78829926,42.5749014 9.83342753,42.5980441 C9.89244141,42.6246583 9.96071238,42.6431724 10.0243548,42.657058 C10.060226,42.6663151 10.0868401,42.6836721 10.1227113,42.6883007 C10.1597396,42.6929292 10.1909822,42.6975578 10.2268534,42.6975578 L10.231482,42.6975578 C10.2638817,42.6975578 10.2951244,42.6929292 10.3309956,42.6883007 L15.0729348,42.1641185 L14.6158665,46.2592193 L4.68533391,48.6232461 L5.38655772,47.9220223 C5.74758384,47.5609962 5.74758384,46.9731716 5.38655772,46.6121455 Z M17.003036,41.5404228 L37.7180668,20.825392 C38.08025,20.4632087 38.08025,19.8753841 37.7180668,19.514358 C37.3570406,19.1521748 36.7738446,19.1521748 36.4116613,19.514358 L15.6966306,40.2293888 L11.2763749,40.7223283 L11.7681572,36.3020726 L32.4843452,15.5858847 C32.8453713,15.2248586 32.8453713,14.6416625 32.4843452,14.2794793 C32.1221619,13.9184532 31.5389659,13.9184532 31.1779397,14.2794793 L10.4582804,34.9956672 L7.51105758,35.3208221 L33.1392836,9.69606755 L42.3014785,18.8582625 L16.6778811,44.4876456 L17.003036,41.5404228 Z M46.2299518,14.9355748 L37.0631284,5.76875136 L38.3741623,4.45771741 L47.5398286,13.6245409 L46.2299518,14.9355748 Z" id="Fill-1"></path>
            </g>
        </g>
    </g>
</svg>
