<?xml version="1.0" encoding="UTF-8"?>
<svg width="78px" height="60px" viewBox="0 0 78 60" version="1.1" xmlns="http://www.w3.org/2000/svg" xmlns:xlink="http://www.w3.org/1999/xlink">
    <!-- Generator: Sketch 43 (38999) - http://www.bohemiancoding.com/sketch -->
    <title>ico-team</title>
    <desc>Created with Sketch.</desc>
    <defs></defs>
    <g id="Page-1" stroke="none" stroke-width="1" fill="none" fill-rule="evenodd">
        <g id="main" transform="translate(-1061.000000, -580.000000)" fill="#FFFFFF">
            <g id="ico-team" transform="translate(1061.000000, 580.000000)">
                <path d="M24.3474146,24.4742857 C24.3474146,28.7144762 25.8910537,33.0091429 28.5803415,36.2561905 C31.4096488,39.6714286 35.1022829,41.551619 38.9785024,41.551619 C42.853961,41.551619 46.5422195,39.6721905 49.3639171,36.2592381 C52.0442634,33.0158095 53.5825756,28.7234286 53.5825756,24.4817143 L53.5825756,20.7457143 C54.6662049,16.0708571 54.8935463,12.0247619 54.8920244,9.44438095 C54.8897415,6.11257143 54.5278976,3.8112381 54.1898341,2.76819048 C54.0106244,2.21371429 53.4726146,1.8767619 52.915961,1.93104762 C52.8238829,1.92285714 52.729522,1.92361905 52.6344,1.93695238 C50.3701171,2.26133333 47.5921756,1.70266667 44.6508146,1.11104762 C39.8850146,0.15352381 34.5011122,-0.927619048 30.3832829,1.93028571 C30.3461854,1.9272381 30.3096585,1.92514286 30.2718,1.92514286 C27.9607171,1.92514286 25.9089366,2.84914286 24.4939024,4.52857143 C23.1874976,6.07904762 22.4674244,8.21295238 22.4674244,10.5367619 C22.4674244,14.3424762 24.0844976,21.376 24.3474146,22.4958095 L24.3474146,24.4742857 Z M47.4873512,34.7047619 C45.1376488,37.5478095 42.1152439,39.1140952 38.9785024,39.1140952 C35.839478,39.1140952 32.8126976,37.5462857 30.4546244,34.700381 C28.1210927,31.8834286 26.7827268,28.1558095 26.7827268,24.4742857 L26.7827268,23.0121905 C26.7827268,19.9973333 28.8048293,15.8982857 29.5724634,14.4510476 C40.5227122,13.1988571 47.851478,16.2257143 49.5153512,17.0055238 L51.1474537,20.8552381 L51.1474537,24.4817143 C51.1474537,28.1653333 49.8134634,31.891619 47.4873512,34.7047619 Z M30.2718,4.36342857 C30.3602634,4.36342857 30.4464439,4.35295238 30.5290098,4.33504762 C30.8640293,4.40647619 31.2260634,4.33809524 31.5196098,4.11485714 C34.802839,1.61771429 39.5655951,2.57542857 44.1715902,3.50171429 C46.6365805,3.99733333 48.9937024,4.4712381 51.1860732,4.4712381 C51.4891317,4.4712381 51.7895268,4.46152381 52.0866878,4.44228571 C52.4538585,6.50685714 52.7494976,10.9504762 51.9247902,16.4474286 L51.580639,15.636381 C51.4735317,15.3841905 51.2848098,15.1750476 51.0441512,15.0434286 C50.6948634,14.8514286 42.3418244,10.3834286 28.7490878,12.0918095 C28.3501463,12.1125714 27.9696585,12.3268571 27.7548732,12.6988571 C27.6766829,12.8342857 26.6177854,14.6862857 25.7008098,17.0552381 C25.2837951,14.7979048 24.9025463,12.2584762 24.9025463,10.5367619 C24.9025463,6.27180952 27.5994439,4.36342857 30.2718,4.36342857 Z" id="Fill-1"></path>
                <path d="M59.9468049,44.2510476 C59.9209317,44.243619 59.8948683,44.2367619 59.8680439,44.231619 L52.6239366,42.7144762 L50.7089415,39.8068571 C50.6956244,39.7859048 50.6805951,39.7659048 50.6665171,39.7464762 C50.3179902,39.2815238 49.788161,38.9748571 49.2122927,38.9049524 C48.6362341,38.8350476 48.0478098,39.0055238 47.5988341,39.3737143 C47.5906537,39.379619 47.5824732,39.3864762 47.5750537,39.3931429 L38.9621415,46.816381 L30.348278,39.3931429 L30.3252585,39.3737143 C29.8757122,39.0055238 29.2878585,38.8350476 28.7119902,38.9049524 C28.136122,38.9748571 27.6053415,39.2815238 27.2575756,39.7464762 C27.2427366,39.7659048 27.2286585,39.7859048 27.2153415,39.8068571 L25.3001561,42.7144762 L18.0560488,44.231619 C18.0294146,44.2367619 18.0025902,44.243619 17.9765268,44.2510476 C15.8705268,44.8417143 14.0780488,46.1491429 12.7946634,48.0321905 C11.623522,49.7495238 10.9784049,51.8232381 10.9784049,53.8708571 L10.9784049,56.1624762 C10.9784049,58.1735238 12.7663171,59.8089524 14.9645854,59.8089524 L36.1895268,59.8089524 C36.1908585,59.8089524 36.1923805,59.8097143 36.1946634,59.8097143 C36.1961854,59.8097143 36.1977073,59.8089524 36.199039,59.8089524 L41.7242927,59.8089524 C41.7258146,59.8089524 41.7280976,59.8097143 41.7296195,59.8097143 C41.7309512,59.8097143 41.7324732,59.8089524 41.7339951,59.8089524 L62.9589366,59.8089524 C65.1570146,59.8089524 66.945878,58.1735238 66.945878,56.1624762 L66.945878,53.8708571 C66.945878,51.8232381 66.300761,49.7495238 65.1296195,48.0321905 C63.8454732,46.1491429 62.0537561,44.8417143 59.9468049,44.2510476 Z M48.891161,41.475619 L50.402839,43.7710476 L44.3536537,52.0992381 L40.7508146,48.492 L48.891161,41.475619 Z M38.1633073,54.9428571 L39.7609756,54.9428571 L40.2455268,57.3714286 L37.6779951,57.3714286 L38.1633073,54.9428571 Z M40.179322,51.8373333 C40.179322,52.2382857 39.9348585,52.5047619 39.7735317,52.5047619 L38.1498,52.5047619 C37.9886634,52.5047619 37.7440098,52.2382857 37.7440098,51.8373333 L37.7440098,51.3678095 L38.9621415,50.1491429 L40.179322,51.3678095 L40.179322,51.8373333 Z M29.0321707,41.475619 L37.173278,48.492 L33.5706293,52.0992381 L27.5206829,43.7702857 L29.0321707,41.475619 Z M13.4129561,56.1624762 L13.4129561,53.8708571 C13.4129561,50.9950476 15.1934488,47.5851429 18.5955805,46.6089524 L25.5187463,45.1594286 L32.4396293,54.6870476 C32.6483268,54.9748571 32.9738341,55.1571429 33.3290195,55.1847619 C33.3602195,55.1878095 33.3921805,55.1885714 33.4241415,55.1885714 C33.7452732,55.1885714 34.0559415,55.0613333 34.2848049,54.8314286 L35.7049756,53.4102857 C35.7688976,53.5293333 35.840239,53.6438095 35.917478,53.7518095 L35.195122,57.3708571 L14.9645854,57.3708571 C14.1233268,57.3714286 13.4129561,56.8179048 13.4129561,56.1624762 Z M64.5105659,56.1624762 C64.5105659,56.8179048 63.8000049,57.3714286 62.9595073,57.3714286 L42.729161,57.3714286 L42.0060439,53.7518095 C42.0840439,53.6438095 42.1546244,53.5293333 42.2193073,53.4102857 L43.639478,54.832 C43.8683415,55.0613333 44.1782488,55.1891429 44.4999512,55.1891429 C44.5311512,55.1891429 44.5631122,55.1878095 44.5950732,55.1855238 C44.9502585,55.1571429 45.2750049,54.9748571 45.4846537,54.6870476 L52.4055366,45.1594286 L59.3279415,46.6089524 C62.7306439,47.5851429 64.5105659,50.9950476 64.5105659,53.8708571 L64.5105659,56.1624762 Z" id="Fill-3"></path>
                <path d="M9.7656,26.7605714 C9.7656,29.7226667 10.772561,32.5017143 12.5998537,34.5872381 C14.4547317,36.7034286 16.9324683,37.8693333 19.5757171,37.8693333 C21.5569171,37.8693333 23.4654439,37.2070476 25.0935512,35.9540952 C25.6264244,35.5441905 25.7266829,34.7784762 25.3165171,34.2449524 C24.9071122,33.7108571 24.1423317,33.6110476 23.6096488,34.0211429 C22.410922,34.943619 21.0160537,35.4310476 19.5757171,35.4310476 C15.5092537,35.4310476 12.2009122,31.5419048 12.2009122,26.7605714 L12.2009122,26.0441905 C12.2009122,24.1177143 12.9959415,21.5672381 13.4137171,20.3626667 C16.0413659,20.1289524 18.3874537,20.4742857 20.304161,20.7577143 L20.521039,20.7897143 C20.5821073,20.7986667 20.6414634,20.8030476 20.7002488,20.8030476 C21.294,20.8030476 21.8141268,20.3670476 21.9033512,19.7613333 C22.0013268,19.0946667 21.5413171,18.475619 20.8762244,18.3775238 L20.6601073,18.3455238 C18.4224585,18.0142857 15.6378585,17.6028571 12.3858293,18.020381 C12.3822146,18.020381 12.3784098,18.0211429 12.3747951,18.0219048 L12.3732732,18.0219048 C12.3688976,18.0219048 12.3650927,18.0232381 12.3607171,18.024 C12.3257122,18.0285714 12.2907073,18.0344762 12.2566537,18.0426667 C12.2372488,18.0470476 12.2187951,18.0531429 12.2001512,18.0582857 C12.1815073,18.0634286 12.1622927,18.068 12.1444098,18.0746667 C12.1198683,18.0820952 12.0976098,18.0918095 12.0738293,18.1007619 C12.0610829,18.1066667 12.0477659,18.1110476 12.0352098,18.1171429 C12.0114293,18.1274286 11.9884098,18.1386667 11.965961,18.1512381 C11.9534049,18.1571429 11.9416098,18.1632381 11.9296244,18.1699048 C11.9088878,18.1817143 11.888722,18.1944762 11.8687463,18.2078095 C11.855239,18.2167619 11.841161,18.2249524 11.8278439,18.2339048 C11.8114829,18.2457143 11.795122,18.2584762 11.779522,18.2710476 C11.763922,18.2838095 11.748322,18.2948571 11.7334829,18.3081905 C11.7207366,18.3194286 11.7089415,18.3306667 11.6961951,18.3424762 C11.6800244,18.3580952 11.6629024,18.3737143 11.6465415,18.3908571 C11.636839,18.4013333 11.6278976,18.412381 11.6181951,18.4228571 C11.6010732,18.4422857 11.5849024,18.4607619 11.5691122,18.4801905 C11.560361,18.492 11.5521805,18.5047619 11.543239,18.5165714 C11.529161,18.536 11.5148927,18.5552381 11.5015756,18.5761905 C11.4911122,18.5933333 11.4816,18.6110476 11.4711366,18.6281905 C11.4621951,18.6453333 11.4524927,18.6609524 11.4435512,18.6780952 C11.4271902,18.7100952 11.4123512,18.743619 11.3982732,18.7777143 C11.3975122,18.7807619 11.3959902,18.7830476 11.3946585,18.7859048 L11.3946585,18.7874286 C11.3931366,18.7904762 11.3923756,18.7925714 11.3908537,18.795619 C11.3701171,18.8499048 11.2824146,19.0777143 11.1568537,19.4333333 C11.0594488,18.6586667 10.9962878,17.928 10.9962878,17.3432381 C10.9962878,14.7085714 12.2655951,13.5293333 13.524439,13.5293333 C13.5837951,13.5293333 13.6418195,13.5232381 13.6990829,13.5150476 C13.7569171,13.524 13.8149415,13.5293333 13.8737268,13.5293333 C14.1299854,13.5293333 14.389478,13.4489524 14.6094,13.2807619 C15.7457268,12.4169524 17.2119366,12.1259048 19.3624537,12.3388571 C20.0305902,12.4057143 20.6273854,11.9154286 20.6934,11.2457143 C20.7596049,10.5754286 20.270678,9.97866667 19.6017805,9.91238095 C17.9512244,9.74952381 15.5629024,9.70628571 13.4850585,11.0925714 C10.583839,11.115619 8.56097561,13.679619 8.56097561,17.344 C8.56097561,19.9110476 9.57155122,24.5895238 9.7656,25.4630476 L9.7656,26.7605714 Z" id="Fill-4"></path>
                <path d="M8.52311707,48.8409524 L3.1026878,48.8409524 C2.72067805,48.8409524 2.4353122,48.6118095 2.4353122,48.4072381 L2.4353122,46.8470476 C2.4353122,45.0388571 3.54557561,42.8967619 5.66869756,42.2807619 L10.1029024,41.3521905 L12.392678,44.6594286 C12.628961,45.0009524 13.0079268,45.184 13.3943122,45.184 C13.633639,45.184 13.8752488,45.1133333 14.0869902,44.9666667 C14.639078,44.5828571 14.7766244,43.8238095 14.3938537,43.2702857 L12.1132098,39.976381 L12.7864829,38.9540952 L17.535161,42.5032381 C18.0739317,42.9064762 18.8364293,42.795619 19.2391756,42.2561905 C19.641161,41.7167619 19.530439,40.9525714 18.9916683,40.5500952 L13.7801268,36.6542857 C13.3965951,36.3514286 12.9008195,36.212381 12.4156976,36.2710476 C11.919161,36.3314286 11.4614341,36.5961905 11.1612293,36.9965714 C11.1463902,37.0165714 11.1330732,37.0367619 11.1188049,37.0575238 L9.90314634,38.9028571 L5.12840488,39.9028571 C5.10158049,39.9087619 5.07494634,39.9154286 5.04888293,39.9220952 C1.73445366,40.8521905 0,44.1095238 0,46.8470476 L0,48.4072381 C0,49.9904762 1.39182439,51.2792381 3.1026878,51.2792381 L8.52311707,51.2792381 C9.19562927,51.2792381 9.74029756,50.7331429 9.74029756,50.0598095 C9.74029756,49.3864762 9.19562927,48.8409524 8.52311707,48.8409524 Z" id="Fill-6"></path>
                <path d="M57.2010146,11.0500952 C58.9912098,11.0857143 60.9701268,11.4064762 62.8845512,11.7167619 C64.3305951,11.9510476 65.7159512,12.1735238 66.9190537,12.2510476 C66.8766293,15.1371429 66.6871463,17.7331429 66.472361,19.8238095 C66.4702683,19.8217143 66.4679854,19.8201905 66.4649415,19.8186667 C66.4464878,19.8045714 66.426322,19.7912381 66.4063463,19.7784762 C66.3974049,19.7725714 66.3892244,19.7659048 66.379522,19.76 C66.3690585,19.7539048 66.3580244,19.748 66.347561,19.7413333 C66.346039,19.7405714 66.3445171,19.7398095 66.3431854,19.7390476 C63.9063512,18.2695238 60.9537659,17.4220952 57.3161122,17.1491429 C56.645122,17.0977143 56.0618341,17.6020952 56.0112293,18.2733333 C55.9606244,18.944381 56.4638195,19.5300952 57.1340488,19.5798095 C60.2367366,19.8135238 62.7485268,20.4950476 64.7995463,21.6601905 C65.0887171,22.3417143 65.7233707,24.0649524 65.7233707,26.0441905 L65.7233707,26.7605714 C65.7233707,31.5419048 62.414839,35.4310476 58.3483756,35.4310476 C56.9082293,35.4310476 55.513361,34.943619 54.3146341,34.0211429 C53.781,33.6110476 53.0171707,33.7108571 52.6068146,34.2449524 C52.1974098,34.7784762 52.2970976,35.5441905 52.8305415,35.9540952 C54.458839,37.2070476 56.3664146,37.8693333 58.3483756,37.8693333 C60.9918146,37.8693333 63.4686,36.7034286 65.323478,34.5872381 C67.151722,32.5017143 68.157922,29.7226667 68.157922,26.7605714 L68.157922,25.443619 C68.329522,24.5321905 69.3342,18.8573333 69.3617854,11.3565714 C69.3929854,11.2361905 69.4063024,11.1095238 69.3988829,10.9786667 C69.3602634,10.328381 68.8184488,9.82838095 68.1756146,9.8327619 C68.1653415,9.8327619 68.155639,9.83142857 68.1451756,9.83142857 C68.1213951,9.83142857 68.0983756,9.83352381 68.0753561,9.83504762 C66.8967951,9.896 65.137039,9.61180952 63.2732195,9.30971429 C61.3692585,9.00171429 59.2111317,8.652 57.2493366,8.61257143 C56.5730195,8.59619048 56.0216927,9.13409524 56.0074244,9.80685714 C55.9948683,10.4801905 56.5285024,11.0367619 57.2010146,11.0500952 Z" id="Fill-8"></path>
                <path d="M72.8752098,39.9220952 C72.8493366,39.9146667 72.8225122,39.9087619 72.795878,39.9028571 L68.0203756,38.9028571 L66.8052878,37.0567619 C66.7912098,37.0367619 66.7771317,37.0165714 66.7630537,36.9965714 C66.4626585,36.5954286 66.0049317,36.3314286 65.5085854,36.2710476 C65.0225122,36.212381 64.5276878,36.3514286 64.1441561,36.6535238 L58.9324244,40.5493333 C58.3930829,40.9525714 58.2829317,41.716 58.6851073,42.2554286 C59.0878537,42.795619 59.8503512,42.9057143 60.389122,42.5032381 L65.1378,38.9533333 L65.8110732,39.976381 L63.530239,43.2695238 C63.1468976,43.8232381 63.2842537,44.5828571 63.8372927,44.9660952 C64.0490341,45.1133333 64.2906439,45.1832381 64.5297805,45.1832381 C64.9155951,45.1832381 65.295322,45.0001905 65.5316049,44.6586667 L67.8211902,41.3514286 L72.2548244,42.28 C74.3779463,42.8967619 75.4889707,45.0380952 75.4889707,46.8462857 L75.4889707,48.4064762 C75.4889707,48.6118095 75.2036049,48.8401905 74.8208341,48.8401905 L69.4011659,48.8401905 C68.7286537,48.8401905 68.1830341,49.3864762 68.1830341,50.0598095 C68.1830341,50.7331429 68.7286537,51.2784762 69.4011659,51.2784762 L74.8208341,51.2784762 C76.5315073,51.2784762 77.9242829,49.9904762 77.9242829,48.4064762 L77.9242829,46.8462857 C77.9242829,44.1095238 76.189639,40.8521905 72.8752098,39.9220952 Z" id="Fill-9"></path>
            </g>
        </g>
    </g>
</svg>