<?xml version="1.0" encoding="UTF-8"?>
<svg width="14px" height="12px" viewBox="0 0 14 12" version="1.1" xmlns="http://www.w3.org/2000/svg" xmlns:xlink="http://www.w3.org/1999/xlink">
    <!-- Generator: Sketch 43 (38999) - http://www.bohemiancoding.com/sketch -->
    <title>ico-photo-camera</title>
    <desc>Created with Sketch.</desc>
    <defs></defs>
    <g id="Page-1" stroke="none" stroke-width="1" fill-rule="evenodd">
        <g id="main" transform="translate(-101.000000, -3558.000000)" >
            <g id="Group-16" transform="translate(101.000000, 3554.000000)">
                <g id="ico-photo-camera" transform="translate(0.000000, 4.000000)">
                    <path d="M13.3615556,2.43489908 C12.9995556,2.07622018 12.5624444,1.89688073 12.0507778,1.89688073 L10.4287778,1.89688073 L10.0594444,0.921137615 C9.96744444,0.686752294 9.79988889,0.484623853 9.556,0.314311927 C9.31211111,0.144880734 9.06244444,0.0596697248 8.80644444,0.0596697248 L5.09855556,0.0596697248 C4.84244444,0.0596697248 4.59244444,0.144880734 4.349,0.314311927 C4.105,0.484623853 3.93711111,0.686752294 3.84544444,0.921137615 L3.47611111,1.89688073 L1.85422222,1.89688073 C1.342,1.89688073 0.905333333,2.07622018 0.543,2.43489908 C0.181,2.79346789 0,3.22656881 0,3.73354128 L0,10.1632294 C0,10.6702018 0.181,11.1033028 0.543,11.4619817 C0.905333333,11.8206606 1.342,11.9998899 1.85422222,11.9998899 L12.0507778,11.9998899 C12.5624444,11.9998899 12.9995556,11.8206606 13.3615556,11.4619817 C13.7235556,11.1033028 13.9045556,10.6702018 13.9045556,10.1632294 L13.9045556,3.73354128 C13.9045556,3.22656881 13.7235556,2.79346789 13.3615556,2.43489908 Z M9.24433333,9.21974312 C8.60977778,9.84836697 7.84544444,10.1632294 6.95222222,10.1632294 C6.059,10.1632294 5.29511111,9.84836697 4.66011111,9.21974312 C4.02522222,8.59056881 3.70788889,7.83324771 3.70788889,6.94866055 C3.70788889,6.06363303 4.02555556,5.30675229 4.66011111,4.67757798 C5.29511111,4.04840367 6.059,3.73354128 6.95222222,3.73354128 C7.84544444,3.73354128 8.60933333,4.04840367 9.24433333,4.67757798 C9.87933333,5.30631193 10.1966667,6.06363303 10.1966667,6.94866055 C10.1966667,7.83324771 9.87933333,8.59056881 9.24433333,9.21974312 Z" id="Fill-1"></path>
                    <path d="M6.95222222,4.88179817 C6.37755556,4.88179817 5.88666667,5.08392661 5.47877778,5.48818349 C5.07077778,5.89244037 4.86677778,6.37926606 4.86677778,6.94866055 C4.86677778,7.51761468 5.07077778,8.00433028 5.47877778,8.40858716 C5.88666667,8.81284404 6.37755556,9.01497248 6.95222222,9.01497248 C7.52688889,9.01497248 8.01822222,8.81284404 8.42622222,8.40858716 C8.83422222,8.00433028 9.03822222,7.51761468 9.03822222,6.94866055 C9.03822222,6.37926606 8.83422222,5.89244037 8.42622222,5.48818349 C8.01822222,5.08392661 7.52688889,4.88179817 6.95222222,4.88179817 Z" id="Fill-2"></path>
                </g>
            </g>
        </g>
    </g>
</svg>
