<?xml version="1.0" encoding="UTF-8"?>
<svg width="20px" height="12px" viewBox="0 0 20 12" version="1.1" xmlns="http://www.w3.org/2000/svg" xmlns:xlink="http://www.w3.org/1999/xlink">
    <!-- Generator: Sketch 43 (38999) - http://www.bohemiancoding.com/sketch -->
    <title>ico-counter-eye</title>
    <desc>Created with Sketch.</desc>
    <defs></defs>
    <g id="Page-1" stroke="none" stroke-width="1" fill="none" fill-rule="evenodd">
        <g id="main" transform="translate(-300.000000, -4368.000000)" fill="#FFFFFF">
            <g id="Group-11" transform="translate(280.000000, 4220.000000)">
                <path d="M29.9764923,148 C26.1642985,148 22.7071046,150.087438 20.1560842,153.478179 C19.9479719,153.755864 19.9479719,154.144 20.1560842,154.421889 C22.7071046,157.816409 26.1642985,159.904051 29.9764923,159.904051 C33.7888903,159.904051 37.2459311,157.816409 39.7969515,154.425872 C40.0052168,154.147983 40.0052168,153.760051 39.7969515,153.482162 C37.2459311,150.087438 33.7888903,148 29.9764923,148 Z M30.2499107,158.14337 C27.7194515,158.30274 25.6296046,156.215098 25.7888393,153.678247 C25.9194005,151.586621 27.613227,149.891353 29.703074,149.760681 C32.2337372,149.601311 34.3233801,151.688749 34.1643495,154.225804 C34.0296046,156.313243 32.3357781,158.008511 30.2499107,158.14337 Z M30.1235842,156.206928 C28.7601658,156.292664 27.6337372,155.16926 27.7234311,153.804936 C27.7927679,152.677549 28.7071556,151.76657 29.8335842,151.692936 C31.1970026,151.6072 32.3234311,152.730604 32.2337372,154.094928 C32.1602168,155.226553 31.2460332,156.137481 30.1235842,156.206928 Z" id="ico-counter-eye"></path>
            </g>
        </g>
    </g>
</svg>