<?xml version="1.0" encoding="UTF-8"?>
<svg width="17px" height="17px" viewBox="0 0 17 17" version="1.1" xmlns="http://www.w3.org/2000/svg" xmlns:xlink="http://www.w3.org/1999/xlink">
    <!-- Generator: Sketch 43 (38999) - http://www.bohemiancoding.com/sketch -->
    <title>ico-phone</title>
    <desc>Created with Sketch.</desc>
    <defs></defs>
    <g id="Page-1" stroke="none" stroke-width="1" fill="none" fill-rule="evenodd">
        <g id="main" transform="translate(-241.000000, -45.000000)" fill="#FFFFFF">
            <g id="Group-9" transform="translate(241.000000, 12.000000)">
                <path d="M16.6679106,45.8038057 C16.6209485,45.6629938 16.3202454,45.4555572 15.7663472,45.1820363 C15.6163597,45.0961446 15.4030279,44.9787412 15.1265339,44.8301864 C14.8491298,44.6810914 14.5981191,44.5440608 14.3727737,44.4187345 C14.1474284,44.2943086 13.9355528,44.1725837 13.7378751,44.0551803 C13.706567,44.0319518 13.6077281,43.9637066 13.4413585,43.8497245 C13.2757169,43.7364627 13.1348305,43.6527318 13.0203376,43.5979916 C12.9058447,43.5430713 12.792808,43.5157012 12.6819556,43.5157012 C12.524141,43.5157012 12.3264633,43.6268022 12.0889223,43.8497245 C11.8521095,44.0726468 11.6345912,44.3153764 11.4369134,44.5777332 C11.2392357,44.8400901 11.0295444,45.0820994 10.8083856,45.3050217 C10.5864987,45.5286642 10.404475,45.6399453 10.2623144,45.6399453 C10.1911432,45.6399453 10.1023156,45.620138 9.99492163,45.5814237 C9.88898383,45.5421692 9.80725519,45.509037 9.75173796,45.4816668 C9.69694882,45.4541167 9.60175042,45.3993765 9.46741693,45.3170861 C9.33290141,45.2347957 9.2575436,45.1897791 9.24188956,45.1820363 C8.15830245,44.5876369 7.22907143,43.9068056 6.4540145,43.1400826 C5.67895756,42.3733596 4.99072594,41.4539403 4.38986569,40.3820046 C4.38203867,40.3657986 4.33653274,40.2919714 4.25334791,40.1590823 C4.17016308,40.0261933 4.11464585,39.9318385 4.08697824,39.8770983 C4.05931064,39.822178 4.02581828,39.7420484 3.98595509,39.6365295 C3.94700201,39.5310105 3.92697941,39.442958 3.92697941,39.3727321 C3.92697941,39.2321002 4.04001613,39.0520337 4.2655435,38.8325327 C4.49088884,38.613752 4.7362568,38.4063154 5.00073724,38.2107632 C5.26594578,38.0152111 5.51040361,37.7998516 5.73593098,37.5657652 C5.96200442,37.3307784 6.07431305,37.1352263 6.07431305,36.9783884 C6.07431305,36.8692681 6.04664545,36.7574468 5.99112822,36.644185 C5.93561099,36.530383 5.85115199,36.3917319 5.73593098,36.2271511 C5.62143807,36.0632906 5.55245109,35.9655145 5.52824194,35.9338228 C5.41029058,35.7382707 5.28724255,35.5293936 5.16073608,35.3064713 C5.03404758,35.083549 4.89607361,34.8345171 4.74535798,34.5608161 C4.59537045,34.2872951 4.47669099,34.075537 4.38986569,33.9271622 C4.11264358,33.3799402 3.90349835,33.0822904 3.76060974,33.035293 C3.7058206,33.0120645 3.62263577,33 3.51178334,33 C3.29845155,33 3.01977326,33.0394346 2.67556644,33.1175834 C2.33154163,33.1955522 2.06050834,33.2778425 1.86283059,33.3637343 C1.46692904,33.528315 1.04809249,34.005131 0.605046795,34.7958028 C0.201864289,35.5308341 0,36.2588428 0,36.9783884 C0,37.1894263 0.0134697542,37.394702 0.041319381,37.5945758 C0.0689869841,37.7942695 0.118679455,38.0193526 0.189850724,38.269825 C0.261021993,38.5201174 0.318541483,38.705946 0.361863125,38.8269507 C0.40536679,38.9477753 0.486367339,39.1651155 0.605046795,39.4782511 C0.723908274,39.7912066 0.794897519,39.9826172 0.818378576,40.0535634 C1.0957827,40.8202864 1.42342537,41.504719 1.80312682,42.1074014 C2.42746813,43.1083909 3.28006716,44.143773 4.3600138,45.2115672 C5.43941437,46.2791812 6.48532258,47.1226125 7.49773842,47.7407807 C8.10642569,48.1163993 8.79902589,48.4414193 9.57408282,48.7151203 C9.64507207,48.7383489 9.83929136,48.8085748 10.1556486,48.9261582 C10.4712777,49.0435615 10.6909803,49.1236911 10.8133002,49.1665469 C10.9363482,49.210303 11.1240147,49.2664838 11.3772096,49.33761 C11.6304046,49.407836 11.8579342,49.4564539 12.0597985,49.483824 C12.2609347,49.5113742 12.4686238,49.5254194 12.6819556,49.5254194 C13.4100504,49.5254194 14.1452441,49.3255456 14.888993,48.9266984 C15.687531,48.4885967 16.1702578,48.0735435 16.3358994,47.6824391 C16.4234528,47.486887 16.5059095,47.2189481 16.5854539,46.8784424 C16.6644522,46.5381168 16.7043154,46.262435 16.7043154,46.0513971 C16.7043154,45.9415566 16.6921198,45.8592662 16.6679106,45.8038057 L16.6679106,45.8038057 Z" id="ico-phone"></path>
            </g>
        </g>
    </g>
</svg>