<?xml version="1.0" encoding="UTF-8"?>
<svg width="75px" height="50px" viewBox="0 0 75 50" version="1.1" xmlns="http://www.w3.org/2000/svg" xmlns:xlink="http://www.w3.org/1999/xlink">
    <!-- Generator: Sketch 43 (38999) - http://www.bohemiancoding.com/sketch -->
    <title>ico-tatoo-machine</title>
    <desc>Created with Sketch.</desc>
    <defs></defs>
    <g id="Page-1" stroke="none" stroke-width="1" fill-rule="evenodd">
        <g id="main" transform="translate(-344.000000, -1123.000000)">
            <g id="ico-tatoo-machine" transform="translate(375.500000, 1154.500000) rotate(45.000000) translate(-375.500000, -1154.500000) translate(349.000000, 1120.000000)">
                <path d="M51.8038699,6.60638298 C52.4052021,6.60638298 52.892911,6.11310638 52.892911,5.50531915 L52.892911,1.10106383 C52.892911,0.493276596 52.4052021,0 51.8038699,0 L17.5339247,0 C16.9325925,0 16.4448836,0.493276596 16.4448836,1.10106383 L16.4448836,17.6170213 L10.1282637,17.6170213 C9.52693151,17.6170213 9.0392226,18.1102979 9.0392226,18.7180851 L9.0392226,19.8191489 L6.86114041,19.8191489 L6.86114041,18.7180851 C6.86114041,18.1102979 6.37325,17.6170213 5.77209932,17.6170213 L3.26712329,17.6170213 C1.4654863,17.6170213 0,19.0986862 0,20.9202128 C0,22.7417394 1.4654863,24.2234043 3.26712329,24.2234043 L5.77209932,24.2234043 C6.37325,24.2234043 6.86114041,23.7301277 6.86114041,23.1223404 L6.86114041,22.0212766 L9.0392226,22.0212766 L9.0392226,23.1223404 C9.0392226,23.7301277 9.52693151,24.2234043 10.1282637,24.2234043 L14.2668014,24.2234043 L14.2668014,26.522242 C11.3009795,27.0463484 9.0392226,29.6663298 9.0392226,32.8118856 L9.0392226,49.9916011 C9.0392226,53.1371569 11.3009795,55.7571383 14.2668014,56.2805106 L14.2668014,60.7082553 C14.2668014,61.9999867 15.2153562,63.0696702 16.4448836,63.2480426 L16.4448836,67.8989362 C16.4448836,68.5067234 16.9325925,69 17.5339247,69 C18.1350753,69 18.6229658,68.5067234 18.6229658,67.8989362 L18.6229658,63.2480426 C19.8523116,63.0689362 20.8010479,61.9999867 20.8010479,60.7082553 L20.8010479,56.2805106 C23.7661438,55.7571383 26.0284452,53.1371569 26.0284452,49.9916011 L26.0284452,32.8118856 C26.0284452,29.6663298 23.7661438,27.0463484 20.8010479,26.522242 L20.8010479,24.2234043 L51.8038699,24.2234043 C52.4052021,24.2234043 52.892911,23.7301277 52.892911,23.1223404 L52.892911,18.7180851 C52.892911,18.1102979 52.4052021,17.6170213 51.8038699,17.6170213 L48.5367466,17.6170213 L48.5367466,6.60638298 L51.8038699,6.60638298 Z M2.17808219,20.9202128 C2.17808219,20.3129761 2.66651712,19.8191489 3.26712329,19.8191489 L4.68305822,19.8191489 L4.68305822,22.0212766 L3.26712329,22.0212766 C2.66651712,22.0212766 2.17808219,21.5274495 2.17808219,20.9202128 L2.17808219,20.9202128 Z M11.2173048,22.0212766 L50.7148288,22.0212766 L50.7148288,19.8191489 L11.2173048,19.8191489 L11.2173048,22.0212766 Z M23.849637,49.9916011 C23.849637,52.2983298 21.9935479,54.1758271 19.7120068,54.1758271 L15.3558425,54.1758271 C13.0733938,54.1758271 11.2173048,52.2983298 11.2173048,49.9916011 L11.2173048,32.8118856 C11.2173048,30.5044229 13.0733938,28.6276596 15.3558425,28.6276596 L19.7120068,28.6276596 C21.9935479,28.6276596 23.849637,30.5044229 23.849637,32.8118856 L23.849637,49.9916011 Z M18.2599521,61.0752766 L16.8078973,61.0752766 C16.6107808,61.0752766 16.4448836,60.9075479 16.4448836,60.7082553 L16.4448836,56.3779548 L18.6229658,56.3779548 L18.6229658,60.7082553 C18.6229658,60.9075479 18.4563425,61.0752766 18.2599521,61.0752766 L18.2599521,61.0752766 Z M16.4448836,26.4255319 L18.6229658,26.4255319 L18.6229658,24.2234043 L16.4448836,24.2234043 L16.4448836,26.4255319 Z M18.6229658,4.40425532 L50.7148288,4.40425532 L50.7148288,2.20212766 L18.6229658,2.20212766 L18.6229658,4.40425532 Z M31.401411,17.6170213 L31.401411,9.90957447 C31.401411,9.30178723 30.9142466,8.80924468 30.3130959,8.80851064 C29.7110377,8.80851064 29.2233288,9.30178723 29.2233288,9.90957447 L29.2233288,17.6170213 L22.9791301,17.6170213 L22.9791301,6.60638298 L33.5794932,6.60638298 L33.5794932,17.6170213 L31.401411,17.6170213 Z M18.6229658,17.6170213 L20.8010479,17.6170213 L20.8010479,6.60638298 L18.6229658,6.60638298 L18.6229658,17.6170213 Z M46.3586644,17.6170213 L44.1805822,17.6170213 L44.1805822,9.90957447 C44.1805822,9.30178723 43.6928733,8.80851064 43.0915411,8.80851064 C42.4896644,8.80851064 42.0025,9.30178723 42.0025,9.90957447 L42.0025,17.6170213 L35.7575753,17.6170213 L35.7575753,6.60638298 L46.3586644,6.60638298 L46.3586644,17.6170213 Z" id="Fill-1"></path>
                <path d="M14.4844281,51.0926649 L20.5832397,51.0926649 C21.1845719,51.0926649 21.6722808,50.5993883 21.6722808,49.9916011 C21.6715548,49.3830798 21.1845719,48.8905372 20.5832397,48.8905372 L14.4844281,48.8905372 C13.8830959,48.8905372 13.395387,49.3830798 13.395387,49.990867 C13.395387,50.5993883 13.8830959,51.0926649 14.4844281,51.0926649 L14.4844281,51.0926649 Z" id="Fill-4"></path>
                <path d="M20.5832397,44.5952872 L14.4844281,44.5952872 C13.8830959,44.5952872 13.395387,45.0883803 13.395387,45.6963511 C13.395387,46.3048723 13.8830959,46.7974149 14.4844281,46.7974149 L20.5832397,46.7974149 C21.1845719,46.7974149 21.6722808,46.3048723 21.6722808,45.6963511 C21.6722808,45.0883803 21.1845719,44.5952872 20.5832397,44.5952872 L20.5832397,44.5952872 Z" id="Fill-5"></path>
                <path d="M20.5832397,40.3005878 L14.4844281,40.3005878 C13.8830959,40.3005878 13.395387,40.7938644 13.395387,41.4016516 C13.395387,42.0096223 13.8830959,42.5027154 14.4844281,42.5027154 L20.5832397,42.5027154 C21.1845719,42.5027154 21.6722808,42.0096223 21.6722808,41.4016516 C21.6722808,40.7938644 21.1845719,40.3005878 20.5832397,40.3005878 L20.5832397,40.3005878 Z" id="Fill-6"></path>
                <path d="M20.5832397,36.0053378 L14.4844281,36.0053378 C13.8830959,36.0053378 13.395387,36.4986144 13.395387,37.1064016 C13.395387,37.7151064 13.8830959,38.2074654 14.4844281,38.2074654 L20.5832397,38.2074654 C21.1845719,38.2074654 21.6722808,37.7151064 21.6722808,37.1064016 C21.6722808,36.4986144 21.1845719,36.0053378 20.5832397,36.0053378 L20.5832397,36.0053378 Z" id="Fill-7"></path>
                <path d="M14.4844281,33.9129495 L20.5832397,33.9129495 C21.1845719,33.9129495 21.6722808,33.4196729 21.6722808,32.8118856 C21.6722808,32.2039149 21.1845719,31.7108218 20.5832397,31.7108218 L14.4844281,31.7108218 C13.8830959,31.7108218 13.395387,32.2039149 13.395387,32.8118856 C13.395387,33.4196729 13.8830959,33.9129495 14.4844281,33.9129495 L14.4844281,33.9129495 Z" id="Fill-8"></path>
            </g>
        </g>
    </g>
</svg>
