<?xml version="1.0" encoding="UTF-8"?>
<svg width="32px" height="20px" viewBox="0 0 32 20" version="1.1" xmlns="http://www.w3.org/2000/svg" xmlns:xlink="http://www.w3.org/1999/xlink">
    <!-- Generator: Sketch 43 (38999) - http://www.bohemiancoding.com/sketch -->
    <title>eye</title>
    <desc>Created with Sketch.</desc>
    <defs></defs>
    <g id="Page-1" stroke="none" stroke-width="1" fill="none" fill-rule="evenodd">
        <g id="pricelist" transform="translate(-508.000000, -250.000000)" fill="#FFFFFF">
            <g id="Group-6" transform="translate(80.000000, 177.000000)">
                <g id="eye" transform="translate(428.000000, 73.000000)">
                    <path d="M15.9999781,0 C9.88610399,0 4.34156744,3.42094069 0.250322803,8.97776214 C-0.0834409343,9.43283872 -0.0834409343,10.068925 0.250322803,10.5243363 C4.34156744,16.0873504 9.88610399,19.5086258 15.9999781,19.5086258 C22.1141796,19.5086258 27.6584707,16.0873504 31.7497153,10.5308637 C32.0837245,10.0754524 32.0837245,9.43970085 31.7497153,8.98428953 C27.6584707,3.42094069 22.1141796,0 15.9999781,0 Z M16.4384777,16.6231826 C12.3802085,16.884362 9.02857911,13.4630866 9.2839546,9.3056382 C9.4933445,5.87783538 12.2098491,3.09959202 15.5614785,2.88544326 C19.620075,2.62426378 22.9713772,6.04520447 22.716329,10.2029876 C22.5002294,13.6239283 19.7837248,16.4021717 16.4384777,16.6231826 Z M16.2358793,13.4496971 C14.0492727,13.5902034 12.2427427,11.7491434 12.3865909,9.51325957 C12.4977909,7.66567209 13.9642566,6.17273973 15.7707866,6.05206661 C17.9573932,5.91156025 19.7639232,7.75262033 19.620075,9.98850412 C19.5021654,11.8430374 18.036027,13.3358861 16.2358793,13.4496971 Z" id="Fill-1"></path>
                </g>
            </g>
        </g>
    </g>
</svg>