<?xml version="1.0" encoding="UTF-8"?>
<svg width="54px" height="55px" viewBox="0 0 54 55" version="1.1" xmlns="http://www.w3.org/2000/svg" xmlns:xlink="http://www.w3.org/1999/xlink">
    <!-- Generator: Sketch 43 (38999) - http://www.bohemiancoding.com/sketch -->
    <title>Group</title>
    <desc>Created with Sketch.</desc>
    <defs></defs>
    <g id="Page-1" stroke="none" stroke-width="1" fill="none" fill-rule="evenodd">
        <g id="main_gallery_popups" transform="translate(-484.000000, -245.000000)" fill="#D2A36E">
            <g id="Group" transform="translate(484.000000, 245.000000)">
                <path d="M20.7632109,2.04557692 C15.946875,2.04557692 11.4191016,3.93228846 8.01330469,7.35730769 C4.60560938,10.7651923 2.72995313,15.3153846 2.72995313,20.1511538 C2.72995313,24.9678846 4.60560938,29.5199808 8.01330469,32.9259615 C11.4191016,36.3528846 15.946875,38.2186538 20.7632109,38.2186538 C25.5814453,38.2186538 30.1092188,36.3528846 33.5150156,32.9259615 C36.9227109,29.5199808 38.8002656,24.9678846 38.8002656,20.1511538 C38.8002656,15.3153846 36.9227109,10.7651923 33.5150156,7.35730769 C30.1092188,3.93228846 25.5795469,2.04557692 20.7632109,2.04557692 L20.7632109,2.04557692 Z M20.7632109,40.1225 C15.4399922,40.1225 10.4357109,38.0473077 6.67110938,34.2795962 C2.90460938,30.5080769 0.831515625,25.4838269 0.831515625,20.1511538 C0.831515625,14.8013462 2.90460938,9.79613462 6.67110938,6.00557692 C10.4338125,2.23786538 15.4399922,0.141730769 20.7632109,0.141730769 C26.0883281,0.141730769 31.0926094,2.23786538 34.8572109,6.00557692 C38.6237109,9.79613462 40.6987031,14.8013462 40.6987031,20.1511538 C40.6987031,25.4838269 38.6237109,30.5080769 34.8572109,34.2795962 C31.0926094,38.0473077 26.0864297,40.1225 20.7632109,40.1225 L20.7632109,40.1225 Z" id="Fill-7639"></path>
                <g id="Group-5" transform="translate(11.061984, 9.978269)">
                    <path d="M9.80859375,19.7725 C9.284625,19.7725 8.859375,19.3555577 8.859375,18.8224808 L8.859375,1.68786538 C8.859375,1.15288462 9.284625,0.735942308 9.80859375,0.735942308 C10.3325625,0.735942308 10.7578125,1.15288462 10.7578125,1.68786538 L10.7578125,18.8224808 C10.7578125,19.3555577 10.3325625,19.7725 9.80859375,19.7725" id="Fill-7640"></path>
                    <path d="M18.3515625,11.2051923 L1.265625,11.2051923 C0.74165625,11.2051923 0.31640625,10.78825 0.31640625,10.2551731 C0.31640625,9.72019231 0.74165625,9.30325 1.265625,9.30325 L18.3515625,9.30325 C18.8755312,9.30325 19.3007812,9.72019231 19.3007812,10.2551731 C19.3007812,10.78825 18.8755312,11.2051923 18.3515625,11.2051923" id="Fill-7641"></path>
                </g>
                <path d="M33.6877734,36.8117115 L48.5905078,51.8140192 C49.2150938,52.4403846 50.3066953,52.4403846 50.9350781,51.8140192 L51.1230234,51.6217308 C51.7722891,50.9763269 51.7722891,49.9101731 51.1249219,49.2628654 L36.2145938,34.2586538 L33.6877734,36.8117115 L33.6877734,36.8117115 Z M49.7618437,54.2128654 C48.8107266,54.2128654 47.9184609,53.8320962 47.2464141,53.16575 L31.0071797,36.8117115 L36.2145937,31.5551923 L52.4690156,47.9092308 C53.854875,49.3180769 53.854875,51.5855577 52.4652187,52.9734615 L52.2772734,53.16575 C51.6052266,53.8320962 50.7110625,54.2128654 49.7618437,54.2128654 L49.7618437,54.2128654 Z" id="Fill-7642"></path>
            </g>
        </g>
    </g>
</svg>