<?xml version="1.0" encoding="UTF-8"?>
<svg width="90px" height="103px" viewBox="0 0 90 103" version="1.1" xmlns="http://www.w3.org/2000/svg" xmlns:xlink="http://www.w3.org/1999/xlink">
    <!-- Generator: Sketch 43 (38999) - http://www.bohemiancoding.com/sketch -->
    <title>ico-18plus</title>
    <desc>Created with Sketch.</desc>
    <defs></defs>
    <g id="Symbols" stroke="none" stroke-width="1" fill="none" fill-rule="evenodd">
        <g id="footer" transform="translate(-551.000000, -139.000000)">
            <g id="ico-18plus" transform="translate(553.000000, 141.000000)">
                <path d="M16.218,37.774 L16.218,41.596 L20.67,41.596 L20.67,61 L24.912,61 L24.912,37.774 L16.218,37.774 Z M42.0187271,37.228 C49.5367271,37.228 52.2247271,40.252 52.2247271,43.696 C52.2247271,45.67 51.3427271,47.308 49.7467271,48.106 C52.5187271,49.072 53.9887271,51.004 53.9887271,54.112 C53.9887271,58.9 49.5787271,61.588 42.0187271,61.588 C34.4587271,61.588 30.0487271,59.11 30.0487271,54.028 C30.0487271,51.55 31.6867271,49.03 34.2067271,48.148 C32.6527271,47.182 31.8127271,45.922 31.8127271,43.864 C31.8127271,39.076 36.6847271,37.228 42.0187271,37.228 Z M46.7227271,50.962 L37.5247271,49.954 C35.2567271,50.542 34.3327271,52.138 34.3327271,53.734 C34.3327271,56.128 36.4747271,57.85 42.0187271,57.85 C47.3107271,57.85 49.7047271,56.296 49.7047271,53.902 C49.7047271,52.18 48.6967271,51.172 46.7227271,50.962 Z M39.1627271,46.258 L46.3867271,47.014 C47.6047271,46.174 48.0247271,45.25 48.0247271,44.116 C48.0247271,41.974 46.3867271,40.924 42.0187271,40.924 C37.1467271,40.924 36.0127271,42.142 36.0127271,43.906 C36.0127271,45.418 37.0207271,46.006 39.1627271,46.258 Z M58.3694543,47.266 L58.3694543,50.836 L63.7034543,50.836 L63.7034543,56.086 L67.6094543,56.086 L67.6094543,50.836 L72.9854543,50.836 L72.9854543,47.266 L67.6094543,47.266 L67.6094543,41.848 L63.7034543,41.848 L63.7034543,47.266 L58.3694543,47.266 Z" id="18+" fill="#D2A36E"></path>
                <polygon id="Polygon" stroke="#D2A36E" stroke-width="3" points="42.8060797 0 85.6121593 24.7141016 85.6121593 74.1423048 42.8060797 98.8564065 -1.02140518e-13 74.1423048 -1.29674049e-13 24.7141016"></polygon>
            </g>
        </g>
    </g>
</svg>