<?xml version="1.0" encoding="UTF-8"?>
<svg width="19px" height="15px" viewBox="0 0 19 15" version="1.1" xmlns="http://www.w3.org/2000/svg" xmlns:xlink="http://www.w3.org/1999/xlink">
    <!-- Generator: Sketch 43 (38999) - http://www.bohemiancoding.com/sketch -->
    <title>ico-email</title>
    <desc>Created with Sketch.</desc>
    <defs></defs>
    <g id="Symbols" stroke="none" stroke-width="1" fill="none" fill-rule="evenodd">
        <g id="footer" transform="translate(-80.000000, -225.000000)" fill="#FFFFFF">
            <g id="ico-email" transform="translate(80.000000, 225.000000)">
                <path d="M17.3031944,14.8568822 C17.7301667,14.8568822 18.1001389,14.7174336 18.4144306,14.4424461 L13.0326806,9.12567419 C12.9028472,9.21716291 12.7780278,9.30578446 12.6595417,9.39023559 C12.2563194,9.68346867 11.929625,9.91258145 11.6791944,10.0765313 C11.4277083,10.2404812 11.093625,10.4075589 10.6772083,10.5785464 C10.2597361,10.7495338 9.87102778,10.8350276 9.51029167,10.8350276 L9.48970833,10.8350276 C9.12897222,10.8350276 8.74026389,10.7495338 8.32279167,10.5785464 C7.90531944,10.4075589 7.57123611,10.2404812 7.32080556,10.0765313 C7.070375,9.91258145 6.74368056,9.68346867 6.34045833,9.39023559 C6.22830556,9.30891228 6.10348611,9.21924812 5.968375,9.12463158 L0.584513889,14.4424461 C0.898805556,14.7174336 1.26904167,14.8568822 1.69680556,14.8568822 L17.3031944,14.8568822 Z" id="Fill-1"></path>
                <path d="M1.071125,5.77786466 C0.667902778,5.51226065 0.311388889,5.2086015 0,4.86662657 L0,12.9559499 L4.74472222,8.26943358 C3.79551389,7.61467669 2.57186111,6.7847619 1.071125,5.77786466 Z" id="Fill-2"></path>
                <path d="M17.9391667,5.77786466 C16.4951667,6.74305764 15.2683472,7.57401504 14.257125,8.27125815 L19,12.9559499 L19,4.86662657 C18.696,5.20156391 18.3423889,5.50496241 17.9391667,5.77786466 Z" id="Fill-3"></path>
                <path d="M17.3031944,0.111819549 L1.69680556,0.111819549 C1.15240278,0.111819549 0.732819444,0.292972431 0.440166667,0.656581454 C0.146458333,1.01888722 0,1.47294236 0,2.01770426 C0,2.45768421 0.19475,2.93415539 0.583458333,3.44737845 C0.972166667,3.96034085 1.38541667,4.36356892 1.82347222,4.65680201 C2.06361111,4.8238797 2.78825,5.32172431 3.99738889,6.14955388 C4.64998611,6.59552882 5.21708333,6.98546366 5.70554167,7.32144361 C6.12090278,7.6076391 6.47979167,7.85499749 6.77561111,8.06065163 C6.80965278,8.08411028 6.86216667,8.12164411 6.93315278,8.17168922 C7.00941667,8.22564411 7.10652778,8.29471679 7.22606944,8.38021053 C7.45591667,8.5441604 7.64670833,8.67657143 7.79818056,8.77744361 C7.95070833,8.8793584 8.13411111,8.99222055 8.34970833,9.11837594 C8.56504167,9.24374937 8.76902778,9.33836591 8.95981944,9.40066165 C9.15061111,9.46373935 9.32688889,9.4952782 9.48970833,9.4952782 L9.51029167,9.4952782 C9.67311111,9.4952782 9.85044444,9.46373935 10.0412361,9.40066165 C10.2317639,9.33836591 10.4349583,9.24374937 10.6502917,9.11837594 C10.8658889,8.99222055 11.0492917,8.8793584 11.2018194,8.77744361 C11.3543472,8.67657143 11.5451389,8.5441604 11.7749861,8.38021053 C11.8934722,8.29471679 11.9905833,8.22564411 12.0668472,8.17168922 C12.1378333,8.12164411 12.1914028,8.08411028 12.2254444,8.06065163 C12.4552917,7.90191479 12.8149722,7.65533835 13.2986806,7.32352882 C14.1769028,6.7206416 15.4715417,5.83286216 17.1868194,4.65680201 C17.70325,4.30049123 18.1341806,3.87093734 18.4804028,3.36892231 C18.8268889,2.86586466 19,2.33856642 19,1.78754887 C19,1.32645614 18.8319028,0.932350877 18.4959722,0.603669173 C18.1608333,0.275769424 17.7628889,0.111819549 17.3031944,0.111819549 Z" id="Fill-4"></path>
            </g>
        </g>
    </g>
</svg>