<?xml version="1.0" encoding="UTF-8"?>
<svg width="60px" height="60px" viewBox="0 0 60 60" version="1.1" xmlns="http://www.w3.org/2000/svg" xmlns:xlink="http://www.w3.org/1999/xlink">
    <!-- Generator: Sketch 43 (38999) - http://www.bohemiancoding.com/sketch -->
    <title>ico-service-chrysanthemum</title>
    <desc>Created with Sketch.</desc>
    <defs></defs>
    <g id="Page-1" stroke="none" stroke-width="1" fill-rule="evenodd">
        <g id="main" transform="translate(-350.000000, -1422.000000)">
            <g id="ico-service-chrysanthemum" transform="translate(350.000000, 1422.000000)">
                <path d="M57.5134771,37.8316129 C56.3018329,36.7819355 54.6800539,35.6762903 52.7545553,34.5806452 C55.7762264,33.8975806 59.5526685,32.531129 59.5526685,29.966129 C59.5526685,27.4025806 55.780593,26.0359677 52.7552022,25.3524194 C54.7054447,24.2429032 56.3416173,23.1233871 57.556496,22.0641935 C59.5180593,20.3537097 60.256496,18.8704839 59.7523989,17.6564516 C58.6922911,15.1054839 53.1329919,16.1185484 49.3470081,17.1498387 C51.0027493,14.5327419 52.7015094,10.9056452 50.8833962,9.09225806 C49.0659299,7.27967742 45.4352022,8.96822581 42.8034501,10.6245161 C43.8268464,6.88274194 44.8578437,1.30564516 42.2961186,0.247258065 C41.0768733,-0.256290323 39.5878706,0.482741935 37.8701887,2.44483871 C36.8120216,3.65258065 35.6951482,5.27741935 34.5870081,7.2116129 C33.6249057,2.92419355 31.9628571,0.446290323 29.9532615,0.446290323 C27.3839353,0.446290323 26.0142857,4.19 25.326469,7.22548387 C24.1096496,5.10096774 22.884097,3.35145161 21.7507278,2.12725806 C20.1549865,0.404032258 18.7620485,-0.227903226 17.6097574,0.247258065 C16.4385445,0.731129032 15.9033962,2.2016129 16.0203235,4.61774194 C16.0998922,6.2666129 16.4720216,8.32306452 17.101779,10.623871 C14.4643666,8.96322581 10.8399461,7.28032258 9.02247978,9.09225806 C7.20501348,10.9056452 8.90053908,14.528871 10.5588679,17.1498387 C6.78614555,16.1229032 1.21358491,15.1041935 0.154123989,17.6564516 C-0.327816712,18.8158065 0.322803235,20.2201613 2.08657682,21.8298387 C3.3097035,22.9462903 5.0425876,24.1496774 7.1380593,25.3441935 C2.83714286,26.3030645 0.353207547,27.9595161 0.353207547,29.966129 C0.353207547,32.5298387 4.11768194,33.8958065 7.15067385,34.5806452 C5.21304582,35.6832258 3.58447439,36.7951613 2.37153639,37.8491935 C0.393638814,39.5680645 -0.352560647,41.0574194 0.153477089,42.2766129 C0.595795148,43.3406452 1.85789757,43.8774194 3.91180593,43.8774194 C4.19660377,43.8774194 4.4967655,43.8674194 4.81132075,43.8466129 C6.42485175,43.7408065 8.38253369,43.3772581 10.5575741,42.7843548 C8.88857143,45.4204839 7.20630728,49.0293548 9.02247978,50.8406452 C9.57784367,51.3945161 10.3036658,51.6206452 11.1185984,51.6206452 C12.9714825,51.6206452 15.2843127,50.4506452 17.1011321,49.3083871 C16.5205391,51.4266129 16.1585984,53.3406452 16.042965,54.9320968 C15.8509973,57.5777419 16.3783827,59.1767742 17.6097574,59.6858065 C17.8567116,59.7879032 18.1151482,59.838871 18.3849057,59.838871 C19.4695957,59.838871 20.7292722,59.0104839 22.1424259,57.3653226 C23.174717,56.163871 24.2555256,54.5787097 25.326469,52.7074194 C26.0131536,55.7374194 27.3832884,59.4867742 29.9526146,59.4867742 C32.5232345,59.4867742 33.8933693,55.7322581 34.579407,52.7056452 C36.321186,55.7454839 39.113531,59.8382258 41.5229111,59.8382258 C41.7857143,59.8382258 42.0441509,59.7898387 42.2961186,59.6851613 C43.5122911,59.1830645 44.0416173,57.6167742 43.8692183,55.0298387 C43.7624798,53.4225806 43.3979515,51.4732258 42.8047439,49.3090323 C44.6222102,50.4512903 46.9343935,51.6206452 48.7866307,51.6206452 C49.6015633,51.6206452 50.3273854,51.3945161 50.8833962,50.8406452 C52.7008625,49.0274194 51.0066307,45.4053226 49.3470081,42.7824194 C51.3622642,43.3312903 53.8942318,43.8787097 55.976442,43.8780645 C57.7876011,43.8780645 59.2589757,43.4641935 59.751752,42.2766129 C60.2602156,41.0537097 59.5065768,39.5579032 57.5134771,37.8316129 Z M42.4288949,38.808871 C42.5652291,37.6009677 42.2873854,36.2054839 41.599407,34.7816129 C43.0769272,34.2662903 44.2759569,33.4767742 45.0460916,32.5127419 C49.810027,35.0259677 51.765283,37.7503226 51.3307278,38.7974194 C50.892938,39.8520968 47.58,40.3927419 42.4288949,38.808871 Z M38.8077089,51.2867742 C37.7432345,51.7270968 35.0241509,49.7714516 32.5060916,45.0185484 C33.4727224,44.251129 34.2642049,43.0553226 34.7804313,41.5816129 C35.9738005,42.1556452 37.1463073,42.4453226 38.2056065,42.4453226 C38.4153639,42.4453226 38.6194609,42.4333871 38.8196765,42.4108065 C40.4084636,47.5467742 39.8702426,50.8475806 38.8077089,51.2867742 Z M21.0981671,51.2867742 C20.0323989,50.8462903 19.4961186,47.546129 21.0868464,42.4082258 C21.2864151,42.4309677 21.491159,42.4429032 21.7002695,42.4429032 C22.7595687,42.4429032 23.9327224,42.1543548 25.1247978,41.5816129 C25.6416712,43.0553226 26.4325067,44.251129 27.3991375,45.0190323 C24.8804313,49.7703226 22.1563342,51.7233871 21.0981671,51.2867742 Z M8.57514825,38.7974194 C8.13671159,37.7408065 10.0958491,35.0248387 14.8604313,32.5133871 C15.6299191,33.4767742 16.8289488,34.2662903 18.306469,34.7809677 C17.6173585,36.206129 17.3393531,37.6009677 17.4758491,38.808871 C12.3252291,40.3927419 9.01358491,39.8527419 8.57514825,38.7974194 Z M8.57514825,21.1354839 C9.01681941,20.0732258 12.3232884,19.5383871 17.4719677,21.1229032 C17.3343396,22.3308065 17.6128302,23.725 18.3053369,25.1527419 C16.8283019,25.6674194 15.6299191,26.4562903 14.8604313,27.4201613 C10.0958491,24.9075806 8.13865229,22.1864516 8.57514825,21.1354839 Z M21.0981671,8.64693548 C21.6761725,8.40741935 22.6769272,8.87564516 23.7742318,9.89806452 C25.0104582,11.051129 26.2872776,12.8196774 27.3997844,14.913871 C26.4331536,15.6819355 25.6423181,16.8764516 25.1254447,18.3495161 C23.6946631,17.6601613 22.2965499,17.3824194 21.0849057,17.5203226 C19.4991914,12.3848387 20.0450135,9.0816129 21.0981671,8.64693548 Z M38.8077089,8.64693548 C39.8645822,9.08290323 40.4073315,12.3874194 38.8183827,17.5254839 C37.6073854,17.3893548 36.2081402,17.6666129 34.7804313,18.3520968 C34.2642049,16.8777419 33.4727224,15.6819355 32.5060916,14.913871 C35.0254447,10.1627419 37.7577898,8.21274194 38.8077089,8.64693548 Z M51.3307278,21.1354839 C51.7702965,22.1946774 49.8106739,24.9082258 45.0454447,27.4195161 C44.2754717,26.4556452 43.0769272,25.6667742 41.599407,25.1520968 C42.2847978,23.7293548 42.5621563,22.3332258 42.4263073,21.1254839 C47.5787062,19.5390323 50.8903504,20.0758065 51.3307278,21.1354839 Z M39.9215094,39.9082258 C39.0218329,40.8053226 37.1948248,40.6912903 35.2680323,39.656129 C35.382372,38.9643548 35.4436658,38.2354839 35.4436658,37.4806452 C35.4436658,36.7195161 35.380593,35.9741935 35.2580054,35.2572581 C35.9768733,35.3795161 36.7242049,35.4424194 37.4873854,35.4424194 C38.2442588,35.4424194 38.9750943,35.3814516 39.6693801,35.2674194 C40.7053908,37.1877419 40.8185984,39.0141935 39.9215094,39.9082258 Z M24.6378437,39.6574194 C22.7128302,40.6901613 20.8801617,40.8016129 19.9837197,39.9082258 C19.0854987,39.0122581 19.1998383,37.1883871 20.236496,35.2674194 C20.9307817,35.3814516 21.6616173,35.4424194 22.4184906,35.4424194 C23.1810243,35.4424194 23.9290027,35.3795161 24.6472237,35.2572581 C24.525283,35.9741935 24.4622102,36.7195161 24.4622102,37.4806452 C24.4622102,38.2354839 24.523504,38.965 24.6378437,39.6574194 Z M15.854717,29.9667742 C15.854717,28.818871 16.9426415,27.9966129 17.5908356,27.6085484 C18.228841,27.2267742 18.9781132,26.9306452 19.7974124,26.7303226 C19.9130458,26.7253226 20.0280323,26.7012903 20.1384906,26.6540323 C20.858814,26.5041935 21.6270081,26.4259677 22.4191375,26.4259677 C23.3996765,26.4259677 24.3433423,26.5469355 25.2114825,26.7769355 C25.2449596,26.8658065 25.2795687,26.9533871 25.3149865,27.0403226 C24.7761186,27.8877419 24.4622102,28.8906452 24.4622102,29.9667742 C24.4622102,31.0422581 24.7754717,32.0453226 25.3149865,32.8927419 C25.2795687,32.9796774 25.2449596,33.0672581 25.2114825,33.156129 C24.3433423,33.3859677 23.3996765,33.5069355 22.4184906,33.5069355 C20.5795148,33.5069355 18.8649057,33.0874194 17.5908356,32.3243548 C16.9426415,31.9369355 15.854717,31.1146774 15.854717,29.9667742 Z M19.9843666,20.0248387 C20.8725606,19.138871 22.729973,19.2593548 24.6378437,20.2780645 C24.523504,20.9698387 24.4622102,21.6982258 24.4622102,22.4529032 C24.4622102,23.2133871 24.525283,23.9587097 24.6478706,24.6758065 C23.9290027,24.5535484 23.1816712,24.4904839 22.4184906,24.4904839 C21.6622642,24.4904839 20.9320755,24.5516129 20.2384367,24.6656452 C19.2161725,22.7622581 19.0948787,20.9112903 19.9843666,20.0248387 Z M26.4029111,29.9667742 C26.4029111,28.0143548 27.9954178,26.4259677 29.9526146,26.4259677 C31.9102965,26.4259677 33.502965,28.0143548 33.502965,29.9667742 C33.502965,31.9187097 31.9102965,33.5069355 29.9526146,33.5069355 C27.9954178,33.5069355 26.4029111,31.9187097 26.4029111,29.9667742 Z M35.2673854,20.2754839 C37.1930458,19.2429032 39.0261995,19.1319355 39.9215094,20.0248387 C40.8140701,20.915 40.7042588,22.7477419 39.670027,24.6662903 C38.9757412,24.5516129 38.2442588,24.4904839 37.4867385,24.4904839 C36.7242049,24.4904839 35.9768733,24.5535484 35.2580054,24.6758065 C35.380593,23.9587097 35.4436658,23.2133871 35.4436658,22.4529032 C35.4436658,21.6975806 35.382372,20.9679032 35.2673854,20.2754839 Z M37.4867385,33.5069355 C36.5061995,33.5069355 35.5618868,33.3859677 34.6943935,33.156129 C34.6609164,33.0672581 34.6261456,32.9796774 34.5908895,32.8927419 C35.1297574,32.0453226 35.4436658,31.0422581 35.4436658,29.966129 C35.4436658,28.8906452 35.1297574,27.8877419 34.5908895,27.0403226 C34.6261456,26.9533871 34.6609164,26.8658065 34.6943935,26.7769355 C35.5618868,26.5469355 36.5061995,26.4259677 37.4867385,26.4259677 C39.3257143,26.4259677 41.0409704,26.8462903 42.3150404,27.6085484 C42.9632345,27.9966129 44.0505121,28.8182258 44.0505121,29.9667742 C44.0505121,31.1146774 42.9632345,31.9369355 42.3150404,32.3243548 C41.0409704,33.0874194 39.3263612,33.5069355 37.4867385,33.5069355 Z M32.3171968,17.6375806 C33.0823181,18.9083871 33.502965,20.6182258 33.502965,22.4529032 C33.502965,23.4308065 33.3816712,24.3720968 33.1510512,25.2377419 C33.0621024,25.271129 32.9742857,25.3058065 32.8871159,25.341129 C32.0374124,24.8037097 31.0316442,24.4904839 29.9532615,24.4904839 C28.8742318,24.4904839 27.8684636,24.8037097 27.0187601,25.341129 C26.9315903,25.3058065 26.8437736,25.271129 26.7548248,25.2377419 C26.5242049,24.3727419 26.4029111,23.4308065 26.4029111,22.4529032 C26.4029111,20.6182258 26.8242049,18.9083871 27.5886792,17.6375806 C27.9777898,16.991129 28.8022642,15.9067742 29.9532615,15.9067742 C31.1042588,15.9067742 31.9280863,16.991129 32.3171968,17.6375806 Z M27.5886792,42.2954839 C26.823558,41.0246774 26.4029111,39.3146774 26.4029111,37.4806452 C26.4029111,36.5022581 26.5242049,35.5609677 26.7548248,34.6953226 C26.8437736,34.6619355 26.9315903,34.6272581 27.0187601,34.5919355 C27.8684636,35.1293548 28.8742318,35.4424194 29.9526146,35.4424194 C31.0309973,35.4424194 32.0374124,35.1293548 32.8871159,34.5919355 C32.9742857,34.6272581 33.0621024,34.6619355 33.1510512,34.6953226 C33.3816712,35.5609677 33.502965,36.5022581 33.502965,37.4806452 C33.502965,39.3146774 33.0816712,41.0246774 32.3171968,42.2954839 C31.9280863,42.9424194 31.1042588,44.0267742 29.9526146,44.0267742 C28.8016173,44.0267742 27.9771429,42.9419355 27.5886792,42.2954839 Z M57.6119677,29.9667742 C57.6119677,30.8683871 55.1406469,32.4466129 49.655903,33.1680645 C48.5390296,32.2991935 47.2483019,31.4845161 45.9021024,30.7751613 C45.9603235,30.5117742 45.9912129,30.2420968 45.9912129,29.9667742 C45.9912129,29.6914516 45.9603235,29.421129 45.9021024,29.1579032 C47.2546092,28.4453226 48.5459838,27.6319355 49.6622102,26.7662903 C55.1419407,27.4875806 57.6119677,29.0640323 57.6119677,29.9667742 Z M57.9588679,18.3974194 C58.0940701,18.7224194 57.0813477,20.4512903 52.9984367,22.9620968 C53.3851213,22.0780645 53.4608086,21.2080645 53.1234501,20.3946774 C52.7856065,19.5819355 52.1139623,19.021129 51.2144474,18.668871 C55.882965,17.5651613 57.8249596,18.0741935 57.9588679,18.3974194 Z M49.5106739,10.4608065 C50.1512668,11.0996774 49.5219946,13.9562903 46.1579515,18.3312903 C44.7541779,18.5064516 43.2651752,18.8422581 41.8033423,19.2920968 C41.6581132,19.0627419 41.4881402,18.8496774 41.2935849,18.6562903 C41.0990296,18.4622581 40.8855526,18.2933871 40.6562264,18.1479032 C41.1066307,16.6930645 41.4420485,15.2080645 41.617035,13.8069355 C43.5418868,12.3351613 45.4208086,11.2206452 46.9254987,10.6598387 C48.4201617,10.1029032 49.2415633,10.1924194 49.5106739,10.4608065 Z M41.5533154,2.03580645 C41.8754717,2.16887097 42.3871698,4.105 41.2790296,8.76596774 C40.926469,7.86693548 40.3649596,7.19532258 39.5506739,6.85822581 C38.7350943,6.52177419 37.8601617,6.60177419 36.970027,6.99306452 C39.490027,2.91290323 41.2259838,1.90048387 41.5533154,2.03580645 Z M29.9526146,2.38177419 C30.8534232,2.38177419 32.4397844,4.84516129 33.1631806,10.3158065 C32.2919677,11.4298387 31.4750943,12.7169355 30.7638275,14.0601613 C30.4997305,14.0022581 30.2293261,13.9706452 29.9526146,13.9706452 C29.6765499,13.9706452 29.4061456,14.0022581 29.1420485,14.0601613 C28.4314286,12.7182258 27.6145553,11.4316129 26.7426954,10.3170968 C27.4584906,4.90693548 29.0700809,2.38177419 29.9526146,2.38177419 Z M18.3520755,2.03580645 C18.4492722,1.99612903 19.1024798,2.12032258 20.3249596,3.44016129 C21.1461995,4.32790323 22.0313208,5.53516129 22.9321294,6.99241935 C22.0432884,6.60177419 21.1690027,6.52241935 20.3552022,6.85822581 C19.5415633,7.19467742 18.9805391,7.86629032 18.6281402,8.7666129 C17.52,4.0916129 18.040593,2.16435484 18.3520755,2.03580645 Z M10.3945553,10.4608065 C10.6656065,10.191129 11.489434,10.1029032 12.9910512,10.6641935 C14.4946092,11.2262903 16.3690027,12.3395161 18.2901348,13.8082258 C18.4644744,15.2093548 18.7992453,16.695 19.2490027,18.1472581 C19.0203235,18.2927419 18.8068464,18.4616129 18.6116442,18.6562903 C18.4170889,18.8503226 18.2471159,19.0633871 18.1012399,19.2914516 C16.5844205,18.823871 15.1043127,18.4975806 13.7453369,18.3280645 C12.2695957,16.4070968 11.1527224,14.5333871 10.5916981,13.0332258 C10.036496,11.5456452 10.1254447,10.7291935 10.3945553,10.4608065 Z M1.94636119,18.3974194 C2.08026954,18.0748387 4.02161725,17.5658065 8.69078167,18.6695161 C7.56695418,19.1124194 7.03245283,19.7929032 6.78242588,20.3946774 C6.44555256,21.2067742 6.52334232,22.0767742 6.91180593,22.9614516 C5.47714286,22.0787097 4.28247978,21.211129 3.39622642,20.4016129 C2.0361186,19.1603226 1.90592992,18.495 1.94636119,18.3974194 Z M2.29390836,29.9667742 C2.29390836,29.0658065 4.76458221,27.4869355 10.2480323,26.7656452 C11.3649057,27.6332258 12.6556334,28.4477419 14.0037736,29.1579032 C13.9455526,29.421129 13.9140162,29.6908065 13.9140162,29.9667742 C13.9140162,30.2420968 13.9455526,30.5117742 14.0037736,30.7751613 C12.6530458,31.4870968 11.3618329,32.3004839 10.2449596,33.1667742 C4.82393531,32.4529032 2.29390836,30.8445161 2.29390836,29.9667742 Z M1.94636119,41.5356452 C1.81115903,41.2091935 2.8251752,39.4791935 6.91002695,36.9690323 C6.52204852,37.8537097 6.44442049,38.725 6.78242588,39.5383871 C7.12026954,40.3517742 7.79433962,40.9112903 8.69644205,41.2627419 C4.02549865,42.3685484 2.08156334,41.8601613 1.94636119,41.5356452 Z M10.3945553,49.4722581 C10.1236658,49.2012903 10.0352022,48.3759677 10.6025337,46.8720968 C11.1672776,45.3745161 12.2804313,43.5114516 13.7485714,41.6004839 C15.1528302,41.4259677 16.6424798,41.0901613 18.1018868,40.6416129 C18.2477628,40.8696774 18.4170889,41.0825806 18.6122911,41.2766129 C18.8068464,41.4712903 19.0196765,41.6408065 19.2490027,41.7864516 C18.7803235,43.2990323 18.4531536,44.7753226 18.2831806,46.1304839 C13.8976819,49.4835484 11.0333693,50.1085484 10.3945553,49.4722581 Z M20.6686253,56.1059677 C19.237035,57.7730645 18.4664151,57.945 18.3520755,57.8970968 C18.0216712,57.7609677 17.5143396,55.8191935 18.6236119,51.1670968 C19.0677089,52.2904839 19.7506739,52.8253226 20.3552022,53.0748387 C20.706469,53.2196774 21.0672776,53.2877419 21.4361725,53.2877419 C21.9226415,53.2877419 22.4210782,53.1667742 22.9238814,52.9482258 C22.1526146,54.1943548 21.3868464,55.2704839 20.6686253,56.1059677 Z M29.9526146,57.5512903 C29.5711051,57.5512903 28.9266307,57.0346774 28.2640431,55.5830645 C27.6132615,54.1585484 27.0852291,52.1108065 26.7648518,49.7829032 C26.7648518,49.7248387 26.7604852,49.6682258 26.7502965,49.6114516 C27.6171429,48.5001613 28.4301348,47.2154839 29.1414016,45.8727419 C29.4054987,45.9308065 29.6765499,45.9622581 29.9526146,45.9622581 C30.2293261,45.9622581 30.5003774,45.9308065 30.7644744,45.8727419 C31.5054987,47.2727419 32.3204313,48.5472581 33.1612399,49.6253226 C32.4447978,55.0291935 30.8332075,57.5512903 29.9526146,57.5512903 Z M41.5533154,57.8970968 C41.5355256,57.9046774 41.5128841,57.9085484 41.4861995,57.9085484 C41.0345013,57.9085484 39.3554717,56.7951613 36.9756873,52.9469355 C37.5391375,53.1901613 38.0388679,53.2851613 38.472938,53.2851613 C38.8935849,53.2851613 39.2530997,53.1977419 39.550027,53.0748387 C40.3656065,52.7377419 40.9277628,52.0674194 41.2809704,51.1701613 C42.3884636,55.825 41.8791914,57.7629032 41.5533154,57.8970968 Z M49.5106739,49.4722581 C48.8725067,50.1085484 46.007062,49.4835484 41.6196226,46.1279032 C41.4439892,44.7293548 41.1079245,43.2443548 40.6568733,41.7869355 C40.8855526,41.6414516 41.0990296,41.4712903 41.2935849,41.2772581 C41.4881402,41.0832258 41.6581132,40.8696774 41.8039892,40.6416129 C43.2627493,41.0901613 44.7523989,41.4259677 46.1566577,41.6004839 C47.6330458,43.5214516 48.7512129,45.3958065 49.3128841,46.8966129 C49.8693801,48.3859677 49.7804313,49.2032258 49.5106739,49.4722581 Z M57.9588679,41.5356452 C57.8256065,41.8582258 55.8823181,42.3679032 51.2087871,41.2622581 C52.1115364,40.9106452 52.7856065,40.351129 53.1234501,39.5383871 C53.4614555,38.725 53.380593,37.8517742 52.9877628,36.9640323 C57.0782749,39.4753226 58.0953639,41.2074194 57.9588679,41.5356452 Z" id="Fill-1"></path>
            </g>
        </g>
    </g>
</svg>
