<?xml version="1.0" encoding="UTF-8"?>
<svg width="52px" height="38px" viewBox="0 0 52 38" version="1.1" xmlns="http://www.w3.org/2000/svg" xmlns:xlink="http://www.w3.org/1999/xlink">
    <!-- Generator: Sketch 43 (38999) - http://www.bohemiancoding.com/sketch -->
    <title>ico-moustache</title>
    <desc>Created with Sketch.</desc>
    <defs></defs>
    <g id="Symbols" stroke="none" stroke-width="1" fill="none" fill-rule="evenodd">
        <g id="Goods" transform="translate(-815.000000, -224.000000)" fill="#FFFFFF">
            <g id="ico-moustache" transform="translate(815.000000, 224.000000)">
                <path d="M10.651875,7.06577392 C10.3802969,7.06577392 10.1089219,6.96341067 9.90163281,6.75878452 C9.48715625,6.34943188 9.48695313,5.68557609 9.90122656,5.27572166 L10.2369922,4.94374359 C10.6512656,4.53439094 11.3231016,4.53398952 11.7378828,4.94334216 C12.1523594,5.35269481 12.1525625,6.0165506 11.7382891,6.42630467 L11.4025234,6.75828274 C11.1951328,6.96331031 10.9236563,7.06577392 10.651875,7.06577392" id="Fill-1"></path>
                <path d="M39.6143516,7.23186331 C39.3426719,7.23186331 39.0711953,7.1293997 38.8639063,6.9246732 C38.4495313,6.5152202 38.4495313,5.85126406 38.8639063,5.44161034 L39.1999766,5.10963227 C39.6144531,4.70027962 40.2861875,4.70027962 40.7008672,5.10963227 C41.1152422,5.51908527 41.1152422,6.18314177 40.7008672,6.59269513 L40.3647969,6.9246732 C40.1575078,7.1293997 39.8860313,7.23186331 39.6143516,7.23186331" id="Fill-2"></path>
                <path d="M41.9246953,19.6449128 C40.2212891,19.6449128 38.3249141,19.0168842 36.5290859,17.8994187 L48.1547422,6.41195374 C48.5691172,6.00240038 48.5691172,5.33844424 48.1547422,4.92889088 C47.7403672,4.51963859 47.0686328,4.51943788 46.6538516,4.92889088 L34.7994766,16.6425585 C34.5360234,16.4215743 34.2771406,16.1905545 34.02425,15.9484955 C33.5387813,15.483947 33.0940391,15.0006319 32.6922578,14.5061773 L37.9371484,9.32348573 C38.351625,8.91403273 38.351625,8.25007659 37.9371484,7.84042287 C37.5226719,7.43107023 36.8509375,7.43107023 36.4362578,7.84042287 L31.4723906,12.7455294 C30.6641563,11.3453606 30.2193125,9.92692713 30.2193125,8.6448776 C30.2193125,2.96301469 36.3777578,2.11480469 40.0487344,2.11480469 C46.9380234,2.11480469 49.8774453,3.78442959 49.8774453,7.69751575 C49.8775469,12.7064908 47.1138281,19.6449128 41.9246953,19.6449128 Z M26.0004063,5.65275963 C25.1277813,5.65275963 24.3022813,5.90585779 23.6060703,6.35163971 C23.1275078,4.61196623 22.0754219,3.17356184 20.4943984,2.11490505 L31.5056016,2.11490505 C29.9245781,3.17356184 28.8735078,4.6122673 28.3946406,6.35163971 C27.6986328,5.90595814 26.8730313,5.65275963 26.0004063,5.65275963 Z M17.97575,15.9484955 C15.5568359,18.2630089 12.6033984,19.6449128 10.0753047,19.6449128 C8.81958594,19.6449128 7.70635937,19.2376676 6.73948437,18.5507299 L18.5532344,6.87720475 C18.9677109,6.46775175 18.9677109,5.80369525 18.5532344,5.39414189 C18.1387578,4.98478924 17.4670234,4.98478924 17.0523437,5.39414189 L5.20751562,17.0984764 C4.57792969,16.330451 4.04228906,15.4318622 3.602625,14.4656334 L8.97446875,9.1574967 C9.38884375,8.7480437 9.38884375,8.08408755 8.97446875,7.67443384 C8.55999219,7.26508119 7.88815625,7.26508119 7.47357812,7.67443384 L2.80180469,12.2908157 C2.35178125,10.7409157 2.12245312,9.1394326 2.12245312,7.6976161 C2.12245312,3.78452995 5.061875,2.11490505 11.9511641,2.11490505 C15.6221406,2.11490505 21.7805859,2.9632154 21.7805859,8.64497795 C21.7805859,10.9385169 20.3582031,13.6687054 17.97575,15.9484955 Z M48.2263437,1.41291393 C46.3130078,0.461036053 43.7144297,0.0176626786 40.0487344,0.0176626786 L40.0484297,0.0176626786 L11.9511641,0.0176626786 C8.28546875,0.0176626786 5.68699219,0.461036053 3.77355469,1.41291393 C1.26963281,2.65863455 0,4.77313817 0,7.6976161 C0,10.8007279 0.894867188,14.1855394 2.393625,16.7521474 C4.27273437,19.9699663 7.00080469,21.7421552 10.0753047,21.7421552 C13.1871797,21.7421552 16.6049609,20.1796103 19.4522656,17.4550417 C22.0703437,14.9497514 23.6970703,11.8916994 23.8846562,9.16783338 C24.2291562,8.31470593 25.0620703,7.75010236 26.0005078,7.75010236 C26.9380312,7.75010236 27.7705391,8.31400344 28.1154453,9.16592661 C28.3024219,11.8902944 29.92925,14.9492496 32.5479375,17.4551421 C35.3952422,20.1796103 38.8130234,21.7422555 41.9248984,21.7422555 C44.9993984,21.7422555 47.7274687,19.970167 49.6065781,16.7522478 C51.1051328,14.1856398 52,10.8007279 52,7.6976161 C52,4.77313817 50.7303672,2.65863455 48.2263437,1.41291393 L48.2263437,1.41291393 Z" id="Fill-4"></path>
                <path d="M25.9978672,32.0942912 C26.3153516,32.0942912 26.6162812,32.2347898 26.8178828,32.4772502 C28.4614687,34.4540652 30.7816641,35.3355935 34.3408203,35.3355935 C37.2045781,35.3355935 39.394875,33.3224495 40.5687344,31.6258288 C40.2393672,31.6786161 39.8505859,31.6990888 39.3425703,31.6990888 C37.6123516,31.6990888 36.1873281,30.7205162 34.8092266,29.7742583 C33.3589141,28.778324 31.9892422,27.8377864 30.2330234,27.8377864 C29.449875,27.8377864 28.2017734,28.1144682 26.703625,29.432646 C26.3012344,29.7868028 25.6943984,29.7868028 25.2921094,29.432646 C23.7939609,28.1144682 22.5458594,27.8377864 21.7626094,27.8377864 C20.0063906,27.8377864 18.6367187,28.778324 17.1864062,29.7742583 C15.8084062,30.7205162 14.3833828,31.6990888 12.6530625,31.6990888 C12.1450469,31.6990888 11.7563672,31.6786161 11.427,31.6258288 C12.6007578,33.3224495 14.7910547,35.3355935 17.6549141,35.3355935 C21.2140703,35.3355935 23.5341641,34.4540652 25.1778516,32.4772502 C25.3794531,32.2347898 25.6803828,32.0942912 25.9978672,32.0942912 Z M34.3408203,37.4328358 C30.6747188,37.4328358 27.9891016,36.5535154 25.9979688,34.6818736 C24.0068359,36.5536158 21.3213203,37.4328358 17.6552188,37.4328358 C13.1120234,37.4328358 9.63208594,33.5795619 8.61209375,30.8433521 C8.60549219,30.8257898 8.59939844,30.8080267 8.5938125,30.7901633 C8.48564844,30.4439347 8.36407813,29.7832903 8.76382813,29.24779 C9.00889844,28.9198262 9.39097656,28.7316584 9.8125625,28.7316584 C10.1802188,28.7316584 10.5482813,28.8664367 10.970375,29.1557634 C11.5722344,29.5681268 11.6214922,29.6018464 12.6532656,29.6018464 C13.7184531,29.6018464 14.7644453,28.8834973 15.9754766,28.0519464 C17.55325,26.9685016 19.3416641,25.740544 21.7628125,25.740544 C22.7773203,25.740544 24.2880625,26.0264586 25.9979688,27.294659 C27.7079766,26.0264586 29.2188203,25.740544 30.233125,25.740544 C32.6542734,25.740544 34.4426875,26.9685016 36.0204609,28.0519464 C37.2315938,28.8835976 38.2774844,29.6018464 39.3426719,29.6018464 C40.3746484,29.6018464 40.4238047,29.5681268 41.0255625,29.1557634 C41.4477578,28.8664367 41.8157188,28.7316584 42.1834766,28.7316584 C42.6049609,28.7316584 42.9871406,28.9198262 43.2321094,29.24779 C43.6319609,29.7831899 43.5101875,30.4439347 43.4020234,30.7901633 C43.3965391,30.8080267 43.3905469,30.8257898 43.3839453,30.8433521 C42.36375,33.5795619 38.8838125,37.4328358 34.3408203,37.4328358 L34.3408203,37.4328358 Z" id="Fill-5"></path>
            </g>
        </g>
    </g>
</svg>