<?xml version="1.0" encoding="UTF-8"?>
<svg width="42px" height="41px" viewBox="0 0 42 41" version="1.1" xmlns="http://www.w3.org/2000/svg" xmlns:xlink="http://www.w3.org/1999/xlink">
    <!-- Generator: Sketch 43 (38999) - http://www.bohemiancoding.com/sketch -->
    <title>ico-thumb-up</title>
    <desc>Created with Sketch.</desc>
    <defs></defs>
    <g id="Symbols" stroke="none" stroke-width="1" fill="none" fill-rule="evenodd">
        <g id="Goods" transform="translate(-820.000000, -56.000000)" fill="#FFFFFF">
            <g id="ico-thumb-up" transform="translate(820.000000, 56.000000)">
                <path d="M5.34432787,22.8231017 L7.11934426,22.8231017 C7.11934426,22.8995424 7.10832787,22.9697288 7.10832787,23.0433898 L7.10832787,26.0885085 C7.10832787,26.7375593 7.63022951,27.2643051 8.27606557,27.2643051 C8.91845902,27.2643051 9.44036066,26.7375593 9.44036066,26.0885085 L9.44036066,23.0433898 C9.44036066,20.6653898 11.3579016,18.7300508 13.7167869,18.7300508 L14.6228852,18.7300508 C19.082459,18.7300508 20.0801311,14.522339 21.0481967,10.4529153 L21.0481967,10.4480508 L22.4094098,4.715 C22.5705246,4.03050847 22.9877705,3.45233898 23.5792131,3.08333898 C24.1734098,2.71711864 24.8729508,2.60315254 25.550459,2.76854237 C26.2259016,2.9339322 26.7987541,3.35227119 27.1643607,3.95198305 C27.5272131,4.54891525 27.6380656,5.25494915 27.4762623,5.93874576 L26.3842623,10.5376949 C26.2362295,11.1700678 26.6211148,11.8024407 27.2476721,11.9546271 C27.3392459,11.9761695 27.4308197,11.9872881 27.5196393,11.9872881 C28.0463607,11.9872881 28.5255738,11.6259322 28.6515738,11.0859831 L29.7435738,6.4870339 C30.0506557,5.19240678 29.8406557,3.854 29.149377,2.71989831 C28.4608525,1.58510169 27.3743607,0.79220339 26.0937049,0.480186441 C24.8109836,0.170949153 23.4848852,0.38220339 22.3612131,1.07989831 C21.2368525,1.77481356 20.4484918,2.87138983 20.1420984,4.16671186 L18.7808852,9.90254237 C18.7808852,9.90254237 18.7808852,9.90254237 18.7781311,9.90462712 C17.5436066,15.1088475 16.729082,16.3791525 14.6228852,16.3791525 L13.7167869,16.3791525 C10.9681967,16.3791525 8.60655738,18.081 7.61439344,20.4972203 C7.53314754,20.4805424 7.45259016,20.4722034 7.37203279,20.4722034 L5.34432787,20.4722034 C2.39606557,20.4722034 0,22.8912034 0,25.8661356 L0,31.512322 C0,32.8152881 0.468196721,34.0751695 1.31508197,35.055 C1.54367213,35.3211525 1.86934426,35.456661 2.19501639,35.456661 C2.46629508,35.456661 2.7382623,35.3614576 2.95859016,35.1661864 C3.44537705,34.7402034 3.49632787,33.9959492 3.0715082,33.5074237 C2.5957377,32.9535763 2.33203279,32.2454576 2.33203279,31.512322 L2.33203279,25.8661356 C2.33203279,24.1886102 3.68222951,22.8231017 5.34432787,22.8231017 Z" id="Fill-1"></path>
                <path d="M13.7167869,38.646322 C11.3579016,38.646322 9.44036066,36.7109831 9.44036066,34.3329831 L9.44036066,32.0147458 C9.44036066,31.3629153 8.91845902,30.8368644 8.27606557,30.8368644 C7.63022951,30.8368644 7.10832787,31.3629153 7.10832787,32.0147458 L7.10832787,34.3329831 C7.10832787,38.0083898 10.0724262,41 13.7167869,41 C14.3591803,41 14.881082,40.4732542 14.881082,39.8214237 C14.881082,39.1730678 14.3591803,38.646322 13.7167869,38.646322 Z" id="Fill-2"></path>
                <path d="M37.2636393,14.9948814 L26.1990492,14.9948814 C23.94,14.9948814 22.1030164,16.8489153 22.1030164,19.1261525 C22.1030164,19.7640847 22.2503607,20.3665763 22.5064918,20.9065254 L21.3738689,20.9065254 C19.1175738,20.9065254 17.2805902,22.7605593 17.2805902,25.0412712 C17.2805902,26.7917627 18.3698361,28.29 19.8969836,28.8904068 C19.5506557,29.4984576 19.3461639,30.2010169 19.3461639,30.9529153 C19.3461639,32.6012542 20.3087213,34.0209661 21.6912787,34.686 C21.2988197,35.3183729 21.0702295,36.0647119 21.0702295,36.8652542 C21.0702295,39.1459661 22.9072131,41 25.1635082,41 L33.1297377,41 C35.3887869,41 37.2257705,39.1459661 37.2257705,36.8652542 C37.2257705,36.0077288 36.9655082,35.2092712 36.5186557,34.5497966 C37.7614426,33.8388983 38.6028197,32.4949322 38.6028197,30.9529153 C38.6028197,30.0953898 38.3425574,29.2976271 37.8957049,28.6374576 C39.1384918,27.9265593 39.9798689,26.5805085 39.9798689,25.0412712 C39.9798689,24.1830508 39.7196066,23.3852881 39.2755082,22.7230339 C40.5182951,22.0114407 41.3596721,20.6681695 41.3596721,19.1261525 C41.3596721,16.8489153 39.5226885,14.9948814 37.2636393,14.9948814 Z M24.4343607,19.1261525 C24.4343607,18.146322 25.2254754,17.3450847 26.1990492,17.3450847 L37.2636393,17.3450847 C38.2372131,17.3450847 39.0283279,18.146322 39.0283279,19.1261525 C39.0283279,20.1087627 38.234459,20.9065254 37.2636393,20.9065254 L26.1990492,20.9065254 C25.2254754,20.9065254 24.4343607,20.1087627 24.4343607,19.1261525 Z M21.376623,23.2602034 L35.8865902,23.2602034 C36.8574098,23.2602034 37.6485246,24.058661 37.6485246,25.0412712 C37.6485246,26.0211017 36.8574098,26.8188644 35.8865902,26.8188644 L21.376623,26.8188644 C20.4030492,26.8188644 19.6119344,26.0211017 19.6119344,25.0412712 C19.6119344,24.058661 20.4030492,23.2602034 21.376623,23.2602034 Z M23.4421967,29.1725424 L34.509541,29.1725424 C35.4803607,29.1725424 36.2714754,29.9730847 36.2714754,30.9529153 C36.2714754,31.9362203 35.4803607,32.7339831 34.509541,32.7339831 L23.4421967,32.7339831 C22.471377,32.7339831 21.6802623,31.9334407 21.6802623,30.9529153 C21.6802623,29.9730847 22.471377,29.1725424 23.4421967,29.1725424 Z M33.1297377,38.646322 L25.1662623,38.646322 C24.1926885,38.646322 23.4015738,37.8478644 23.4015738,36.8652542 C23.4015738,35.8854237 24.1926885,35.087661 25.1662623,35.087661 L33.1297377,35.087661 C34.1033115,35.087661 34.8944262,35.8854237 34.8944262,36.8652542 C34.8944262,37.8478644 34.1033115,38.646322 33.1297377,38.646322 Z" id="Fill-3"></path>
                <path d="M17.8858033,38.646322 C17.2427213,38.646322 16.7208197,39.1730678 16.7208197,39.8214237 C16.7208197,40.4732542 17.2427213,41 17.8858033,41 L17.9016393,41 C18.5447213,41 19.0583607,40.4732542 19.0583607,39.8214237 C19.0583607,39.1730678 18.5309508,38.646322 17.8858033,38.646322 Z" id="Fill-4"></path>
            </g>
        </g>
    </g>
</svg>