<?xml version="1.0" encoding="UTF-8"?>
<svg width="62px" height="60px" viewBox="0 0 62 60" version="1.1" xmlns="http://www.w3.org/2000/svg" xmlns:xlink="http://www.w3.org/1999/xlink">
    <!-- Generator: Sketch 43 (38999) - http://www.bohemiancoding.com/sketch -->
    <title>ico-service-nano</title>
    <desc>Created with Sketch.</desc>
    <defs></defs>
    <g id="Page-1" stroke="none" stroke-width="1" fill-rule="evenodd">
        <g id="main" transform="translate(-688.000000, -1421.000000)">
            <g id="ico-service-nano" transform="translate(688.000000, 1421.000000)">
                <path d="M8.530955,2.31715561 C7.006985,2.31715561 5.84852,2.71492347 5.086535,3.49572704 C3.083485,5.53507653 3.70918,10.3125 6.804615,16.6262755 C10.11068,23.3609694 15.81008,31.0237883 22.849665,38.1983418 C33.98208,49.5441964 46.57445,57.4764031 53.473615,57.4764031 C54.997585,57.4764031 56.153985,57.0765306 56.91597,56.2978316 C58.921085,54.2584821 58.29539,49.4789541 55.20202,43.1651786 C51.89389,36.4304847 46.196555,28.7697704 39.15697,21.5931122 C28.02249,10.2493622 15.428055,2.31715561 8.530955,2.31715561 L8.530955,2.31715561 Z M53.473615,59.5830995 C45.952885,59.5830995 33.06109,51.5835459 21.38971,39.692602 C14.197315,32.3686224 8.35956,24.497449 4.95644,17.5733418 C1.38812,10.2914541 0.915235,4.75848214 3.62658,1.99936224 C4.789175,0.820790816 6.43911,0.210459184 8.530955,0.210459184 C16.04962,0.210459184 28.94348,8.20790816 40.616925,20.1009566 C47.80932,27.4249362 53.64501,35.2961097 57.04813,42.2202168 C60.61645,49.5021046 61.089335,55.0350765 58.375925,57.7920918 C57.215395,58.9727679 55.56546,59.5830995 53.473615,59.5830995 L53.473615,59.5830995 Z" id="Fill-5792"></path>
                <path d="M53.473615,2.31715561 C46.57445,2.31715561 33.98208,10.2493622 22.849665,21.5931122 C15.81008,28.7697704 10.11068,36.4304847 6.804615,43.1651786 C3.70918,49.4789541 3.083485,54.2584821 5.086535,56.2978316 C5.84852,57.0765306 7.006985,57.4764031 8.530955,57.4764031 C15.428055,57.4764031 28.020425,49.5441964 39.15697,38.1983418 C46.196555,31.0237883 51.89389,23.3609694 55.20202,16.6262755 C58.29539,10.3125 58.921085,5.53507653 56.91597,3.49572704 C56.153985,2.71492347 54.997585,2.31715561 53.473615,2.31715561 L53.473615,2.31715561 Z M8.530955,59.5830995 L8.530955,59.5830995 C6.43911,59.5830995 4.789175,58.9727679 3.62658,57.7920918 C0.915235,55.0350765 1.38812,49.5021046 4.95644,42.2202168 C8.35956,35.2961097 14.197315,27.4249362 21.38971,20.1009566 C33.06109,8.20790816 45.952885,0.210459184 53.473615,0.210459184 C55.56546,0.210459184 57.215395,0.820790816 58.375925,1.99936224 C61.089335,4.75848214 60.61645,10.2914541 57.04813,17.5733418 C53.64501,24.497449 47.80932,32.3686224 40.616925,39.692602 C28.94348,51.5835459 16.04962,59.5830995 8.530955,59.5830995 L8.530955,59.5830995 Z" id="Fill-5793"></path>
                <path d="M31.00022,23.0663265 C23.089205,23.0663265 15.66553,23.8660714 10.09003,25.3392857 C4.190325,26.8966837 2.09848,28.7697704 2.09848,29.90625 C2.09848,31.0237883 4.190325,32.8947704 10.09003,34.454273 C15.66553,35.9274872 23.089205,36.7461735 31.00022,36.7461735 C48.91203,36.7461735 59.908155,32.7495536 59.908155,29.90625 C59.908155,27.0440051 48.91203,23.0663265 31.00022,23.0663265 L31.00022,23.0663265 Z M31.00022,38.8507653 C22.919875,38.8507653 15.31035,38.0089286 9.57378,36.4936224 C5.22076,35.3382015 0.031415,33.2735969 0.03348,29.90625 C0.031415,26.5178571 5.22076,24.4553571 9.57378,23.2999362 C15.31035,21.7825255 22.919875,20.9617347 31.00022,20.9617347 C46.014835,20.9617347 61.973155,24.0765306 61.973155,29.90625 C61.973155,35.7149235 46.014835,38.8507653 31.00022,38.8507653 L31.00022,38.8507653 Z" id="Fill-5794"></path>
                <path d="M31.00022,27.740625 C29.83969,27.740625 28.89392,28.7087372 28.89392,29.90625 C28.89392,31.0848214 29.83969,32.0529337 31.00022,32.0529337 C32.16488,32.0529337 33.11065,31.0848214 33.11065,29.90625 C33.11065,28.7087372 32.16488,27.740625 31.00022,27.740625 L31.00022,27.740625 Z M31.00022,34.1575255 C28.69981,34.1575255 26.82892,32.2444515 26.82892,29.90625 C26.82892,27.5491071 28.69981,25.6339286 31.00022,25.6339286 C33.302695,25.6339286 35.17565,27.5491071 35.17565,29.90625 C35.17565,32.2444515 33.302695,34.1575255 31.00022,34.1575255 L31.00022,34.1575255 Z" id="Fill-5795"></path>
            </g>
        </g>
    </g>
</svg>
