<?xml version="1.0" encoding="UTF-8"?>
<svg width="19px" height="12px" viewBox="0 0 19 12" version="1.1" xmlns="http://www.w3.org/2000/svg" xmlns:xlink="http://www.w3.org/1999/xlink">
    <!-- Generator: Sketch 43 (38999) - http://www.bohemiancoding.com/sketch -->
    <title>ico-user-group</title>
    <desc>Created with Sketch.</desc>
    <defs></defs>
    <g id="Page-1" stroke="none" stroke-width="1" fill-rule="evenodd">
        <g id="main" transform="translate(-261.000000, -3558.000000)" >
            <g id="Group-14" transform="translate(261.000000, 3554.000000)">
                <path d="M12.6031661,9.14438789 C14.0304747,9.14438789 15.1216988,8.0310742 15.1216988,6.56951514 C15.1216988,5.11331369 14.0304747,4 12.6031661,4 C11.1758575,4 10.0846334,5.11331369 10.0846334,6.56951514 C10.0846334,8.0310742 11.1758575,9.14438789 12.6031661,9.14438789 Z M5.88357804,9.14438789 C7.3108866,9.14438789 8.40211073,8.0310742 8.40211073,6.56951514 C8.40211073,5.11331369 7.3108866,4 5.88357804,4 C4.45101816,4 3.35979403,5.11331369 3.35979403,6.56951514 C3.35979403,8.0310742 4.45101816,9.14438789 5.88357804,9.14438789 Z M5.88357804,10.8556121 C3.95109257,10.8556121 0,11.8853469 0,13.8569515 L0,16 L11.7619048,16 L11.7619048,13.8569515 C11.7619048,11.8853469 7.81501325,10.8556121 5.88357804,10.8556121 Z M12.6031661,10.8556121 C12.3532033,10.8556121 12.0990395,10.8556121 11.7619048,10.9434771 C12.7712083,11.6303241 13.4444274,12.6557728 13.4444274,13.8569515 L13.4444274,16 L18.4867441,16 L18.4867441,13.8569515 C18.4867441,11.8853469 14.5356516,10.8556121 12.6031661,10.8556121 Z" id="ico-user-group"></path>
            </g>
        </g>
    </g>
</svg>
