<?xml version="1.0" encoding="UTF-8"?>
<svg width="56px" height="45px" viewBox="0 0 56 45" version="1.1" xmlns="http://www.w3.org/2000/svg" xmlns:xlink="http://www.w3.org/1999/xlink">
    <!-- Generator: Sketch 43 (38999) - http://www.bohemiancoding.com/sketch -->
    <title>ico-tattooache</title>
    <desc>Created with Sketch.</desc>
    <defs></defs>
    <g id="Page-1" stroke="none" stroke-width="1" fill-rule="evenodd">
        <g id="main" transform="translate(-690.000000, -1126.000000)">
            <g id="ico-tattooache" transform="translate(690.000000, 1126.000000)">
                <path d="M28.1955791,7.3589881 C39.8003537,7.3589881 48.5197171,14.9410714 53.3584439,22.6560119 C51.5239611,10.2744643 41.5104332,1.95059524 27.7536693,1.95059524 C14.7321839,1.95059524 6.85950486,6.82386905 3.32608311,9.71904762 C2.52210433,10.3833333 2.26030062,11.4535714 2.67064545,12.4130952 L4.577542,16.8066071 C4.8913351,17.5428571 5.544916,18.0429167 6.33032714,18.1702381 C7.11759505,18.2994048 7.90671972,18.022619 8.43032714,17.4505952 C11.8560566,13.6697024 18.9804598,7.3589881 28.1955791,7.3589881 L28.1955791,7.3589881 Z M54.5894783,27.7654762 C54.2348364,27.7654762 53.9024757,27.5625 53.7465075,27.2303571 C49.8621574,18.9083333 40.8401415,9.20422619 28.1955791,9.20422619 C19.6971706,9.20422619 13.0276746,15.1440476 9.80804598,18.6869048 C8.86666667,19.7202381 7.43881521,20.23875 6.02767462,19.9970238 C4.61467728,19.7571429 3.43563218,18.8548214 2.87117595,17.5428571 L0.964279399,13.1327381 C0.23642794,11.4535714 0.721043324,9.46071429 2.14146773,8.29821429 C5.86799293,5.23511905 14.1510168,0.105357143 27.7536693,0.105357143 C44.0096375,0.105357143 55.3916004,10.9756548 55.5160035,26.586369 C55.5419982,26.6601786 55.5549956,26.7505952 55.5549956,26.8428571 C55.5549956,27.3595238 55.1167993,27.7304167 54.6099027,27.7654762 L54.5894783,27.7654762 L54.5894783,27.7654762 Z" id="Fill-2843"></path>
                <path d="M29.1815208,39.1893452 C19.6637489,39.1893452 11.9191866,34.0577381 11.9191866,27.7470238 C11.9191866,27.2303571 12.3351017,26.8244048 12.8475685,26.8244048 C13.3618921,26.8244048 13.7759505,27.2303571 13.7759505,27.7470238 C13.7759505,33.0447024 20.6886826,37.3441071 29.1815208,37.3441071 C37.6799293,37.3441071 44.5908046,33.0447024 44.5908046,27.7470238 C44.5908046,27.2303571 45.0067197,26.8244048 45.5191866,26.8244048 C46.0335102,26.8244048 46.4475685,27.2303571 46.4475685,27.7470238 C46.4475685,34.0577381 38.7030062,39.1893452 29.1815208,39.1893452" id="Fill-2844"></path>
                <path d="M10.515473,36.9363095 C10.2648099,36.9363095 10.0141468,36.8458929 9.83032714,36.6410714 C9.48311229,36.273869 9.50910698,35.6815476 9.88603006,35.3327976 L13.8892131,31.677381 C14.2661362,31.3470833 14.8528736,31.3636905 15.2000884,31.7345833 C15.5473033,32.1220833 15.5213086,32.6941071 15.1443855,33.0447024 L11.1430592,36.6964286 C10.9648099,36.8625 10.7401415,36.9363095 10.515473,36.9363095" id="Fill-2845"></path>
                <path d="M15.3504863,41.2560119 C15.1351017,41.2560119 14.9197171,41.1822024 14.7451813,41.0345833 C14.3552608,40.7005952 14.3125553,40.1285714 14.6467728,39.7410714 L18.3974359,35.4066071 C18.7316534,35.0375595 19.3183908,34.9803571 19.7064545,35.3125 C20.0945181,35.6464881 20.1390805,36.235119 19.804863,36.622619 L16.0541998,40.9423214 C15.8703802,41.1619048 15.6104332,41.2560119 15.3504863,41.2560119" id="Fill-2846"></path>
                <path d="M21.9865606,43.7655357 C21.8881521,43.7655357 21.7860301,43.7452381 21.6876216,43.7101786 C21.2030062,43.5422619 20.9430592,43.0274405 21.1083112,42.5458333 L22.8815208,37.3791667 C23.0467728,36.8827976 23.5740937,36.622619 24.0605659,36.7905357 C24.5451813,36.9566071 24.8051282,37.4917262 24.6398762,37.9696429 L22.8666667,43.1363095 C22.7348364,43.5238095 22.3727675,43.7655357 21.9865606,43.7655357" id="Fill-2847"></path>
                <path d="M47.4595049,36.9363095 C47.2348364,36.9363095 47.010168,36.8625 46.8319187,36.6964286 L43.0626879,33.266131 C42.6857648,32.9136905 42.6616269,32.3232143 43.0088417,31.9560119 C43.3560566,31.585119 43.942794,31.5482143 44.3197171,31.8988095 L48.0870911,35.3327976 C48.4658709,35.6815476 48.4900088,36.273869 48.142794,36.6410714 C47.9608311,36.8458929 47.710168,36.9363095 47.4595049,36.9363095" id="Fill-2848"></path>
                <path d="M42.6226348,41.2560119 C42.3626879,41.2560119 42.1027409,41.1619048 41.9189213,40.9423214 L38.3725022,36.8458929 C38.0364279,36.4565476 38.0809903,35.886369 38.4690539,35.552381 C38.8552608,35.2202381 39.4419982,35.2571429 39.7780725,35.6464881 L43.3263484,39.7410714 C43.6605659,40.1285714 43.6160035,40.7005952 43.2279399,41.0345833 C43.0534041,41.1822024 42.8361627,41.2560119 42.6226348,41.2560119" id="Fill-2849"></path>
                <path d="M35.9847038,43.7655357 C35.5984969,43.7655357 35.2382847,43.5238095 35.1064545,43.1363095 L33.450221,38.3017857 C33.2831123,37.8220238 33.5430592,37.3053571 34.0295314,37.1392857 C34.5160035,36.9732143 35.0414677,37.2333929 35.2067197,37.7113095 L36.8648099,42.5458333 C37.0300619,43.0274405 36.7701149,43.5422619 36.2854996,43.7101786 C36.1852343,43.7452381 36.0849691,43.7655357 35.9847038,43.7655357" id="Fill-2850"></path>
                <path d="M28.3589744,44.6863095 C27.8465075,44.6863095 27.4305924,44.2803571 27.4305924,43.7655357 L27.4305924,40.0732143 C27.4305924,39.5583929 27.8465075,39.1505952 28.3589744,39.1505952 C28.8714412,39.1505952 29.2873563,39.5583929 29.2873563,40.0732143 L29.2873563,43.7655357 C29.2873563,44.2803571 28.8714412,44.6863095 28.3589744,44.6863095" id="Fill-2851"></path>
            </g>
        </g>
    </g>
</svg>
