<?xml version="1.0" encoding="UTF-8"?>
<svg width="30px" height="45px" viewBox="0 0 30 45" version="1.1" xmlns="http://www.w3.org/2000/svg" xmlns:xlink="http://www.w3.org/1999/xlink">
    <!-- Generator: Sketch 43 (38999) - http://www.bohemiancoding.com/sketch -->
    <title>ico-paint-brush</title>
    <desc>Created with Sketch.</desc>
    <defs></defs>
    <g id="Symbols" stroke="none" stroke-width="1" fill="none" fill-rule="evenodd">
        <g id="Goods" transform="translate(-106.000000, -59.000000)" fill-rule="nonzero" fill="#FFFFFF">
            <g id="ico-paint-brush" transform="translate(106.000000, 59.000000)">
                <path d="M10.2567353,14.9912402 C11.3767059,13.9592285 12.0795882,12.4841602 12.0795882,10.8481641 C12.0795882,9.67341797 11.3707059,7.76636719 9.91244118,5.01802734 C9.91244118,5.01802734 9.91235294,5.01793945 9.91235294,5.01785156 C8.65411765,2.64823242 7.31082353,0.547998047 7.25426471,0.45984375 C7.07055882,0.173320312 6.75291176,0 6.41170588,0 C6.0705,0 5.75285294,0.173320312 5.56914706,0.45984375 C5.51267647,0.548085938 4.16929412,2.64832031 2.91097059,5.01811523 C1.45279412,7.76654297 0.743911765,9.67350586 0.743911765,10.848252 C0.743911765,12.4838086 1.44644118,13.9584375 2.56588235,14.9905371 C1.96032353,15.1058496 1.40320588,15.3979102 0.957705882,15.8417578 C0.3705,16.4267578 0.0472941176,17.2043262 0.0472941176,18.031377 C0.0472941176,19.6442578 1.29167647,20.9722852 2.87417647,21.114668 L2.87417647,41.4762012 C2.87417647,43.4191992 4.46117647,45 6.41170588,45 C8.36232353,45 9.94932353,43.4191992 9.94932353,41.4762012 L9.94932353,21.1148438 C10.6734706,21.050332 11.3455588,20.7390234 11.8649118,20.2217871 C12.4525588,19.6378418 12.7762941,18.859834 12.7762941,18.0312012 C12.7762941,16.5247559 11.6901176,15.2667773 10.2567353,14.9912402 Z M6.41170588,2.89828125 C6.81052941,3.56176758 7.308,4.41175781 7.80688235,5.3222168 L6.41170588,6.79526367 L5.01652941,5.3222168 C5.5155,4.41175781 6.01288235,3.56176758 6.41170588,2.89828125 Z M4.04197059,7.1953418 L5.68464706,8.92977539 C5.69126471,8.93671875 5.6985,8.94269531 5.70538235,8.94946289 C5.71235294,8.95640625 5.71861765,8.96396484 5.72585294,8.97073242 C5.73185294,8.97626953 5.73820588,8.98110352 5.74438235,8.98646484 C5.75664706,8.99745117 5.76917647,9.00808594 5.78179412,9.01828125 C5.79529412,9.02926758 5.80888235,9.03972656 5.82273529,9.04983398 C5.83579412,9.05941406 5.84902941,9.06864258 5.86244118,9.07751953 C5.877,9.0871875 5.89191176,9.09615234 5.90691176,9.10494141 C5.92023529,9.11267578 5.93338235,9.12041016 5.94688235,9.12744141 C5.96311765,9.13587891 5.97944118,9.14361328 5.99594118,9.15117187 C6.00891176,9.15706055 6.02170588,9.163125 6.03494118,9.16839844 C6.05285294,9.17569336 6.07102941,9.18193359 6.08929412,9.18808594 C6.10155882,9.19230469 6.11382353,9.19678711 6.12617647,9.20047852 C6.14602941,9.20636719 6.16623529,9.21102539 6.18644118,9.21568359 C6.19764706,9.21823242 6.20867647,9.22139648 6.21997059,9.22350586 C6.24282353,9.22790039 6.26585294,9.23097656 6.28897059,9.23378906 C6.29788235,9.23484375 6.30652941,9.23660156 6.31544118,9.23748047 C6.34738235,9.24055664 6.3795,9.24222656 6.41161765,9.24222656 L6.41179412,9.24222656 L6.41197059,9.24222656 C6.44408824,9.24222656 6.47611765,9.24055664 6.50814706,9.23748047 C6.51697059,9.23668945 6.52561765,9.23493164 6.53444118,9.23387695 C6.55764706,9.23106445 6.58067647,9.22798828 6.60370588,9.22350586 C6.61473529,9.22139648 6.6255,9.21832031 6.63652941,9.21585938 C6.657,9.21120117 6.67738235,9.20636719 6.69758824,9.20039063 C6.70958824,9.19678711 6.7215,9.19239258 6.73341176,9.1884375 C6.75211765,9.18219727 6.77073529,9.17569336 6.78908824,9.16831055 C6.80179412,9.163125 6.81414706,9.15732422 6.82667647,9.15169922 C6.84370588,9.14396484 6.86055882,9.13605469 6.87723529,9.12726563 C6.89029412,9.12041016 6.90308824,9.11293945 6.91588235,9.10546875 C6.93141176,9.09650391 6.94658824,9.08727539 6.96167647,9.07725586 C6.97473529,9.06855469 6.98770588,9.05950195 7.00032353,9.05027344 C7.01452941,9.03990234 7.02838235,9.02926758 7.04214706,9.01810547 C7.05467647,9.00791016 7.06694118,8.99745117 7.07911765,8.98664063 C7.08520588,8.98119141 7.09173529,8.97635742 7.09773529,8.97082031 C7.10505882,8.96396484 7.11123529,8.95649414 7.11829412,8.94955078 C7.12508824,8.9427832 7.13232353,8.93689453 7.13894118,8.92995117 L8.78161765,7.19551758 C9.93926471,9.56311523 10.0804412,10.5239355 10.0804412,10.8484277 C10.0804412,12.8633203 8.43467647,14.5026563 6.41188235,14.5026563 C4.38908824,14.5026563 2.74332353,12.8633203 2.74332353,10.8484277 C2.74314706,10.5237598 2.88432353,9.56285156 4.04197059,7.1953418 Z M7.95,41.4762012 C7.95008824,42.3212695 7.26008824,43.0085742 6.41170588,43.0085742 C5.56341176,43.0085742 4.87332353,42.3211816 4.87332353,41.4762012 L4.87332353,21.1279395 L7.95,21.1279395 L7.95,41.4762012 Z M10.4521765,18.8127246 C10.2424412,19.0215527 9.96344118,19.1365137 9.66644118,19.1365137 L3.156,19.1365137 C2.54426471,19.1365137 2.04644118,18.6407227 2.04644118,18.0312891 C2.04644118,17.7360645 2.16176471,17.4585938 2.37141176,17.2497656 C2.58105882,17.0409375 2.85961765,16.9260645 3.156,16.9260645 L9.66644118,16.9260645 C10.2787941,16.9260645 10.7769706,17.4218555 10.7769706,18.0312891 C10.7770588,18.3269531 10.662,18.6041602 10.4521765,18.8127246 Z" id="Shape"></path>
                <path d="M29.9520882,9.961875 C29.9519118,9.94025391 29.9505,9.91854492 29.9488235,9.89683594 C29.9479412,9.88488281 29.9473235,9.8728418 29.9459118,9.86097656 C29.9437941,9.84225586 29.9405294,9.82362305 29.9373529,9.80490234 C29.9348824,9.79004883 29.9325,9.77510742 29.9292353,9.76042969 C29.9260588,9.74601562 29.9219118,9.73168945 29.9180294,9.7171875 C29.913,9.69864258 29.9081471,9.68018555 29.9021471,9.66199219 C29.8984412,9.65091797 29.8941176,9.64001953 29.8900588,9.6290332 C29.8823824,9.60829102 29.8744412,9.58772461 29.8654412,9.56768555 C29.8639412,9.56425781 29.8629706,9.56091797 29.8613824,9.55749023 L25.7239412,0.580341797 C25.7219118,0.576035156 25.7192647,0.572255859 25.7171471,0.568125 C25.7002941,0.532880859 25.6815882,0.498779297 25.6608529,0.466083984 C25.6573235,0.460546875 25.6541471,0.454658203 25.6505294,0.449121094 C25.6274118,0.414140625 25.6020882,0.380917969 25.5747353,0.349189453 C25.5681176,0.341542969 25.5612353,0.334335937 25.5543529,0.326865234 C25.5311471,0.301464844 25.5067941,0.277294922 25.4811176,0.254355469 C25.4744118,0.248378906 25.4680588,0.242138672 25.4610882,0.236337891 C25.4295,0.209619141 25.3962353,0.184921875 25.3612941,0.162246094 C25.3545882,0.157851562 25.3477059,0.154072266 25.3409118,0.149853516 C25.3100294,0.130869141 25.2781765,0.113466797 25.2451765,0.0978222656 C25.2378529,0.0943066406 25.2307059,0.0906152344 25.2232941,0.0872753906 C25.1842059,0.0698730469 25.1441471,0.0545800781 25.1025,0.0421875 C25.0979118,0.04078125 25.0932353,0.0399023437 25.0885588,0.0385839844 C25.0522059,0.0283007812 25.0148824,0.0203027344 24.9769412,0.0140625 C24.9664412,0.0123925781 24.9560294,0.0106347656 24.9454412,0.00931640625 C24.9031765,0.0038671875 24.8598529,0 24.8156471,0 C24.7714412,0 24.7282059,0.0038671875 24.6855,0.00940429687 C24.675,0.0108105469 24.6645882,0.0124804687 24.6540882,0.0141503906 C24.6159706,0.0203027344 24.5786471,0.0283007812 24.5420294,0.038671875 C24.5375294,0.0399902344 24.5329412,0.04078125 24.5285294,0.0421875 C24.4869706,0.0546679687 24.4466471,0.0698730469 24.4074706,0.0873632812 C24.4001471,0.0905273437 24.3932647,0.09421875 24.3861176,0.0976464844 C24.3529412,0.113378906 24.3208235,0.13078125 24.2898529,0.150029297 C24.2832353,0.154072266 24.2764412,0.157851562 24.2698235,0.162070312 C24.2349706,0.184746094 24.2015294,0.20953125 24.1698529,0.23625 C24.1630588,0.241962891 24.1567941,0.248203125 24.1501765,0.254091797 C24.1244118,0.277119141 24.0998824,0.301289062 24.0765882,0.326777344 C24.0697941,0.334248047 24.0628235,0.341455078 24.0562941,0.349101562 C24.0291176,0.380742187 24.0037059,0.413876953 23.9805882,0.448857422 C23.9768824,0.454570312 23.9736176,0.460546875 23.97,0.466259766 C23.9494412,0.498779297 23.9308235,0.532705078 23.9141471,0.567509766 C23.9120294,0.571904297 23.9092941,0.575683594 23.9071765,0.580166016 L19.7696471,9.55749023 C19.7680588,9.56091797 19.7670882,9.56443359 19.7654118,9.56786133 C19.7565,9.58763672 19.7487353,9.60802734 19.7411471,9.62841797 C19.7369118,9.63966797 19.7325882,9.65074219 19.7287941,9.66208008 C19.7227941,9.68009766 19.7178529,9.69855469 19.713,9.71692383 C19.7091176,9.73133789 19.7049706,9.74583984 19.7017941,9.7603418 C19.6986176,9.77501953 19.6963235,9.78978516 19.6936765,9.80463867 C19.6905,9.82335937 19.6871471,9.84208008 19.6851176,9.86080078 C19.6837941,9.87266602 19.6830882,9.88461914 19.6822059,9.89657227 C19.6805294,9.91828125 19.6791176,9.93999023 19.6789412,9.96169922 C19.6789412,9.96547852 19.6783235,9.96908203 19.6783235,9.97286133 L19.6783235,38.8407129 L19.6785,38.8407129 L19.6785,39.8642871 C19.6785,42.685752 21.9830294,44.9811914 24.8156471,44.9811914 C27.6481765,44.9811914 29.9526176,42.685752 29.9526176,39.8642871 L29.9526176,38.8407129 L29.9526176,9.97303711 C29.9527059,9.96925781 29.9521765,9.9656543 29.9520882,9.961875 Z M23.8160294,5.55117187 L23.8160294,6.05487305 C23.8160294,6.60480469 24.2635588,7.05058594 24.8156471,7.05058594 C25.3676471,7.05058594 25.8152647,6.60480469 25.8152647,6.05487305 L25.8152647,5.55125977 L27.3942353,8.97732422 L22.2370588,8.97732422 L23.8160294,5.55117187 Z M24.8155588,42.9896777 C23.0853529,42.9896777 21.6776471,41.5875586 21.6776471,39.8641113 L21.6776471,39.83625 L27.9532059,39.83625 L27.9532059,39.8641113 L27.9532941,39.8641113 C27.9533824,41.5874707 26.5458529,42.9896777 24.8155588,42.9896777 Z M27.9533824,37.8448242 L21.6778235,37.8448242 L21.6778235,36.2018848 L27.9533824,36.2018848 L27.9533824,37.8448242 Z M27.9534706,34.2105469 L21.6779118,34.2105469 L21.6779118,10.96875 L23.8161176,10.96875 L23.8161176,24.4884375 C23.8161176,25.0383691 24.2637353,25.4841504 24.8157353,25.4841504 C25.3677353,25.4841504 25.8153529,25.0383691 25.8153529,24.4884375 L25.8153529,10.96875 L27.9535588,10.96875 L27.9535588,34.2105469 L27.9534706,34.2105469 Z" id="Shape"></path>
                <path d="M24.8156471,27.4257422 C24.2636471,27.4257422 23.8160294,27.8715234 23.8160294,28.4214551 L23.8160294,29.6163281 C23.8160294,30.1662598 24.2636471,30.612041 24.8156471,30.612041 C25.3676471,30.612041 25.8152647,30.1662598 25.8152647,29.6163281 L25.8152647,28.4214551 C25.8152647,27.8715234 25.3676471,27.4257422 24.8156471,27.4257422 Z" id="Shape"></path>
            </g>
        </g>
    </g>
</svg>