<?xml version="1.0" encoding="UTF-8"?>
<svg width="14px" height="22px" viewBox="0 0 14 22" version="1.1" xmlns="http://www.w3.org/2000/svg" xmlns:xlink="http://www.w3.org/1999/xlink">
    <!-- Generator: Sketch 43 (38999) - http://www.bohemiancoding.com/sketch -->
    <title>input-mobile-dark</title>
    <desc>Created with Sketch.</desc>
    <defs></defs>
    <g id="Page-1" stroke="none" stroke-width="1" fill="none" fill-rule="evenodd">
        <g id="services_tattoo" transform="translate(-753.000000, -4050.000000)" fill="#18181D">
            <g id="Group-11" transform="translate(0.000000, 3900.000000)">
                <g id="Group-8" transform="translate(100.000000, 141.000000)">
                    <path d="M664.900109,9 L655.099891,9 C653.945055,9 653,9.92501703 653,11.0553674 L653,28.8695328 C653,30.0000973 653.945055,30.9251679 655.099891,30.9251679 L664.900109,30.9251679 C666.054945,30.9251679 667,30.0000973 667,28.8695328 L667,11.0553674 C667,9.92501703 666.054945,9 664.900109,9 Z M657.200055,10.7128954 L662.799945,10.7128954 L662.799945,10.0276837 L657.200055,10.0276837 L657.200055,10.7128954 Z M660,29.5547445 C659.226883,29.5547445 658.599891,28.9412603 658.599891,28.1843212 C658.599891,27.4276496 659.226883,26.8141655 660,26.8141655 C660.773117,26.8141655 661.400109,27.4276496 661.400109,28.1843212 C661.400109,28.9412603 660.773117,29.5547445 660,29.5547445 Z M654.400109,25.4437421 L665.599891,25.4437421 L665.599891,11.7405791 L654.400109,11.7405791 L654.400109,25.4437421 Z" id="input-mobile-dark"></path>
                </g>
            </g>
        </g>
    </g>
</svg>