<?xml version="1.0" encoding="UTF-8"?>
<svg width="17px" height="17px" viewBox="0 0 17 17" version="1.1" xmlns="http://www.w3.org/2000/svg" xmlns:xlink="http://www.w3.org/1999/xlink">
    <!-- Generator: Sketch 43 (38999) - http://www.bohemiancoding.com/sketch -->
    <title>input-calendar</title>
    <desc>Created with Sketch.</desc>
    <defs></defs>
    <g id="Page-1" stroke="none" stroke-width="1" fill="none" fill-rule="evenodd">
        <g id="popup_service" transform="translate(-469.000000, -391.000000)" fill="#FFFFFF">
            <g id="Group" transform="translate(459.000000, 380.000000)">
                <path d="M12.6332219,20.2980459 L12.6332219,19.114898 C12.6332219,18.9378724 12.7755102,18.7957577 12.9523622,18.7957577 L14.1354668,18.7957577 C14.3124923,18.7957577 14.4546505,18.9378724 14.4546505,19.114898 L14.4546505,20.2980459 C14.4546505,20.474898 14.3124923,20.6171862 14.1354668,20.6171862 L12.9523622,20.6171862 C12.7755102,20.6136301 12.6332219,20.4715153 12.6332219,20.2980459 Z M15.4261658,20.6136301 L16.6090969,20.6136301 C16.7861224,20.6136301 16.9284541,20.4715153 16.9284541,20.2944898 L16.9284541,19.1113418 C16.9284541,18.9344898 16.7861224,18.7922015 16.6090969,18.7922015 L15.4261658,18.7922015 C15.2491403,18.7922015 15.1070255,18.9344898 15.1070255,19.1113418 L15.1070255,20.2944898 C15.1104082,20.4715153 15.2526964,20.6136301 15.4261658,20.6136301 Z M17.8997959,20.6136301 L19.0829005,20.6136301 C19.2597959,20.6136301 19.4020842,20.4715153 19.4020842,20.2944898 L19.4020842,19.1113418 C19.4020842,18.9344898 19.2597959,18.7922015 19.0829005,18.7922015 L17.8997959,18.7922015 C17.7227704,18.7922015 17.5806556,18.9344898 17.5806556,19.1113418 L17.5806556,20.2944898 C17.5840383,20.4715153 17.7263265,20.6136301 17.8997959,20.6136301 Z M15.4261658,23.024898 L16.6090969,23.024898 C16.7861224,23.024898 16.9284541,22.8826097 16.9284541,22.7057577 L16.9284541,21.5226531 C16.9284541,21.345801 16.7861224,21.2034694 16.6090969,21.2034694 L15.4261658,21.2034694 C15.2491403,21.2034694 15.1070255,21.345801 15.1070255,21.5226531 L15.1070255,22.7057577 C15.1104082,22.8826097 15.2526964,23.024898 15.4261658,23.024898 Z M17.8997959,23.024898 L19.0829005,23.024898 C19.2597959,23.024898 19.4020842,22.8826097 19.4020842,22.7057577 L19.4020842,21.5226531 C19.4020842,21.345801 19.2597959,21.2034694 19.0829005,21.2034694 L17.8997959,21.2034694 C17.7227704,21.2034694 17.5806556,21.345801 17.5806556,21.5226531 L17.5806556,22.7057577 C17.5840383,22.8826097 17.7263265,23.024898 17.8997959,23.024898 Z M20.3769821,23.024898 L21.5599566,23.024898 C21.7369821,23.024898 21.8792704,22.8826097 21.8792704,22.7057577 L21.8792704,21.5226531 C21.8792704,21.345801 21.7369821,21.2034694 21.5599566,21.2034694 L20.3769821,21.2034694 C20.1999566,21.2034694 20.0578418,21.345801 20.0578418,21.5226531 L20.0578418,22.7057577 C20.0578418,22.8826097 20.1999566,23.024898 20.3769821,23.024898 Z M12.9523622,23.024898 L14.1354668,23.024898 C14.3124923,23.024898 14.4546505,22.8826097 14.4546505,22.7057577 L14.4546505,21.5226531 C14.4546505,21.345801 14.3124923,21.2034694 14.1354668,21.2034694 L12.9523622,21.2034694 C12.7755102,21.2034694 12.6332219,21.345801 12.6332219,21.5226531 L12.6332219,22.7057577 C12.6332219,22.8826097 12.7755102,23.024898 12.9523622,23.024898 Z M17.8997959,25.4326531 L19.0829005,25.4326531 C19.2597959,25.4326531 19.4020842,25.2903648 19.4020842,25.1135128 L19.4020842,23.9303648 C19.4020842,23.7535128 19.2597959,23.6112245 19.0829005,23.6112245 L17.8997959,23.6112245 C17.7227704,23.6112245 17.5806556,23.7535128 17.5806556,23.9303648 L17.5806556,25.1135128 C17.5840383,25.2903648 17.7263265,25.4326531 17.8997959,25.4326531 Z M15.4261658,25.4326531 L16.6090969,25.4326531 C16.7861224,25.4326531 16.9284541,25.2903648 16.9284541,25.1135128 L16.9284541,23.9303648 C16.9284541,23.7535128 16.7861224,23.6112245 16.6090969,23.6112245 L15.4261658,23.6112245 C15.2491403,23.6112245 15.1070255,23.7535128 15.1070255,23.9303648 L15.1070255,25.1135128 C15.1104082,25.2903648 15.2526964,25.4326531 15.4261658,25.4326531 Z M20.3769821,20.6136301 L21.5599566,20.6136301 C21.7369821,20.6136301 21.8792704,20.4715153 21.8792704,20.2944898 L21.8792704,19.1113418 C21.8792704,18.9344898 21.7369821,18.7922015 21.5599566,18.7922015 L20.3769821,18.7922015 C20.1999566,18.7922015 20.0578418,18.9344898 20.0578418,19.1113418 L20.0578418,20.2944898 C20.0578418,20.4715153 20.1999566,20.6136301 20.3769821,20.6136301 Z M22.8506122,23.024898 L24.0337602,23.024898 C24.2106122,23.024898 24.3529005,22.8826097 24.3529005,22.7057577 L24.3529005,21.5226531 C24.3529005,21.345801 24.2106122,21.2034694 24.0337602,21.2034694 L22.8506122,21.2034694 C22.6735867,21.2034694 22.5314719,21.345801 22.5314719,21.5226531 L22.5314719,22.7057577 C22.5348546,22.8826097 22.6771429,23.024898 22.8506122,23.024898 Z M20.3769821,25.4326531 L21.5599566,25.4326531 C21.7369821,25.4326531 21.8792704,25.2903648 21.8792704,25.1135128 L21.8792704,23.9303648 C21.8792704,23.7535128 21.7369821,23.6112245 21.5599566,23.6112245 L20.3769821,23.6112245 C20.1999566,23.6112245 20.0578418,23.7535128 20.0578418,23.9303648 L20.0578418,25.1135128 C20.0578418,25.2903648 20.1999566,25.4326531 20.3769821,25.4326531 Z M10,26.1437908 L10,14.719227 C10,13.6956709 10.8326097,12.8630612 11.8561658,12.8630612 L13.9377985,12.8630612 L13.9377985,11.7113112 C13.9377985,11.336574 14.2396786,11.0346939 14.614199,11.0346939 L15.6724923,11.0346939 C16.0471862,11.0346939 16.3488929,11.336574 16.3488929,11.7113112 L16.3488929,12.8595051 L20.6163699,12.8595051 L20.6163699,11.7113112 C20.6163699,11.336574 20.91825,11.0346939 21.2927704,11.0346939 L22.3510638,11.0346939 C22.7257577,11.0346939 23.0274643,11.336574 23.0274643,11.7113112 L23.0274643,12.8595051 L25.1090969,12.8595051 C26.1326531,12.8595051 26.9652628,13.6922883 26.9652628,14.7156709 L26.9652628,26.1437908 C26.9652628,27.1673469 26.1326531,27.9999566 25.1090969,27.9999566 L11.8561658,27.9999566 C10.8326097,27.9999566 10,27.1673469 10,26.1437908 Z M11.4363699,26.1437908 C11.4363699,26.3764133 11.6271429,26.5671429 11.8595485,26.5671429 L25.1090969,26.5671429 C25.3417194,26.5671429 25.532449,26.3764133 25.532449,26.1437908 L25.532449,17.6820842 L11.4363699,17.6820842 L11.4363699,26.1437908 Z" id="input-calendar"></path>
            </g>
        </g>
    </g>
</svg>