<?xml version="1.0" encoding="UTF-8"?>
<svg width="14px" height="22px" viewBox="0 0 14 22" version="1.1" xmlns="http://www.w3.org/2000/svg" xmlns:xlink="http://www.w3.org/1999/xlink">
    <!-- Generator: Sketch 43 (38999) - http://www.bohemiancoding.com/sketch -->
    <title>input-mobile</title>
    <desc>Created with Sketch.</desc>
    <defs></defs>
    <g id="Page-1" stroke="none" stroke-width="1" fill="none" fill-rule="evenodd">
        <g id="popup_service" transform="translate(-732.000000, -269.000000)" fill="#FFFFFF">
            <path d="M743.900109,269 L734.099891,269 C732.945055,269 732,269.925017 732,271.055367 L732,288.869533 C732,290.000097 732.945055,290.925168 734.099891,290.925168 L743.900109,290.925168 C745.054945,290.925168 746,290.000097 746,288.869533 L746,271.055367 C746,269.925017 745.054945,269 743.900109,269 Z M736.200055,270.712895 L741.799945,270.712895 L741.799945,270.027684 L736.200055,270.027684 L736.200055,270.712895 Z M739,289.554745 C738.226883,289.554745 737.599891,288.94126 737.599891,288.184321 C737.599891,287.42765 738.226883,286.814165 739,286.814165 C739.773117,286.814165 740.400109,287.42765 740.400109,288.184321 C740.400109,288.94126 739.773117,289.554745 739,289.554745 Z M733.400109,285.443742 L744.599891,285.443742 L744.599891,271.740579 L733.400109,271.740579 L733.400109,285.443742 Z" id="input-mobile"></path>
        </g>
    </g>
</svg>