<?xml version="1.0" encoding="UTF-8"?>
<svg width="17px" height="17px" viewBox="0 0 17 17" version="1.1" xmlns="http://www.w3.org/2000/svg" xmlns:xlink="http://www.w3.org/1999/xlink">
    <!-- Generator: Sketch 43 (38999) - http://www.bohemiancoding.com/sketch -->
    <title>time</title>
    <desc>Created with Sketch.</desc>
    <defs></defs>
    <g id="Page-1" stroke="none" stroke-width="1" fill="none" fill-rule="evenodd">
        <g id="popup_service" transform="translate(-729.000000, -391.000000)" fill="#FFFFFF">
            <g id="Group" transform="translate(459.000000, 380.000000)">
                <g id="time" transform="translate(270.000000, 11.000000)">
                    <path d="M15.7211287,4.34526733 C14.9677426,3.05461386 13.9458911,2.03293069 12.6547327,1.27937624 C11.3640792,0.525990099 9.95442574,0.149128713 8.42577228,0.149128713 C6.89711881,0.149128713 5.48746535,0.525990099 4.19681188,1.27937624 C2.90548515,2.03225743 1.88363366,3.05461386 1.13024752,4.34526733 C0.376693069,5.63659406 0,7.04624752 0,8.57490099 C0,10.1028812 0.376693069,11.5125347 1.13024752,12.8038614 C1.88363366,14.0945149 2.90548515,15.1168713 4.19613861,15.8697525 C5.48746535,16.6231386 6.89711881,17 8.42577228,17 C9.95442574,17 11.3640792,16.6231386 12.6547327,15.8697525 C13.9453861,15.1168713 14.9677426,14.0945149 15.7211287,12.8038614 C16.4740099,11.5125347 16.850703,10.1028812 16.850703,8.57490099 C16.850703,7.04624752 16.4740099,5.63592079 15.7211287,4.34526733 Z M13.5929307,11.5697624 C13.0590297,12.4837228 12.3344257,13.2081584 11.4206337,13.7420594 C10.5066733,14.2759604 9.50788119,14.5422376 8.42577228,14.5422376 C7.34349505,14.5422376 6.34470297,14.2759604 5.43091089,13.7420594 C4.51627723,13.2081584 3.79234653,12.4837228 3.25844554,11.5697624 C2.72471287,10.6551287 2.45776238,9.65717822 2.45776238,8.57490099 C2.45776238,7.4919505 2.72471287,6.494 3.25844554,5.57936634 C3.79234653,4.66540594 4.51627723,3.94164356 5.43091089,3.40774257 C6.34470297,2.87384158 7.34282178,2.60689109 8.42577228,2.60689109 C9.50788119,2.60689109 10.5066733,2.87384158 11.4206337,3.40774257 C12.3344257,3.94164356 13.0590297,4.66540594 13.5929307,5.57936634 C14.1268317,6.494 14.3931089,7.4919505 14.3931089,8.57490099 C14.3931089,9.65717822 14.1268317,10.6551287 13.5929307,11.5697624 Z" id="Fill-1"></path>
                    <path d="M9.47893069,4.36176238 L8.77688119,4.36176238 C8.67420792,4.36176238 8.5900495,4.39458416 8.52440594,4.46039604 C8.45859406,4.5260396 8.42577228,4.61019802 8.42577228,4.71287129 L8.42577228,8.57490099 L5.9680099,8.57490099 C5.86550495,8.57490099 5.78134653,8.60772277 5.71553465,8.67286139 C5.64972277,8.73867327 5.61690099,8.82283168 5.61690099,8.92533663 L5.61690099,9.62755446 C5.61690099,9.73005941 5.64972277,9.81421782 5.71553465,9.8800297 C5.78134653,9.94584158 5.86550495,9.97866337 5.9680099,9.97866337 L9.47893069,9.97866337 C9.58160396,9.97866337 9.66576238,9.94584158 9.73073267,9.8800297 C9.79654455,9.81421782 9.8300396,9.73005941 9.8300396,9.62755446 L9.8300396,4.71287129 C9.8300396,4.61019802 9.79654455,4.52671287 9.73073267,4.46039604 C9.66508911,4.39458416 9.58093069,4.36176238 9.47893069,4.36176238 Z" id="Fill-2"></path>
                </g>
            </g>
        </g>
    </g>
</svg>