<?xml version="1.0" encoding="UTF-8"?>
<svg width="13px" height="18px" viewBox="0 0 13 18" version="1.1" xmlns="http://www.w3.org/2000/svg" xmlns:xlink="http://www.w3.org/1999/xlink">
    <!-- Generator: Sketch 43 (38999) - http://www.bohemiancoding.com/sketch -->
    <title>avatar (1)</title>
    <desc>Created with Sketch.</desc>
    <defs></defs>
    <g id="Page-1" stroke="none" stroke-width="1" fill="none" fill-rule="evenodd">
        <g id="popup_service" transform="translate(-472.000000, -271.000000)" fill="#FFFFFF">
            <g id="avatar-(1)" transform="translate(472.000000, 271.000000)">
                <path d="M6.48732099,0 C8.5176,0 10.1634963,1.70249023 10.1634963,3.80262109 C10.1634963,5.90275195 8.5176,7.60527539 6.48732099,7.60527539 C4.45704198,7.60527539 2.81117778,5.90275195 2.81117778,3.80262109 C2.81117778,1.70249023 4.45704198,0 6.48732099,0" id="Fill-1"></path>
                <path d="M11.2447111,18 C12.2001309,18 12.9746741,17.1988086 12.9746741,16.2105176 C12.9746741,12.5044512 10.0701531,9.5 6.48732099,9.5 C2.90452099,9.5 0,12.5044512 0,16.2105176 C0,17.1988086 0.77454321,18 1.72996296,18 L11.2447111,18" id="Fill-3"></path>
            </g>
        </g>
    </g>
</svg>