<?xml version="1.0" encoding="UTF-8"?>
<svg width="206px" height="65px" viewBox="0 0 206 65" version="1.1" xmlns="http://www.w3.org/2000/svg" xmlns:xlink="http://www.w3.org/1999/xlink">
    <!-- Generator: Sketch 43 (38999) - http://www.bohemiancoding.com/sketch -->
    <title>logo</title>
    <desc>Created with Sketch.</desc>
    <defs>
        <polygon id="path-1" points="123.490217 46.2414186 123.490217 0.42385102 0.126351486 0.42385102 0.126351486 46.2414186"></polygon>
    </defs>
    <g id="Page-1" stroke="none" stroke-width="1" fill="none" fill-rule="evenodd">
        <g id="main" transform="translate(-14.000000, -8.000000)">
            <g id="logo" transform="translate(14.000000, 8.000000)">
                <g id="Group-3" transform="translate(82.540647, 1.340551)">
                    <mask id="mask-2" fill="white">
                        <use xlink:href="#path-1"></use>
                    </mask>
                    <g id="Clip-2"></g>
                    <path d="M104.653374,28.8342254 C104.764715,27.0534137 105.906351,23.7494122 109.050555,21.6030993 C110.229828,20.7980307 112.541328,19.2845017 113.306601,18.1235928 C113.270533,19.0445913 113.119987,20.0299952 112.742055,21.3100543 C112.555442,21.9380078 112.354715,22.5257079 112.102237,23.1407803 C111.558078,24.2115215 110.974715,25.3192959 110.334896,26.4737643 C110.334896,26.4737643 108.351146,30.3799571 106.55401,33.3071865 C106.023965,32.8241454 104.493419,31.3782422 104.653374,28.8342254 L104.653374,28.8342254 Z M43.1900554,32.3040711 C42.3479418,33.8771751 41.4556463,35.3262986 40.5131691,36.6562719 C39.57226,37.9878554 38.6282145,39.0907994 37.6888736,39.9747647 C36.7448281,40.8555097 35.9215327,41.2950772 35.2158509,41.2950772 C34.5101691,41.2950772 34.2310327,40.7073771 34.3815781,39.5319769 C34.5336918,38.3581869 34.9445554,36.8994026 35.6188736,35.1540139 C36.2916236,33.4118455 37.17451,31.552137 38.2675327,29.5845494 C39.3605554,27.6153516 40.4974872,25.8264891 41.6736236,24.2227925 C42.8528963,22.6158756 44.0133509,21.3631888 45.1565554,20.4647323 C46.2981918,19.5678859 47.2751691,19.3263653 48.0843509,19.7385604 C48.38701,19.9140654 48.5610781,20.250584 48.6143963,20.7497266 C48.66301,21.2504792 48.6049872,21.8478401 48.4356236,22.5369788 C48.4356236,22.5369788 44.0290327,30.7325772 43.1900554,32.3040711 L43.1900554,32.3040711 Z M118.734078,26.4753744 C119.337828,26.6492692 119.642055,27.1323104 119.642055,27.9277182 C119.642055,28.723126 119.62951,29.3076058 119.141805,30.7084251 C118.763874,31.798488 117.402692,34.791733 115.763942,36.9750791 C113.76451,39.6366359 110.681465,41.0358451 109.005078,41.0358451 C108.438965,41.0358451 107.808555,40.7250886 107.908919,40.1035756 C108.009283,39.4804526 108.286851,38.6705535 108.740055,37.6674381 C108.868646,37.3872742 109.027033,37.0700772 109.182283,36.7593207 L109.188555,36.7593207 C109.339101,36.4501744 109.506896,36.1265368 109.674692,35.7996789 C109.798578,35.5645989 109.919328,35.3327391 110.052624,35.0863881 C110.209442,34.7949533 110.361555,34.5083489 110.537192,34.1943721 C111.277374,32.8837205 112.052055,31.552137 112.858101,30.2076724 C114.775987,27.0276515 117.114146,23.4177239 119.874146,19.3762795 C119.571487,18.9270513 119.116715,18.5148561 118.511396,18.1332536 C118.006442,17.8224971 117.333692,17.5358927 116.493146,17.2782708 C115.847055,17.0786138 115.030033,16.9803954 114.125192,16.9337014 C115.895669,15.7518607 116.538624,10.0052811 113.289351,7.33728373 C114.33376,10.1179907 112.412737,12.9888653 110.788101,14.3945151 C109.751533,15.2897513 108.315078,16.2075295 106.808055,18.1235928 C105.76051,19.4551763 102.495555,23.8202582 102.887601,28.6683813 C103.154192,31.962722 105.106578,33.7258222 105.911055,34.3280135 C105.097169,35.5758699 103.17301,38.7542807 101.283351,40.2984022 C100.408305,41.011693 99.0816236,41.3079583 98.3743736,41.2950772 C97.3472145,41.2741454 96.9034191,39.9844255 97.4852145,38.0715825 C98.4135781,35.0284232 99.3466463,32.9320246 100.017828,31.798488 C100.017828,31.798488 99.1772827,31.1946865 98.1234645,31.1914663 C96.6917145,31.1850257 94.7675554,31.798488 94.7675554,31.798488 C95.3744418,31.9707727 95.6771009,32.455424 95.6771009,33.2492216 C95.6771009,34.0446294 94.6813054,35.6982403 93.7309872,36.9750791 C91.7425327,39.6462967 88.64851,41.0358451 86.9736918,41.0358451 C86.40601,41.0358451 85.7756009,40.7250886 85.8759645,40.1035756 C85.9778963,39.4804526 86.2570327,38.6705535 86.7102372,37.6674381 C86.8607827,37.3341397 87.04426,36.9670284 87.2324418,36.5918664 L87.23401,36.5918664 C87.3359418,36.387379 87.4504191,36.1700105 87.5586236,35.9590825 C87.7326918,35.6290044 87.9020554,35.3005364 88.0933736,34.9495265 L88.0902372,34.9495265 C88.2251009,34.7015654 88.3521236,34.4600448 88.5011009,34.1943721 C89.2428509,32.8837205 90.0175327,31.552137 90.8235781,30.2076724 C92.7398963,27.0276515 95.0811918,23.4177239 97.8396236,19.3762795 C97.5369645,18.9270513 97.0806236,18.5148561 96.4768736,18.1332536 C95.9719191,17.8224971 95.2976009,17.5358927 94.4586236,17.2782708 C93.61651,17.0174285 93.0503963,16.8886176 91.7723281,16.8886176 C92.4560554,17.5487738 91.92601,18.8755269 91.6076691,19.7385604 C91.2861918,20.6032041 90.8329872,21.6224209 90.2449191,22.7978211 C89.6537145,23.970001 89.0060554,25.1969255 88.2988054,26.4737643 C88.2988054,26.4737643 85.1389191,32.679233 84.1321463,34.1251362 C83.2273054,35.424517 82.3020781,36.6321199 81.4113509,37.6658279 C80.5190554,38.7043664 79.6283281,39.5690101 78.7376009,40.2581488 C77.8453054,40.9488977 77.0471009,41.2950772 76.3382827,41.2950772 C75.8035327,41.2950772 75.65926,40.9488977 75.9101691,40.2581488 C76.1642145,39.5690101 76.64251,38.6447913 77.34976,37.4871027 C78.05701,36.3294141 78.8897145,35.0252029 79.8494418,33.5744693 C80.8076009,32.1221256 81.7391009,30.6279183 82.6486463,29.0902372 C83.5581918,27.5557765 84.3391463,26.0615692 84.9946463,24.6092254 C85.6501463,23.1601019 86.0296463,21.8542807 86.13001,20.696592 C86.2319418,19.5405135 85.9528054,18.6179049 85.2973054,17.9271561 C84.6418054,17.2347971 83.43901,16.8886176 81.6889191,16.8886176 C82.3303054,16.8886176 82.5216236,17.6856355 82.4196918,18.4279087 C82.3193281,19.1717921 82.0699872,19.7385604 81.5117145,20.9831965 C80.9581463,22.2262224 80.2493281,23.6350924 79.3931009,25.2065863 C78.5353054,26.7796904 77.6681009,28.3769465 76.7946236,29.9999647 C76.3351463,30.8517273 75.8976236,31.6954392 75.4757827,32.5343207 C75.4240327,32.6277087 75.3754191,32.7162662 75.3221009,32.8338062 C75.2954418,32.8933813 75.2672145,32.9561766 75.2389872,33.0157517 C74.9457372,33.6098923 74.6477827,34.204033 74.3717827,34.791733 C74.3247372,34.8931717 74.29651,34.9768988 74.2494645,35.0767273 C73.9044645,35.7320532 73.5249645,36.3744979 73.0796009,36.9750791 C71.0927145,39.6462967 67.9986918,41.0358451 66.3223054,41.0358451 C65.8330327,41.0358451 65.3233736,40.7894941 65.2528054,40.3241644 C65.27476,40.1728115 65.2873054,40.0295093 65.3374872,39.8427334 C65.6213281,38.7736023 66.1796009,37.4275276 67.0028963,35.8012891 C67.82776,34.1782708 68.8188509,32.4264415 69.9808736,30.5441911 C71.1413281,28.6603306 72.2829645,26.9085013 73.4104872,25.2822628 C74.53801,23.6592445 75.5573281,22.3131698 76.4637372,21.2408184 C77.3732827,20.1716873 77.9958509,19.6339015 78.33301,19.6339015 C78.2310781,19.3601782 78.0726918,19.0494217 77.8515781,18.7032422 C77.6351691,18.3570627 77.34976,18.0398657 76.9937827,17.7436004 C76.64251,17.4521656 76.2191009,17.1913234 75.7329645,16.9675143 C75.24526,16.7437052 74.6995327,16.611674 74.0942145,16.5778611 C73.6221918,17.0834442 72.9400327,17.8144465 72.2766918,18.7032422 C69.1920781,22.8847685 66.7441463,26.6396084 64.8764418,30.0080154 C62.5429872,33.0447342 59.6355781,33.5760795 58.4406236,33.6630269 C60.3287145,30.5876648 63.65326,25.1099781 63.4446918,25.3853115 C64.1848736,24.2469446 64.8983963,23.1407803 65.5915327,22.0716492 C66.2705554,21.0137891 66.9291918,20.0203344 67.5611691,19.0977258 C67.5643054,19.0784042 67.5611691,19.0623028 67.5643054,19.0429811 C67.2600781,18.6034137 66.8162827,18.196049 66.2188054,17.8224971 C65.7169872,17.5117407 65.0426691,17.2251362 64.2005554,16.9675143 C63.3615781,16.7098923 62.3014872,16.5778611 61.0218509,16.5778611 C61.4593736,16.9240406 61.5691463,17.5616549 61.3527372,18.4955345 C61.1316236,19.4294141 60.7270327,20.543629 60.1389645,21.8381793 C59.5508963,23.1343397 58.8279645,24.568972 57.9701691,26.1372456 C57.1108054,27.7103497 56.27026,29.2818436 55.4469645,30.8549476 C55.1160781,31.4845112 54.8118509,32.0995837 54.5091918,32.7130459 C54.4793963,32.772621 54.4480327,32.819315 54.4182372,32.8885509 C54.3994191,32.925584 54.3821691,32.9626172 54.3664872,33.0028706 C54.1579191,33.429557 53.9713054,33.8449724 53.7784191,34.2652182 C53.3299191,35.1990978 52.8406463,36.1152658 52.2039645,36.9734689 C50.2139418,39.6446865 47.1214872,41.0342349 45.4451009,41.0342349 C44.8789872,41.0342349 44.2485781,40.7234785 44.35051,40.1035756 C44.4477372,39.4804526 44.7268736,38.6689434 45.1800781,37.6658279 C45.6364191,36.6659327 46.2338963,35.5098542 46.97251,34.1943721 C47.7126918,32.8837205 48.4889418,31.552137 49.2934191,30.2076724 C51.2113054,27.0276515 53.5510327,23.4177239 56.3078963,19.3762795 C56.0068054,18.9270513 55.5504645,18.5148561 54.9482827,18.1332536 C54.44176,17.8224971 53.76901,17.5358927 52.9300327,17.2782708 C52.0863509,17.0174285 51.0278281,16.8886176 49.74976,16.8886176 C50.2860781,16.8886176 50.5558054,17.1655612 50.5558054,17.7194484 C50.5558054,18.2717254 50.3723281,19.0139987 50.0006691,19.944658 C49.9003054,19.0139987 49.6305781,18.2717254 49.1930554,17.7194484 C48.1172827,16.4732022 46.9474191,15.8790615 45.6850327,15.9289758 C44.4242145,15.9837205 43.1555554,16.4925238 41.8759191,17.4586061 C40.5978509,18.4262986 39.3448736,19.7321199 38.1169872,21.3696294 C36.9345781,22.9507841 35.8760554,24.6559194 34.9273054,26.4753744 L32.6361918,26.4753744 C33.24151,26.6492692 33.5441691,27.1323104 33.5441691,27.9277182 C33.5441691,28.723126 33.3340327,29.6553954 32.91376,30.7245265 C32.4919191,31.7968779 32.6361918,31.6084918 32.0042145,33.0157517 C31.3722372,34.4197913 30.6163736,35.6982403 29.6676236,36.9750791 C27.6776009,39.6462967 24.5835781,41.0358451 22.90876,41.0358451 C22.3426463,41.0358451 21.7106691,40.7250886 21.8126009,40.1035756 C21.9113963,39.4804526 22.1905327,38.6705535 22.6437372,37.6674381 C23.0075554,36.8704202 23.4858509,35.9445913 24.0284418,34.9495265 C24.0221691,34.9527468 24.01276,34.9543569 24.0064872,34.9591873 C24.2338736,34.5550429 24.4769418,34.1283565 24.7529418,33.6501458 C25.5589872,32.2541568 26.4936236,30.6907136 27.5537145,28.9614263 C28.6138054,27.2353592 29.73976,25.3949724 30.9347145,23.441876 C32.1296691,21.4919998 33.3324645,19.5485642 34.5431009,17.6147894 C37.3705327,13.1241168 40.4143736,8.25345179 43.67776,3.00118426 C43.3751009,2.55517626 42.9375781,2.13976086 42.3651918,1.75976848 C41.8602372,1.44740187 41.1874872,1.16401772 40.3469418,0.903175495 C39.5048281,0.645553544 38.4447372,0.516742569 37.1682372,0.516742569 C37.4693281,0.721229992 37.3783736,1.37816597 36.8891009,2.48594036 C36.4029645,3.58888434 35.6533736,4.97360232 34.6434645,6.6304335 C33.6351236,8.28726467 32.43076,10.1469731 31.0366463,12.1998981 C29.6393963,14.2560433 28.1841236,16.3379506 26.66926,18.4424 C23.1392827,23.3823009 19.0322145,28.9614263 14.3574645,35.178166 C14.0877372,35.178166 14.0798963,34.7128363 14.3308054,33.782177 C14.5832827,32.8482974 14.9878736,31.6133222 15.54301,30.0756412 C16.0981463,28.5395703 16.7803054,26.7861309 17.5863509,24.8169331 C18.3939645,22.8477353 19.23451,20.8447247 20.1111236,18.806291 C22.1607372,14.0048619 24.5678963,8.53039539 27.3263281,2.38128144 C26.8888054,1.93205316 26.3681691,1.55206079 25.7612827,1.23969417 C25.2578963,0.962750572 24.6588509,0.740551639 23.9704191,0.566656822 C23.2804191,0.394372142 22.5151463,0.37827077 21.6746009,0.516742569 C22.0446918,0.793686166 22.0446918,1.42324981 21.6746009,2.40704364 C21.30451,3.39083746 20.6819418,4.62742283 19.8084645,6.11196932 C18.9318509,7.59651582 17.8811691,9.29038014 16.6532827,11.190342 C15.4253963,13.0903039 14.1222372,15.0836538 12.7422372,17.175222 C11.3622372,19.2667902 9.98380542,21.388951 8.60380542,23.5465349 C7.22380542,25.707339 5.95514633,27.7972971 4.7931236,29.8164091 C3.63266906,31.8387414 2.64000997,33.7483641 1.81671451,35.5436671 C0.990282692,37.3389701 0.0854417832,40.1647609 0.127782692,41.6879506 C0.217169056,44.930767 1.92021451,46.2414186 3.33471451,46.2414186 C2.99755542,46.2414186 2.87523724,42.631491 5.19771451,37.7205726 C6.13548724,35.7336633 7.04032815,33.3764224 8.25096451,30.8018131 C9.46160087,28.2288138 10.7161463,25.6220017 12.0114645,22.9765463 C13.3052145,20.3359213 14.6099418,17.7886843 15.9209418,15.3348352 C17.23351,12.8825962 18.4284645,10.7588253 19.5042372,8.96030202 C18.6966236,10.8634842 17.8215781,13.0114072 16.8806691,15.4137319 C15.9381918,17.8128363 15.0129645,20.2811766 14.1049872,22.8235833 C13.19701,25.3611595 12.3627372,27.8391606 11.6068736,30.2575867 C10.85101,32.6760128 10.2519645,34.8368169 9.81444178,36.7351686 C9.37691906,38.6351305 9.14169178,40.1631507 9.10875997,41.3208394 C9.07582815,42.478528 9.34398724,43.0565673 9.9163736,43.0565673 C10.3209645,42.6411519 11.0517372,41.7797285 12.11026,40.4658565 C13.1703509,39.1535947 14.4248963,37.5563386 15.87076,35.6724781 C17.3181918,33.7886176 18.8738281,31.7002696 20.5392372,29.4026038 C22.2046463,27.1065482 23.8778963,24.7734594 25.5589872,22.4081679 C27.2432145,20.0428763 28.8396236,17.6936862 30.3544872,15.3605974 C31.8693509,13.0307288 33.1976009,10.8972971 34.3408054,8.96030202 C33.1976009,11.1372075 31.8850327,13.5298714 30.4046691,16.1366835 C28.9243054,18.7467159 27.4690327,21.2939529 26.0404191,23.7816149 C24.6102372,26.2660566 23.2976691,28.5749933 22.1027145,30.6971542 C20.9093281,32.8241454 20.0248736,34.5051286 19.4540554,35.7513748 C19.0808281,36.5709346 18.7813054,37.3357498 18.5256918,38.0683622 C18.2010781,39.4353687 17.8905781,40.8683908 18.3657372,41.7781183 C18.7969872,42.6089491 19.9213736,43.1080917 21.09751,43.1080917 C23.1784872,43.1080917 26.0513963,41.8859975 28.2593963,39.8829869 C29.7350554,38.546573 30.6587145,37.4516797 31.3173509,36.5580535 C31.2467827,36.9525372 31.1464191,37.372783 31.10251,37.7447247 C30.9158963,39.3178287 31.0099872,40.6043283 31.37851,41.6074438 C31.7501691,42.607339 32.4903509,43.1064815 33.5990554,43.1064815 C34.8441918,43.1064815 36.0893281,42.6765749 37.3328963,41.8119312 C38.5796009,40.9488977 39.7902372,39.8427334 40.96951,38.4966587 C40.6448963,39.8636652 40.4269191,40.8683908 40.9020781,41.7781183 C41.3333281,42.6089491 42.4577145,43.1064815 43.6354191,43.1064815 C45.7148281,43.1064815 48.5877372,41.8843874 50.7957372,39.8829869 C51.3398963,39.3902849 51.7883963,38.9394465 52.1976918,38.5095398 C52.13026,38.7800429 52.0346009,39.0714777 51.9891236,39.3274895 C51.7868281,40.4658565 51.8824872,41.3804144 52.26826,42.0727734 C52.6540327,42.7635223 53.4867372,43.1064815 54.7648054,43.1064815 C54.4605781,43.1064815 54.3100327,42.9084346 54.3100327,42.5123409 C54.3100327,42.1162471 54.4370554,41.5720208 54.6911009,40.8796618 C54.94201,40.1889129 55.3121009,39.3613024 55.7998054,38.3936099 C56.2859418,37.4275276 56.8348054,36.3889891 57.4416918,35.2828249 C57.5671463,35.0799476 57.7443509,34.7949533 57.9466463,34.4680955 C59.8786463,34.6725829 61.9298281,34.204033 62.9538509,33.9174285 C62.7499872,34.3956393 62.5445554,34.8722399 62.3516691,35.3536709 C61.92826,36.4195817 61.7965327,37.0266035 61.5801236,38.3275943 L61.5785554,38.3275943 C61.5769872,38.335645 61.5769872,38.3404754 61.5754191,38.3485261 C61.5675781,38.3984404 61.5613054,38.4338634 61.5534645,38.4837776 C61.5268054,38.6383508 61.5095554,38.8299571 61.49701,39.0376648 C61.3715554,40.1953535 61.3809645,41.0181336 61.7777145,41.7781183 C62.2105327,42.6089491 63.3333509,43.1080917 64.5110554,43.1080917 C66.5920327,43.1080917 69.46651,41.8859975 71.6729418,39.8829869 C72.1292827,39.4691816 72.5181918,39.0859689 72.8773054,38.7172475 C72.8522145,38.8122456 72.8051691,38.9217349 72.7832145,39.0151229 C72.4648736,40.2581488 72.4303736,41.2516035 72.6812827,41.9938767 C72.9321918,42.73615 73.6159191,43.1064815 74.7246236,43.1064815 C76.0716918,43.1064815 77.3921009,42.7103878 78.6874191,41.91498 C79.9811691,41.1227925 81.2184645,40.119677 82.3977372,38.9120741 C82.3898963,38.934616 82.3883281,38.957158 82.3804872,38.98131 C82.3836236,38.9780897 82.3883281,38.9748695 82.3914645,38.9700391 C82.1374191,40.0939148 82.0119645,40.9811004 82.4291009,41.7781183 C82.8619191,42.6089491 83.9847372,43.1080917 85.1624418,43.1080917 C87.2418509,43.1080917 90.0238054,41.7716778 92.3243281,39.8829869 C93.4628281,38.9491073 94.4899872,37.9749743 95.4779418,36.9734689 C95.20351,37.6948104 94.9808281,38.3775086 94.8177372,39.0151229 C94.4978281,40.2581488 94.4648963,41.2516035 94.7158054,41.9938767 C94.9682827,42.73615 95.6504418,43.1064815 96.7607145,43.1064815 C98.1062145,43.1064815 99.4266236,42.7103878 100.721942,41.91498 C102.015692,41.1227925 103.252987,40.119677 104.430692,38.9120741 C104.396192,39.0408851 104.377374,39.156815 104.349146,39.2824057 C104.350715,39.2791854 104.353851,39.2775753 104.355419,39.2759651 C104.149987,40.2581488 104.082555,41.0535566 104.462055,41.7781183 C104.893305,42.6089491 106.017692,43.1080917 107.195396,43.1080917 C109.274805,43.1080917 112.147715,41.8859975 114.355715,39.8829869 C117.247442,37.2600734 121.776351,31.1914663 123.490374,26.4753744 L118.734078,26.4753744 Z" id="Fill-1" fill="#FEFEFE" mask="url(#mask-2)"></path>
                </g>
                <path d="M15.4629,20.3550324 C16.5904227,18.6289653 19.2563318,15.0995446 20.2662409,13.6005069 C21.2745818,12.0966387 22.1323773,10.8101391 22.8380591,9.73778773 C22.7392636,9.21932355 22.5683318,8.73789253 22.3346727,8.28866425 C22.0978773,7.90867187 21.7779682,7.51096799 21.3765136,7.09716273 C20.9719227,6.68174733 20.4167864,6.33556784 19.7095364,6.05862424 C25.1730818,6.20675686 29.2409455,9.17907012 35.5607182,9.17907012 C44.6373545,9.17907012 48.5374227,3.2907984 49.3889455,-0.000322027439 C47.4883091,1.82396341 43.2746045,3.53070884 35.3913545,3.59994474 C25.9963773,3.68367187 8.52055909,-3.25118902 3.46160455,8.91178735 C7.83996818,4.85907203 15.5883545,5.45482279 17.3384455,5.69634337 L17.2882636,5.69634337 C17.7242182,6.04252287 17.7430364,6.82987995 17.3384455,8.05519436 C16.9338545,9.2821189 16.2611045,10.785987 15.3201955,12.5619684 C14.3777182,14.3427801 11.6694682,18.2296513 10.3914,20.4049466 C9.11176364,22.5818521 7.83526364,24.7764691 6.55562727,26.9871875 C5.27755909,29.1979059 4.09985455,31.3490492 3.02251364,33.4373971 C1.94517273,35.5289653 1.13912727,37.3838434 0.599672727,39.0068617 C0.0617863636,40.6331002 -0.11385,41.9340911 0.0711954545,42.919495 C0.256240909,43.9032889 0.971331818,44.397601 2.21646818,44.397601 C1.87930909,44.397601 1.81187727,44.0417607 2.01417273,43.3333003 C2.21646818,42.6264501 2.61949091,41.6668083 3.22480909,40.4592054 C3.83169545,39.2483822 4.5954,37.849173 5.52219545,36.2615777 C6.44585455,34.6739825 7.45576364,32.9881688 8.54878636,31.2105774 C9.64180909,29.4313758 10.7865818,27.6070903 11.9815364,25.7425514 C13.1749227,23.8780126 14.3338091,22.0810995 15.4629,20.3550324" id="Fill-4" fill="#FEFEFE"></path>
                <path d="M63.3291409,56.6806936 C62.0510727,58.562944 58.7516182,61.7977096 56.7051409,62.9714996 C54.40305,64.454436 49.5542318,64.8392588 51.5693455,59.971814 C52.1495727,58.5742149 53.8479136,57.0204325 55.9822091,55.9529116 C58.8174818,54.8209851 61.9334591,54.0287976 65.2736864,53.5151639 C64.6370045,54.6519207 63.9893455,55.7081707 63.3291409,56.6806936 M24.1057773,33.6444607 C23.2636636,35.2175648 22.3729364,36.6666883 21.4304591,37.9966616 C20.48955,39.328245 19.5470727,40.431189 18.6045955,41.3151543 C17.6621182,42.1958994 16.8388227,42.6354668 16.1331409,42.6354668 C15.4258909,42.6354668 15.1483227,42.0477668 15.3004364,40.8723666 C15.45255,39.6985766 15.8618455,38.2397923 16.5361636,36.4944036 C17.2089136,34.7522351 18.0918,32.8941368 19.1863909,30.924939 C20.2778455,28.9557412 21.4132091,27.1668788 22.5909136,25.5631822 C23.7686182,23.9562652 24.9306409,22.7035785 26.0738455,21.805122 C27.21705,20.9082755 28.1940273,20.666755 29.0000727,21.0789501 C29.3043,21.254455 29.4799364,21.5909737 29.5301182,22.0917264 C29.5803,22.5908689 29.5207091,23.1882298 29.3544818,23.8773685 C29.3544818,23.8773685 24.9463227,32.0729668 24.1057773,33.6444607 M130.532005,53.5087233 C118.248436,56.1670598 108.894232,51.5363053 93.4303909,50.4559032 C84.6909136,49.8440511 77.3863227,49.9213377 71.37705,50.6201372 C71.4601636,50.4784451 71.5464136,50.3464139 71.6295273,50.2047218 C72.9750273,47.8700229 79.13955,33.894032 81.2393455,29.6674219 C82.0532318,28.1297409 82.8969136,26.6146018 83.7939136,25.1493769 C84.7912773,23.5166978 85.8388227,22.0063891 86.9396864,20.6168407 C86.6009591,20.1692226 86.1258,19.7586376 85.5173455,19.3834756 C85.0092545,19.0759394 84.3349364,18.7973857 83.4928227,18.542984 C82.6475727,18.2901925 82.4264591,18.1694322 81.1483909,18.179093 C81.0966409,18.6395922 81.0731182,18.8746723 80.8770955,19.8600762 C80.6826409,20.8454802 80.2545273,22.169013 79.5943227,23.8338948 C79.5943227,23.8338948 77.8144364,28.0009299 75.9404591,31.464335 C75.1877318,32.8522732 73.7904818,34.9679935 72.9232773,36.1144112 C72.0560727,37.2608289 71.1716182,38.2091997 70.2699136,38.9595236 C69.3666409,39.7082374 68.5621636,40.0850095 67.8564818,40.0914501 C67.3170273,40.0946704 67.1539364,39.785524 67.3687773,39.1624009 C67.5836182,38.5392778 67.9991864,37.7164977 68.6123455,36.6924505 C69.2286409,35.6684032 69.9656864,34.4978335 70.8328909,33.1759108 C71.6985273,31.8588186 72.5280955,30.5127439 73.3247318,29.140907 C74.1245045,27.7706803 74.8003909,26.4278258 75.3649364,25.1107336 C75.9263455,23.7920313 76.2039136,22.6262919 76.1976409,21.6054649 C76.1882318,20.5878582 75.8400955,19.7682984 75.1453909,19.1516159 C74.4506864,18.5381536 73.2275045,18.2354478 71.4789818,18.2483289 C72.1172318,18.2434985 72.3618682,18.9294169 72.3148227,19.6024543 C72.2693455,20.2771018 71.3739136,23.1769588 70.0582091,26.0269017 C68.9197091,28.4871913 66.2679136,32.5318559 65.6218227,33.951997 C65.6092773,33.9793693 65.5951636,34.0131822 65.5826182,34.0405545 C65.5528227,34.0985194 65.5089136,34.1645351 65.4838227,34.2192797 C64.8502773,35.6233194 64.2794591,37.03863 63.3307091,38.3154688 C61.3422545,40.9866864 58.2498,42.3762348 56.5734136,42.3762348 C56.0512091,42.3762348 55.5023455,42.0992912 55.4929364,41.5727763 C55.5148909,41.4455755 55.5243,41.3328659 55.5650727,41.1847332 C55.8379364,40.1639063 56.3632773,38.8838472 57.1254136,37.3606574 C57.3073227,37.0112576 57.4892318,36.6602477 57.6930955,36.2899162 C57.6915273,36.2899162 57.6915273,36.2899162 57.6883909,36.2915263 C58.4223,34.9051982 59.2440273,33.4496341 60.2084591,31.8845808 C61.3689136,30.0023304 62.5121182,28.248891 63.6396409,26.6242626 C64.7671636,25.0012443 65.7833455,23.6535595 66.6944591,22.5828182 C67.6024364,21.512077 68.0572091,20.9630202 68.3018455,20.6377725 C68.2877318,20.5234527 68.2987091,20.3898114 68.0807318,20.0436319 C67.8627545,19.6990625 67.5757773,19.3802553 67.2229364,19.0856002 C66.8700955,18.7925553 66.4482545,18.5333232 65.9621182,18.307904 C65.4728455,18.0840949 64.9271182,17.9536738 64.3218,17.9198609 C63.3448227,17.886048 62.26905,18.2740911 61.0913455,19.0856002 C59.9136409,19.8971094 58.6951636,20.9597999 57.4327773,22.2720617 C56.1719591,23.5843236 54.9174136,25.0624295 53.6738455,26.7031593 C52.4287091,28.342279 51.2839364,29.9588567 50.2410955,31.5480621 C51.0142091,30.2003773 51.8139818,28.9042168 52.6388455,27.6611909 C53.4621409,26.4165549 54.2274136,25.2958994 54.9330955,24.2927839 C55.6419136,23.2912786 56.2629136,22.4620579 56.8023682,21.8067321 C57.3402545,21.1514063 57.7275955,20.7537024 57.9628227,20.6152306 C57.7605273,20.2690511 57.4908,19.9582946 57.1536409,19.681351 C56.8854818,19.4398304 56.5326409,19.224072 56.0951182,19.0340758 C55.6575955,18.8440796 55.1526409,18.7329802 54.5818227,18.695947 C53.8745727,18.6637443 53.0936182,18.8778925 52.2342545,19.3448323 C51.3764591,19.8117721 50.4763227,20.4590473 49.5354136,21.2882679 C48.5929364,22.1158784 47.6238,23.085181 46.6342773,24.1897351 C45.64005,25.2958994 44.6568,26.4680793 43.6813909,27.7127153 C44.5219364,26.4004535 45.3546409,25.1220046 46.1779364,23.8789787 C47.0028,22.6343426 47.7680727,21.4782641 48.4737545,20.4075229 C48.1726636,19.9582946 47.7178909,19.5444893 47.1125727,19.1628868 C46.6076182,18.8521303 45.9254591,18.5671361 45.0676636,18.307904 C44.2114364,18.050282 43.1419364,17.9198609 41.8638682,17.9198609 C42.3013909,18.2660404 42.4190045,18.9036547 42.2167091,19.8359242 C42.0144136,20.7698037 41.6113909,21.8840187 41.0060727,23.178569 C40.4007545,24.4747294 39.6762545,25.9093617 38.8357091,27.4792454 C38.7761182,27.591955 38.7180955,27.7046646 38.6585045,27.814154 L36.0913909,27.814154 C36.6967091,27.9880488 36.9993682,28.4710899 36.9993682,29.2681079 C36.9993682,30.0635156 36.7892318,30.9941749 36.3689591,32.063306 C36.3015273,32.2355907 36.2450727,32.3644017 36.1948909,32.4803316 C36.1117773,32.6397351 36.0380727,32.7943083 35.9565273,32.9537119 C35.8138227,33.2048933 35.6570045,33.459295 35.3073,34.233771 C35.29005,34.2675838 35.2743682,34.304617 35.2602545,34.34004 C35.0030727,34.8713853 34.7662773,35.3882393 34.5326182,35.9083136 C34.1311636,36.7359242 33.6920727,37.5474333 33.1212545,38.3138586 C31.1328,40.9850762 28.0387773,42.3746246 26.3639591,42.3746246 C25.7962773,42.3746246 25.1658682,42.0638681 25.2678,41.4439653 C25.3665955,40.8208422 25.6457318,40.0093331 26.0989364,39.0062176 C26.5537091,38.0063224 27.1511864,36.8502439 27.8898,35.5347618 C28.6299818,34.2241101 29.4046636,32.8941368 30.2122773,31.5480621 C32.1285955,28.3680412 34.4683227,24.7581136 37.2251864,20.7166692 C36.9240955,20.2674409 36.4693227,19.8552458 35.8640045,19.4752534 C35.35905,19.1628868 34.6863,18.8762824 33.8457545,18.6186604 C33.0036409,18.3578182 31.94355,18.2290072 30.66705,18.2290072 C31.2049364,18.2290072 31.4746636,18.5059508 31.4746636,19.059838 C31.4746636,19.6137252 31.28805,20.3543883 30.9179591,21.2866578 C30.8175955,20.3543883 30.5478682,19.6137252 30.1103455,19.059838 C29.0345727,17.8135918 27.8662773,17.2194512 26.6038909,17.2693655 C25.3415045,17.3241101 24.0728455,17.8329135 22.7932091,18.7989958 C21.5151409,19.7666883 20.2621636,21.0725095 19.0342773,22.7100191 C17.8063909,24.352359 16.7039591,26.1218998 15.72855,28.0218617 C14.7531409,29.9218236 13.9376864,31.8491578 13.2821864,33.7990339 C12.6251182,35.7521303 12.2048455,37.5136204 12.0198,39.0851143 C11.8347545,40.6582184 11.9288455,41.944718 12.2973682,42.9478335 C12.6674591,43.9477287 13.4076409,44.4468712 14.5179136,44.4468712 C15.76305,44.4468712 17.0066182,44.0169646 18.2517545,43.1523209 C19.4968909,42.2892873 20.7059591,41.1831231 21.8852318,39.8370484 C21.5621864,41.2040549 21.3457773,42.2087805 21.8193682,43.118508 C22.2521864,43.9493388 23.3750045,44.4468712 24.5527091,44.4468712 C26.6336864,44.4468712 29.5065955,43.2263872 31.7145955,41.2233765 C32.2430727,40.7451658 32.6790273,40.3072085 33.0804818,39.8869627 C33.0177545,40.1445846 32.9236636,40.4247485 32.8813227,40.6678792 C32.6790273,41.8078563 32.7731182,42.7224143 33.1588909,43.4131631 C33.5462318,44.103912 34.3789364,44.4484813 35.6570045,44.4484813 C35.3543455,44.4484813 35.1959591,44.2600953 35.1771409,43.8801029 C35.1614591,43.4985004 35.2696636,42.9816463 35.5064591,42.3247104 C35.7401182,41.6693845 36.0851182,40.8820274 36.5398909,39.9674695 C36.9946636,39.0529116 37.5058909,38.0594569 38.0782773,36.9887157 C39.2904818,35.0887538 40.6265727,33.1710804 42.0912545,31.2356955 C43.5559364,29.3019207 44.9751409,27.5661928 46.3551409,26.0285118 C47.7351409,24.4924409 48.9959591,23.2397542 50.1407318,22.2720617 C51.2839364,21.3043693 52.1417318,20.8213281 52.7141182,20.8213281 C49.4491636,25.244375 46.8945955,29.1811604 45.0441409,32.6349047 C44.2694591,34.1210614 43.6061182,35.571795 43.0494136,36.9887157 C42.4958455,38.4040263 42.1743682,39.6663739 42.0912545,40.770928 C42.0065727,41.8770922 42.2339591,42.7642778 42.7734136,43.4389253 C43.3097318,44.1119627 44.2694591,44.4484813 45.6494591,44.4484813 C45.4800955,44.1377248 45.3954136,43.7416311 45.3954136,43.2569798 C45.3954136,42.7739386 45.4722545,42.2216616 45.6243682,41.6001486 C45.7749136,40.9770255 45.9928909,40.2959375 46.2798682,39.5520541 C46.5652773,38.8097809 46.8945955,38.0417454 47.2646864,37.2479478 C48.4737545,35.2449371 49.8443455,33.2242149 51.3764591,31.1841711 C52.9070045,29.1457374 54.4046182,27.2989101 55.8677318,25.6404688 C57.3324136,23.9820274 58.6590955,22.6343426 59.85405,21.5990244 C61.0490045,20.562096 61.9318909,20.0436319 62.5042773,20.0436319 C59.1389591,24.6035404 56.4997091,28.6804078 54.5818227,32.2726239 C53.7742091,33.7925934 53.0748,35.2868007 52.4867318,36.7552458 C51.8986636,38.2236909 51.5615045,39.5279021 51.4768227,40.6678792 C51.3937091,41.8078563 51.6116864,42.7224143 52.1338909,43.4131631 C52.4883,43.8833232 53.0559818,44.1795884 53.8102773,44.327721 C53.8557545,44.338992 53.8965273,44.3534832 53.9435727,44.3631441 C53.9482773,44.3631441 53.9529818,44.3647542 53.95455,44.3647542 C54.2164364,44.4162786 54.4877318,44.4484813 54.7621636,44.4484813 C56.8431409,44.4484813 59.71605,43.2279973 61.92405,41.2233765 C62.7551864,40.4714425 63.3965727,39.8032355 63.9313227,39.1946037 C63.8827091,39.8740816 63.9501409,40.4553411 64.1508682,40.923891 C64.44255,41.5953182 65.1435273,41.9270065 66.2538,41.9189558 C67.2292091,41.9109051 68.2124591,41.6613338 69.2004136,41.1686319 C70.0566409,40.7451658 70.8752318,40.1800076 71.6671636,39.5198514 C71.3127545,40.3909356 70.9536409,41.26363 70.5960955,42.1202229 C69.4183909,44.9363529 68.2328455,47.5962995 67.0378909,50.1000629 C66.8246182,50.5492912 66.6082091,50.9759775 66.3902318,51.4074943 C63.4310727,52.0096856 60.8859136,52.8115339 58.7249591,53.7969379 L58.7218227,53.7808365 C53.1469364,56.0672313 50.3994818,58.4663357 49.95255,61.509495 C49.0806409,67.4074276 57.6648682,64.0068178 62.3223682,60.7833232 C62.3803909,60.7430697 62.4023455,60.7205278 62.4321409,60.6931555 C64.0018909,59.6916502 65.4900955,58.4260823 66.8873455,56.8626391 C67.9286182,55.6968998 68.9212773,54.3959089 69.8763,52.9902591 C76.6994591,52.4621341 84.2675045,52.8888205 92.2009364,53.8935461 C102.80655,55.2364005 119.570414,61.4724619 136.022209,51.9275686 C136.152368,51.8583327 136.222936,51.8196894 136.222936,51.8196894 C136.222936,51.8196894 137.596664,48.8795789 135.920277,46.0956517 C135.656823,50.4285309 133.371982,52.4750152 130.532005,53.5087233" id="Fill-6" fill="#FEFEFE"></path>
            </g>
        </g>
    </g>
</svg>