<?xml version="1.0" encoding="UTF-8"?>
<svg width="40px" height="40px" viewBox="0 0 40 40" version="1.1" xmlns="http://www.w3.org/2000/svg" xmlns:xlink="http://www.w3.org/1999/xlink">
    <!-- Generator: Sketch 43 (38999) - http://www.bohemiancoding.com/sketch -->
    <title>share-social-tw</title>
    <desc>Created with Sketch.</desc>
    <defs></defs>
    <g id="Symbols" stroke="none" stroke-width="1" fill="none" fill-rule="evenodd">
        <g id="share" transform="translate(-840.000000, -20.000000)">
            <g id="share-social-tw" transform="translate(840.000000, 20.000000)">
                <circle id="Oval-3-Copy-2" fill="#00ACED" cx="20" cy="20" r="20"></circle>
                <path d="M30.6938462,14.845 C29.9723077,15.157 29.1907692,15.373 28.3738462,15.4675 C29.2092308,14.98 29.8461538,14.2075 30.1523077,13.2865 C29.3707692,13.738 28.5061538,14.0665 27.58,14.242 C26.8476923,13.48 25.7953846,13 24.6353846,13 C22.4061538,13 20.5969231,14.764 20.5969231,16.9375 C20.5969231,17.248 20.6338462,17.5465 20.7,17.8345 C17.34,17.6695 14.3661538,16.105 12.3707692,13.72 C12.0215385,14.3005 11.8230769,14.98 11.8230769,15.7015 C11.8230769,17.0665 12.5384615,18.274 13.62,18.976 C12.9584615,18.9595 12.34,18.778 11.7938462,18.484 L11.7938462,18.532 C11.7938462,20.4415 13.1876923,22.0345 15.0323077,22.399 C14.6953846,22.486 14.3353846,22.5325 13.9692308,22.5325 C13.7107692,22.5325 13.4584615,22.51 13.2061538,22.4635 C13.7230769,24.028 15.2123077,25.1635 16.98,25.1995 C15.5969231,26.254 13.8538462,26.881 11.9615385,26.881 C11.6369231,26.881 11.3184615,26.863 11,26.8285 C12.7907692,27.9475 14.9123077,28.597 17.1953846,28.597 C24.6230769,28.597 28.6861538,22.597 28.6861538,17.395 L28.6738462,16.885 C29.4676923,16.3285 30.1523077,15.637 30.6938462,14.845 Z" id="twitter-logo-silhouette-(1)" fill="#FFFFFF"></path>
            </g>
        </g>
    </g>
</svg>