<?xml version="1.0" encoding="UTF-8"?>
<svg width="80px" height="80px" viewBox="0 0 80 80" version="1.1" xmlns="http://www.w3.org/2000/svg" xmlns:xlink="http://www.w3.org/1999/xlink">
    <!-- Generator: Sketch 43 (38999) - http://www.bohemiancoding.com/sketch -->
    <title>share-social-gplus</title>
    <desc>Created with Sketch.</desc>
    <defs>
        <polygon id="path-1" points="34.2011364 0.927346154 0 0.927346154 0 35.7032967 34.2011364 35.7032967 34.2011364 0.927346154"></polygon>
        <polygon id="path-3" points="15.3168753 0.529254396 15.3168753 15.4701445 0.320370823 15.4701445 0.320370823 0.529254396"></polygon>
    </defs>
    <g id="Page-1" stroke="none" stroke-width="1" fill="none" fill-rule="evenodd">
        <g id="popup_school-copy" transform="translate(-860.000000, -360.000000)">
            <g id="share-social-gplus" transform="translate(860.000000, 360.000000)">
                <circle id="Oval-3-Copy-3" fill="#DD4B39" cx="40" cy="40" r="40"></circle>
                <g id="Page-1" transform="translate(13.000000, 22.000000)">
                    <g id="Group-3" transform="translate(0.000000, 0.012590)">
                        <mask id="mask-2" fill="white">
                            <use xlink:href="#path-1"></use>
                        </mask>
                        <g id="Clip-2"></g>
                        <path d="M0.0107513317,18.3363676 C-0.331593705,9.37108187 7.55177312,1.08697747 16.5593143,0.979867582 C21.1493785,0.59088956 25.6140104,2.36759835 29.0921605,5.26332363 C27.6661944,6.82299396 26.2147646,8.36857088 24.6680818,9.81079615 C21.6058385,7.96174121 17.9258651,6.54770275 14.3486896,7.80295549 C8.58352373,9.43591154 5.09122712,16.2185984 7.22734697,21.8381093 C8.99188571,27.7103621 16.157554,30.9283566 21.7755964,28.4620104 C24.6822283,27.4275544 26.597663,24.7554445 27.4417368,21.8813291 C24.1078809,21.8155599 20.7740249,21.855961 17.4429983,21.7638841 C17.4326242,19.7898676 17.4250794,17.822428 17.4326242,15.847472 C22.9912513,15.8371368 28.5583663,15.8221038 34.1245383,15.8700214 C34.4631109,20.7106368 33.7482416,25.889494 30.587916,29.7773951 C26.2666351,35.3217412 18.275755,36.9490599 11.7740286,34.7711588 C4.87714358,32.5143346 -0.140144552,25.5935324 0.0107513317,18.3363676" id="Fill-1" fill="#FFFFFF" mask="url(#mask-2)"></path>
                    </g>
                    <g id="Group-6" transform="translate(39.610169, 10.347755)">
                        <mask id="mask-4" fill="white">
                            <use xlink:href="#path-3"></use>
                        </mask>
                        <g id="Clip-5"></g>
                        <path d="M5.34520375,0.529254396 L10.3040197,0.529254396 C10.3115645,2.18475989 10.3247679,3.84308407 10.3370282,5.49483132 C11.9949967,5.50986429 13.6595669,5.52019945 15.3175355,5.52771593 L15.3175355,10.4745016 C13.6595669,10.4829577 11.9949967,10.4895346 10.3370282,10.5008093 C10.3181662,12.1591335 10.3115645,13.8118203 10.3040197,15.4701445 C8.64605121,15.462628 6.98431029,15.4701445 5.33765896,15.4701445 C5.31974007,13.8118203 5.31974007,12.1591335 5.30465048,10.5083258 C3.64668196,10.4895346 1.97833935,10.4829577 0.320370823,10.4745016 L0.320370823,5.52771593 C1.97833935,5.51644121 3.63630787,5.50986429 5.30465048,5.49483132 C5.31219528,3.84308407 5.32634177,2.18475989 5.34520375,0.529254396" id="Fill-4" fill="#FFFFFF" mask="url(#mask-4)"></path>
                    </g>
                </g>
            </g>
        </g>
    </g>
</svg>