<?xml version="1.0" encoding="UTF-8"?>
<svg width="40px" height="40px" viewBox="0 0 40 40" version="1.1" xmlns="http://www.w3.org/2000/svg" xmlns:xlink="http://www.w3.org/1999/xlink">
    <!-- Generator: Sketch 43 (38999) - http://www.bohemiancoding.com/sketch -->
    <title>share-social-vk</title>
    <desc>Created with Sketch.</desc>
    <defs></defs>
    <g id="Symbols" stroke="none" stroke-width="1" fill="none" fill-rule="evenodd">
        <g id="share" transform="translate(-760.000000, -20.000000)">
            <g id="share-social-vk" transform="translate(760.000000, 20.000000)">
                <circle id="Oval-3-Copy" fill="#45668E" cx="20" cy="20" r="20"></circle>
                <path d="M27.8628416,20.8643353 C27.8628416,20.8643353 31.0132677,16.4202618 31.3264212,14.9597575 C31.43063,14.4381865 31.2011247,14.145945 30.6586416,14.145945 L27.9254899,14.145945 C27.2995343,14.145945 27.0699411,14.4172744 26.8822599,14.8137246 C26.8822599,14.8137246 25.404446,17.9623056 23.6065372,19.9464019 C23.0292593,20.5879097 22.7357877,20.7809507 22.4171865,20.7809507 C22.1602671,20.7809507 22.0416484,20.5666462 22.0416484,19.9880503 L22.0416484,14.9180213 C22.0416484,14.2086811 21.9582638,14 21.3740445,14 L16.9925314,14 C16.6586416,14 16.4500483,14.1940954 16.4500483,14.4590106 C16.4500483,15.1270539 17.4723662,15.2778315 17.4723662,17.0879536 L17.4723662,20.8225991 C17.4723662,21.5737633 17.43063,21.865829 17.075916,21.865829 C16.1370706,21.865829 13.9045778,18.6319304 12.6527546,14.9597575 C12.4023372,14.2086811 12.1310957,14 11.4217556,14 L8.68851595,14 C8.29215359,14 8,14.2711537 8,14.6676039 C8,15.3978561 8.85537299,18.7778754 12.214656,23.3055092 C14.4679729,26.3517266 17.43063,28 20.1013092,28 C21.7286706,28 22.1251208,27.7288463 22.1251208,27.0402425 L22.1251208,24.7033653 C22.1251208,24.1191459 22.354714,23.8688164 22.6884281,23.8688164 C23.0639663,23.8688164 23.7268254,23.9894561 25.2756348,25.5170899 C27.1116774,27.2697478 27.2369739,28 28.2384676,28 L31.3055092,28 C31.6183991,28 31.9105527,27.8539671 31.9105527,27.3323082 C31.9105527,26.6437044 31.0132677,25.4128811 29.6363237,23.9522889 C29.0729286,23.2012125 28.1549073,22.3874879 27.8628416,22.0119497 C27.4455672,21.5737633 27.5707759,21.3233459 27.8628416,20.8643353" id="Fill-1" fill="#FFFFFF"></path>
            </g>
        </g>
    </g>
</svg>